  0
SECTION
  2
HEADER
  9
$ACADVER
  1
AC1009
  9
$FILLMODE
 70
 0
  9
$SPLFRAME
 70
 1
  9
$EXTMIN
 10
0
 20
0
 30
0.0
  9
$EXTMAX
 10
1058.33
 20
1058.33
 30
0.0
  0
ENDSEC
  0
SECTION
  2
TABLES
  0
TABLE
  2
LAYER
 70
1
  0
LAYER
  2
0
 70
     0
 62
     7
  6
CONTINUOUS
  0
ENDTAB
  0
ENDSEC
  0
SECTION
  2
ENTITIES
  0
LINE
  8
0
 62
     0
 10
0.0950846
 20
133.608
 30
0.0
 11
228.695
 21
133.608
 31
0.0
  0
LINE
  8
0
 62
     0
 10
228.695
 20
133.608
 30
0.0
 11
228.695
 21
0.257693
 31
0.0
  0
LINE
  8
0
 62
     0
 10
228.695
 20
0.257693
 30
0.0
 11
0.0950846
 21
0.257693
 31
0.0
  0
LINE
  8
0
 62
     0
 10
0.0950846
 20
0.257693
 30
0.0
 11
0.0950846
 21
133.608
 31
0.0
  0
LINE
  8
0
 62
     0
 10
59.7697
 20
16.7845
 30
0.0
 11
59.7697
 21
15.7841
 31
0.0
  0
LINE
  8
0
 62
     0
 10
59.7697
 20
15.7841
 30
0.0
 11
58.9689
 21
15.7841
 31
0.0
  0
LINE
  8
0
 62
     0
 10
58.9689
 20
15.7841
 30
0.0
 11
58.9689
 21
12.6848
 31
0.0
  0
LINE
  8
0
 62
     0
 10
58.9689
 20
12.6848
 30
0.0
 11
59.7697
 21
12.6848
 31
0.0
  0
LINE
  8
0
 62
     0
 10
59.7697
 20
12.6848
 30
0.0
 11
59.7697
 21
12.084
 31
0.0
  0
LINE
  8
0
 62
     0
 10
59.7697
 20
12.084
 30
0.0
 11
13.1189
 21
12.084
 31
0.0
  0
LINE
  8
0
 62
     0
 10
13.1189
 20
12.084
 30
0.0
 11
13.1189
 21
15.3142
 31
0.0
  0
LINE
  8
0
 62
     0
 10
13.1189
 20
15.3142
 30
0.0
 11
11.395
 21
15.3142
 31
0.0
  0
LINE
  8
0
 62
     0
 10
11.395
 20
15.3142
 30
0.0
 11
11.395
 21
16.2347
 31
0.0
  0
LINE
  8
0
 62
     0
 10
11.395
 20
16.2347
 30
0.0
 11
8.09459
 21
16.2347
 31
0.0
  0
LINE
  8
0
 62
     0
 10
8.09459
 20
16.2347
 30
0.0
 11
8.09459
 21
15.3142
 31
0.0
  0
LINE
  8
0
 62
     0
 10
8.09459
 20
15.3142
 30
0.0
 11
6.3693
 21
15.3142
 31
0.0
  0
LINE
  8
0
 62
     0
 10
6.3693
 20
15.3142
 30
0.0
 11
6.3693
 21
12.084
 31
0.0
  0
LINE
  8
0
 62
     0
 10
6.3693
 20
12.084
 30
0.0
 11
5.54383
 21
12.084
 31
0.0
  0
LINE
  8
0
 62
     0
 10
5.54383
 20
12.084
 30
0.0
 11
5.54383
 21
9.28384
 31
0.0
  0
LINE
  8
0
 62
     0
 10
5.54383
 20
9.28384
 30
0.0
 11
6.3693
 21
9.28384
 31
0.0
  0
LINE
  8
0
 62
     0
 10
6.3693
 20
9.28384
 30
0.0
 11
6.3693
 21
3.01377
 31
0.0
  0
LINE
  8
0
 62
     0
 10
6.3693
 20
3.01377
 30
0.0
 11
8.09459
 21
3.01377
 31
0.0
  0
LINE
  8
0
 62
     0
 10
8.09459
 20
3.01377
 30
0.0
 11
8.09459
 21
2.03261
 31
0.0
  0
LINE
  8
0
 62
     0
 10
8.09459
 20
2.03261
 30
0.0
 11
11.395
 21
2.03261
 31
0.0
  0
LINE
  8
0
 62
     0
 10
11.395
 20
2.03261
 30
0.0
 11
11.395
 21
3.01377
 31
0.0
  0
LINE
  8
0
 62
     0
 10
11.395
 20
3.01377
 30
0.0
 11
13.1189
 21
3.01377
 31
0.0
  0
LINE
  8
0
 62
     0
 10
13.1189
 20
3.01377
 30
0.0
 11
13.1189
 21
7.48273
 31
0.0
  0
LINE
  8
0
 62
     0
 10
13.1189
 20
7.48273
 30
0.0
 11
59.7697
 21
7.48273
 31
0.0
  0
LINE
  8
0
 62
     0
 10
59.7697
 20
7.48273
 30
0.0
 11
59.7697
 21
6.88329
 31
0.0
  0
LINE
  8
0
 62
     0
 10
59.7697
 20
6.88329
 30
0.0
 11
58.9689
 21
6.88329
 31
0.0
  0
LINE
  8
0
 62
     0
 10
58.9689
 20
6.88329
 30
0.0
 11
58.9689
 21
3.78273
 31
0.0
  0
LINE
  8
0
 62
     0
 10
58.9689
 20
3.78273
 30
0.0
 11
59.7697
 21
3.78273
 31
0.0
  0
LINE
  8
0
 62
     0
 10
59.7697
 20
3.78273
 30
0.0
 11
59.7697
 21
2.78364
 31
0.0
  0
LINE
  8
0
 62
     0
 10
59.7697
 20
2.78364
 30
0.0
 11
73.769
 21
2.78364
 31
0.0
  0
LINE
  8
0
 62
     0
 10
73.769
 20
2.78364
 30
0.0
 11
73.769
 21
3.78273
 31
0.0
  0
LINE
  8
0
 62
     0
 10
73.769
 20
3.78273
 30
0.0
 11
74.5698
 21
3.78273
 31
0.0
  0
LINE
  8
0
 62
     0
 10
74.5698
 20
3.78273
 30
0.0
 11
74.5698
 21
6.88329
 31
0.0
  0
LINE
  8
0
 62
     0
 10
74.5698
 20
6.88329
 30
0.0
 11
73.769
 21
6.88329
 31
0.0
  0
LINE
  8
0
 62
     0
 10
73.769
 20
6.88329
 30
0.0
 11
73.769
 21
7.48273
 31
0.0
  0
LINE
  8
0
 62
     0
 10
73.769
 20
7.48273
 30
0.0
 11
101.37
 21
7.48273
 31
0.0
  0
LINE
  8
0
 62
     0
 10
101.37
 20
7.48273
 30
0.0
 11
101.37
 21
3.01377
 31
0.0
  0
LINE
  8
0
 62
     0
 10
101.37
 20
3.01377
 30
0.0
 11
103.095
 21
3.01377
 31
0.0
  0
LINE
  8
0
 62
     0
 10
103.095
 20
3.01377
 30
0.0
 11
103.095
 21
2.03261
 31
0.0
  0
LINE
  8
0
 62
     0
 10
103.095
 20
2.03261
 30
0.0
 11
106.394
 21
2.03261
 31
0.0
  0
LINE
  8
0
 62
     0
 10
106.394
 20
2.03261
 30
0.0
 11
106.394
 21
3.01377
 31
0.0
  0
LINE
  8
0
 62
     0
 10
106.394
 20
3.01377
 30
0.0
 11
108.119
 21
3.01377
 31
0.0
  0
LINE
  8
0
 62
     0
 10
108.119
 20
3.01377
 30
0.0
 11
108.119
 21
9.28384
 31
0.0
  0
LINE
  8
0
 62
     0
 10
108.119
 20
9.28384
 30
0.0
 11
108.945
 21
9.28384
 31
0.0
  0
LINE
  8
0
 62
     0
 10
108.945
 20
9.28384
 30
0.0
 11
108.945
 21
12.084
 31
0.0
  0
LINE
  8
0
 62
     0
 10
108.945
 20
12.084
 30
0.0
 11
108.119
 21
12.084
 31
0.0
  0
LINE
  8
0
 62
     0
 10
108.119
 20
12.084
 30
0.0
 11
108.119
 21
15.3142
 31
0.0
  0
LINE
  8
0
 62
     0
 10
108.119
 20
15.3142
 30
0.0
 11
106.394
 21
15.3142
 31
0.0
  0
LINE
  8
0
 62
     0
 10
106.394
 20
15.3142
 30
0.0
 11
106.394
 21
16.2347
 31
0.0
  0
LINE
  8
0
 62
     0
 10
106.394
 20
16.2347
 30
0.0
 11
103.095
 21
16.2347
 31
0.0
  0
LINE
  8
0
 62
     0
 10
103.095
 20
16.2347
 30
0.0
 11
103.095
 21
15.3142
 31
0.0
  0
LINE
  8
0
 62
     0
 10
103.095
 20
15.3142
 30
0.0
 11
101.37
 21
15.3142
 31
0.0
  0
LINE
  8
0
 62
     0
 10
101.37
 20
15.3142
 30
0.0
 11
101.37
 21
12.084
 31
0.0
  0
LINE
  8
0
 62
     0
 10
101.37
 20
12.084
 30
0.0
 11
73.769
 21
12.084
 31
0.0
  0
LINE
  8
0
 62
     0
 10
73.769
 20
12.084
 30
0.0
 11
73.769
 21
12.6848
 31
0.0
  0
LINE
  8
0
 62
     0
 10
73.769
 20
12.6848
 30
0.0
 11
74.5698
 21
12.6848
 31
0.0
  0
LINE
  8
0
 62
     0
 10
74.5698
 20
12.6848
 30
0.0
 11
74.5698
 21
15.7841
 31
0.0
  0
LINE
  8
0
 62
     0
 10
74.5698
 20
15.7841
 30
0.0
 11
73.769
 21
15.7841
 31
0.0
  0
LINE
  8
0
 62
     0
 10
73.769
 20
15.7841
 30
0.0
 11
73.769
 21
16.7845
 31
0.0
  0
LINE
  8
0
 62
     0
 10
73.769
 20
16.7845
 30
0.0
 11
59.7697
 21
16.7845
 31
0.0
  0
LINE
  8
0
 62
     0
 10
174.07
 20
16.7845
 30
0.0
 11
174.07
 21
15.7841
 31
0.0
  0
LINE
  8
0
 62
     0
 10
174.07
 20
15.7841
 30
0.0
 11
173.269
 21
15.7841
 31
0.0
  0
LINE
  8
0
 62
     0
 10
173.269
 20
15.7841
 30
0.0
 11
173.269
 21
12.6848
 31
0.0
  0
LINE
  8
0
 62
     0
 10
173.269
 20
12.6848
 30
0.0
 11
174.07
 21
12.6848
 31
0.0
  0
LINE
  8
0
 62
     0
 10
174.07
 20
12.6848
 30
0.0
 11
174.07
 21
12.084
 31
0.0
  0
LINE
  8
0
 62
     0
 10
174.07
 20
12.084
 30
0.0
 11
127.419
 21
12.084
 31
0.0
  0
LINE
  8
0
 62
     0
 10
127.419
 20
12.084
 30
0.0
 11
127.419
 21
15.3142
 31
0.0
  0
LINE
  8
0
 62
     0
 10
127.419
 20
15.3142
 30
0.0
 11
125.695
 21
15.3142
 31
0.0
  0
LINE
  8
0
 62
     0
 10
125.695
 20
15.3142
 30
0.0
 11
125.695
 21
16.2347
 31
0.0
  0
LINE
  8
0
 62
     0
 10
125.695
 20
16.2347
 30
0.0
 11
122.394
 21
16.2347
 31
0.0
  0
LINE
  8
0
 62
     0
 10
122.394
 20
16.2347
 30
0.0
 11
122.394
 21
15.3142
 31
0.0
  0
LINE
  8
0
 62
     0
 10
122.394
 20
15.3142
 30
0.0
 11
120.669
 21
15.3142
 31
0.0
  0
LINE
  8
0
 62
     0
 10
120.669
 20
15.3142
 30
0.0
 11
120.669
 21
12.084
 31
0.0
  0
LINE
  8
0
 62
     0
 10
120.669
 20
12.084
 30
0.0
 11
119.844
 21
12.084
 31
0.0
  0
LINE
  8
0
 62
     0
 10
119.844
 20
12.084
 30
0.0
 11
119.844
 21
9.28384
 31
0.0
  0
LINE
  8
0
 62
     0
 10
119.844
 20
9.28384
 30
0.0
 11
120.669
 21
9.28384
 31
0.0
  0
LINE
  8
0
 62
     0
 10
120.669
 20
9.28384
 30
0.0
 11
120.669
 21
3.01377
 31
0.0
  0
LINE
  8
0
 62
     0
 10
120.669
 20
3.01377
 30
0.0
 11
122.394
 21
3.01377
 31
0.0
  0
LINE
  8
0
 62
     0
 10
122.394
 20
3.01377
 30
0.0
 11
122.394
 21
2.03261
 31
0.0
  0
LINE
  8
0
 62
     0
 10
122.394
 20
2.03261
 30
0.0
 11
125.695
 21
2.03261
 31
0.0
  0
LINE
  8
0
 62
     0
 10
125.695
 20
2.03261
 30
0.0
 11
125.695
 21
3.01377
 31
0.0
  0
LINE
  8
0
 62
     0
 10
125.695
 20
3.01377
 30
0.0
 11
127.419
 21
3.01377
 31
0.0
  0
LINE
  8
0
 62
     0
 10
127.419
 20
3.01377
 30
0.0
 11
127.419
 21
7.48273
 31
0.0
  0
LINE
  8
0
 62
     0
 10
127.419
 20
7.48273
 30
0.0
 11
174.07
 21
7.48273
 31
0.0
  0
LINE
  8
0
 62
     0
 10
174.07
 20
7.48273
 30
0.0
 11
174.07
 21
6.88329
 31
0.0
  0
LINE
  8
0
 62
     0
 10
174.07
 20
6.88329
 30
0.0
 11
173.269
 21
6.88329
 31
0.0
  0
LINE
  8
0
 62
     0
 10
173.269
 20
6.88329
 30
0.0
 11
173.269
 21
3.78273
 31
0.0
  0
LINE
  8
0
 62
     0
 10
173.269
 20
3.78273
 30
0.0
 11
174.07
 21
3.78273
 31
0.0
  0
LINE
  8
0
 62
     0
 10
174.07
 20
3.78273
 30
0.0
 11
174.07
 21
2.78364
 31
0.0
  0
LINE
  8
0
 62
     0
 10
174.07
 20
2.78364
 30
0.0
 11
188.069
 21
2.78364
 31
0.0
  0
LINE
  8
0
 62
     0
 10
188.069
 20
2.78364
 30
0.0
 11
188.069
 21
3.78273
 31
0.0
  0
LINE
  8
0
 62
     0
 10
188.069
 20
3.78273
 30
0.0
 11
188.87
 21
3.78273
 31
0.0
  0
LINE
  8
0
 62
     0
 10
188.87
 20
3.78273
 30
0.0
 11
188.87
 21
6.88329
 31
0.0
  0
LINE
  8
0
 62
     0
 10
188.87
 20
6.88329
 30
0.0
 11
188.069
 21
6.88329
 31
0.0
  0
LINE
  8
0
 62
     0
 10
188.069
 20
6.88329
 30
0.0
 11
188.069
 21
7.48273
 31
0.0
  0
LINE
  8
0
 62
     0
 10
188.069
 20
7.48273
 30
0.0
 11
215.67
 21
7.48273
 31
0.0
  0
LINE
  8
0
 62
     0
 10
215.67
 20
7.48273
 30
0.0
 11
215.67
 21
3.01377
 31
0.0
  0
LINE
  8
0
 62
     0
 10
215.67
 20
3.01377
 30
0.0
 11
217.395
 21
3.01377
 31
0.0
  0
LINE
  8
0
 62
     0
 10
217.395
 20
3.01377
 30
0.0
 11
217.395
 21
2.03261
 31
0.0
  0
LINE
  8
0
 62
     0
 10
217.395
 20
2.03261
 30
0.0
 11
220.694
 21
2.03261
 31
0.0
  0
LINE
  8
0
 62
     0
 10
220.694
 20
2.03261
 30
0.0
 11
220.694
 21
3.01377
 31
0.0
  0
LINE
  8
0
 62
     0
 10
220.694
 20
3.01377
 30
0.0
 11
222.419
 21
3.01377
 31
0.0
  0
LINE
  8
0
 62
     0
 10
222.419
 20
3.01377
 30
0.0
 11
222.419
 21
9.28384
 31
0.0
  0
LINE
  8
0
 62
     0
 10
222.419
 20
9.28384
 30
0.0
 11
223.245
 21
9.28384
 31
0.0
  0
LINE
  8
0
 62
     0
 10
223.245
 20
9.28384
 30
0.0
 11
223.245
 21
12.084
 31
0.0
  0
LINE
  8
0
 62
     0
 10
223.245
 20
12.084
 30
0.0
 11
222.419
 21
12.084
 31
0.0
  0
LINE
  8
0
 62
     0
 10
222.419
 20
12.084
 30
0.0
 11
222.419
 21
15.3142
 31
0.0
  0
LINE
  8
0
 62
     0
 10
222.419
 20
15.3142
 30
0.0
 11
220.694
 21
15.3142
 31
0.0
  0
LINE
  8
0
 62
     0
 10
220.694
 20
15.3142
 30
0.0
 11
220.694
 21
16.2347
 31
0.0
  0
LINE
  8
0
 62
     0
 10
220.694
 20
16.2347
 30
0.0
 11
217.395
 21
16.2347
 31
0.0
  0
LINE
  8
0
 62
     0
 10
217.395
 20
16.2347
 30
0.0
 11
217.395
 21
15.3142
 31
0.0
  0
LINE
  8
0
 62
     0
 10
217.395
 20
15.3142
 30
0.0
 11
215.67
 21
15.3142
 31
0.0
  0
LINE
  8
0
 62
     0
 10
215.67
 20
15.3142
 30
0.0
 11
215.67
 21
12.084
 31
0.0
  0
LINE
  8
0
 62
     0
 10
215.67
 20
12.084
 30
0.0
 11
188.069
 21
12.084
 31
0.0
  0
LINE
  8
0
 62
     0
 10
188.069
 20
12.084
 30
0.0
 11
188.069
 21
12.6848
 31
0.0
  0
LINE
  8
0
 62
     0
 10
188.069
 20
12.6848
 30
0.0
 11
188.87
 21
12.6848
 31
0.0
  0
LINE
  8
0
 62
     0
 10
188.87
 20
12.6848
 30
0.0
 11
188.87
 21
15.7841
 31
0.0
  0
LINE
  8
0
 62
     0
 10
188.87
 20
15.7841
 30
0.0
 11
188.069
 21
15.7841
 31
0.0
  0
LINE
  8
0
 62
     0
 10
188.069
 20
15.7841
 30
0.0
 11
188.069
 21
16.7845
 31
0.0
  0
LINE
  8
0
 62
     0
 10
188.069
 20
16.7845
 30
0.0
 11
174.07
 21
16.7845
 31
0.0
  0
LINE
  8
0
 62
     0
 10
59.7697
 20
35.8345
 30
0.0
 11
59.7697
 21
34.8341
 31
0.0
  0
LINE
  8
0
 62
     0
 10
59.7697
 20
34.8341
 30
0.0
 11
58.9689
 21
34.8341
 31
0.0
  0
LINE
  8
0
 62
     0
 10
58.9689
 20
34.8341
 30
0.0
 11
58.9689
 21
31.7348
 31
0.0
  0
LINE
  8
0
 62
     0
 10
58.9689
 20
31.7348
 30
0.0
 11
59.7697
 21
31.7348
 31
0.0
  0
LINE
  8
0
 62
     0
 10
59.7697
 20
31.7348
 30
0.0
 11
59.7697
 21
31.1326
 31
0.0
  0
LINE
  8
0
 62
     0
 10
59.7697
 20
31.1326
 30
0.0
 11
35.4736
 21
31.1326
 31
0.0
  0
LINE
  8
0
 62
     0
 10
35.4736
 20
31.1326
 30
0.0
 11
35.4736
 21
34.3642
 31
0.0
  0
LINE
  8
0
 62
     0
 10
35.4736
 20
34.3642
 30
0.0
 11
33.7482
 21
34.3642
 31
0.0
  0
LINE
  8
0
 62
     0
 10
33.7482
 20
34.3642
 30
0.0
 11
33.7482
 21
35.2848
 31
0.0
  0
LINE
  8
0
 62
     0
 10
33.7482
 20
35.2848
 30
0.0
 11
30.4491
 21
35.2848
 31
0.0
  0
LINE
  8
0
 62
     0
 10
30.4491
 20
35.2848
 30
0.0
 11
30.4491
 21
34.3642
 31
0.0
  0
LINE
  8
0
 62
     0
 10
30.4491
 20
34.3642
 30
0.0
 11
28.7238
 21
34.3642
 31
0.0
  0
LINE
  8
0
 62
     0
 10
28.7238
 20
34.3642
 30
0.0
 11
28.7238
 21
31.1326
 31
0.0
  0
LINE
  8
0
 62
     0
 10
28.7238
 20
31.1326
 30
0.0
 11
27.8984
 21
31.1326
 31
0.0
  0
LINE
  8
0
 62
     0
 10
27.8984
 20
31.1326
 30
0.0
 11
27.8984
 21
28.3338
 31
0.0
  0
LINE
  8
0
 62
     0
 10
27.8984
 20
28.3338
 30
0.0
 11
28.7238
 21
28.3338
 31
0.0
  0
LINE
  8
0
 62
     0
 10
28.7238
 20
28.3338
 30
0.0
 11
28.7238
 21
22.0638
 31
0.0
  0
LINE
  8
0
 62
     0
 10
28.7238
 20
22.0638
 30
0.0
 11
30.4491
 21
22.0638
 31
0.0
  0
LINE
  8
0
 62
     0
 10
30.4491
 20
22.0638
 30
0.0
 11
30.4491
 21
21.084
 31
0.0
  0
LINE
  8
0
 62
     0
 10
30.4491
 20
21.084
 30
0.0
 11
33.7482
 21
21.084
 31
0.0
  0
LINE
  8
0
 62
     0
 10
33.7482
 20
21.084
 30
0.0
 11
33.7482
 21
22.0638
 31
0.0
  0
LINE
  8
0
 62
     0
 10
33.7482
 20
22.0638
 30
0.0
 11
35.4736
 21
22.0638
 31
0.0
  0
LINE
  8
0
 62
     0
 10
35.4736
 20
22.0638
 30
0.0
 11
35.4736
 21
26.5341
 31
0.0
  0
LINE
  8
0
 62
     0
 10
35.4736
 20
26.5341
 30
0.0
 11
59.7697
 21
26.5341
 31
0.0
  0
LINE
  8
0
 62
     0
 10
59.7697
 20
26.5341
 30
0.0
 11
59.7697
 21
25.9333
 31
0.0
  0
LINE
  8
0
 62
     0
 10
59.7697
 20
25.9333
 30
0.0
 11
58.9689
 21
25.9333
 31
0.0
  0
LINE
  8
0
 62
     0
 10
58.9689
 20
25.9333
 30
0.0
 11
58.9689
 21
22.8341
 31
0.0
  0
LINE
  8
0
 62
     0
 10
58.9689
 20
22.8341
 30
0.0
 11
59.7697
 21
22.8341
 31
0.0
  0
LINE
  8
0
 62
     0
 10
59.7697
 20
22.8341
 30
0.0
 11
59.7697
 21
21.8336
 31
0.0
  0
LINE
  8
0
 62
     0
 10
59.7697
 20
21.8336
 30
0.0
 11
73.769
 21
21.8336
 31
0.0
  0
LINE
  8
0
 62
     0
 10
73.769
 20
21.8336
 30
0.0
 11
73.769
 21
22.8341
 31
0.0
  0
LINE
  8
0
 62
     0
 10
73.769
 20
22.8341
 30
0.0
 11
74.5698
 21
22.8341
 31
0.0
  0
LINE
  8
0
 62
     0
 10
74.5698
 20
22.8341
 30
0.0
 11
74.5698
 21
25.9333
 31
0.0
  0
LINE
  8
0
 62
     0
 10
74.5698
 20
25.9333
 30
0.0
 11
73.769
 21
25.9333
 31
0.0
  0
LINE
  8
0
 62
     0
 10
73.769
 20
25.9333
 30
0.0
 11
73.769
 21
26.5341
 31
0.0
  0
LINE
  8
0
 62
     0
 10
73.769
 20
26.5341
 30
0.0
 11
98.0652
 21
26.5341
 31
0.0
  0
LINE
  8
0
 62
     0
 10
98.0652
 20
26.5341
 30
0.0
 11
98.0652
 21
22.0638
 31
0.0
  0
LINE
  8
0
 62
     0
 10
98.0652
 20
22.0638
 30
0.0
 11
99.7906
 21
22.0638
 31
0.0
  0
LINE
  8
0
 62
     0
 10
99.7906
 20
22.0638
 30
0.0
 11
99.7906
 21
21.084
 31
0.0
  0
LINE
  8
0
 62
     0
 10
99.7906
 20
21.084
 30
0.0
 11
103.091
 21
21.084
 31
0.0
  0
LINE
  8
0
 62
     0
 10
103.091
 20
21.084
 30
0.0
 11
103.091
 21
22.0638
 31
0.0
  0
LINE
  8
0
 62
     0
 10
103.091
 20
22.0638
 30
0.0
 11
104.815
 21
22.0638
 31
0.0
  0
LINE
  8
0
 62
     0
 10
104.815
 20
22.0638
 30
0.0
 11
104.815
 21
28.3338
 31
0.0
  0
LINE
  8
0
 62
     0
 10
104.815
 20
28.3338
 30
0.0
 11
105.64
 21
28.3338
 31
0.0
  0
LINE
  8
0
 62
     0
 10
105.64
 20
28.3338
 30
0.0
 11
105.64
 21
31.1326
 31
0.0
  0
LINE
  8
0
 62
     0
 10
105.64
 20
31.1326
 30
0.0
 11
104.815
 21
31.1326
 31
0.0
  0
LINE
  8
0
 62
     0
 10
104.815
 20
31.1326
 30
0.0
 11
104.815
 21
34.3642
 31
0.0
  0
LINE
  8
0
 62
     0
 10
104.815
 20
34.3642
 30
0.0
 11
103.091
 21
34.3642
 31
0.0
  0
LINE
  8
0
 62
     0
 10
103.091
 20
34.3642
 30
0.0
 11
103.091
 21
35.2848
 31
0.0
  0
LINE
  8
0
 62
     0
 10
103.091
 20
35.2848
 30
0.0
 11
99.7906
 21
35.2848
 31
0.0
  0
LINE
  8
0
 62
     0
 10
99.7906
 20
35.2848
 30
0.0
 11
99.7906
 21
34.3642
 31
0.0
  0
LINE
  8
0
 62
     0
 10
99.7906
 20
34.3642
 30
0.0
 11
98.0652
 21
34.3642
 31
0.0
  0
LINE
  8
0
 62
     0
 10
98.0652
 20
34.3642
 30
0.0
 11
98.0652
 21
31.1326
 31
0.0
  0
LINE
  8
0
 62
     0
 10
98.0652
 20
31.1326
 30
0.0
 11
73.769
 21
31.1326
 31
0.0
  0
LINE
  8
0
 62
     0
 10
73.769
 20
31.1326
 30
0.0
 11
73.769
 21
31.7348
 31
0.0
  0
LINE
  8
0
 62
     0
 10
73.769
 20
31.7348
 30
0.0
 11
74.5698
 21
31.7348
 31
0.0
  0
LINE
  8
0
 62
     0
 10
74.5698
 20
31.7348
 30
0.0
 11
74.5698
 21
34.8341
 31
0.0
  0
LINE
  8
0
 62
     0
 10
74.5698
 20
34.8341
 30
0.0
 11
73.769
 21
34.8341
 31
0.0
  0
LINE
  8
0
 62
     0
 10
73.769
 20
34.8341
 30
0.0
 11
73.769
 21
35.8345
 31
0.0
  0
LINE
  8
0
 62
     0
 10
73.769
 20
35.8345
 30
0.0
 11
59.7697
 21
35.8345
 31
0.0
  0
LINE
  8
0
 62
     0
 10
162.162
 20
35.8345
 30
0.0
 11
162.162
 21
34.8341
 31
0.0
  0
LINE
  8
0
 62
     0
 10
162.162
 20
34.8341
 30
0.0
 11
161.363
 21
34.8341
 31
0.0
  0
LINE
  8
0
 62
     0
 10
161.363
 20
34.8341
 30
0.0
 11
161.363
 21
31.7348
 31
0.0
  0
LINE
  8
0
 62
     0
 10
161.363
 20
31.7348
 30
0.0
 11
162.162
 21
31.7348
 31
0.0
  0
LINE
  8
0
 62
     0
 10
162.162
 20
31.7348
 30
0.0
 11
162.162
 21
31.1326
 31
0.0
  0
LINE
  8
0
 62
     0
 10
162.162
 20
31.1326
 30
0.0
 11
122.538
 21
31.1326
 31
0.0
  0
LINE
  8
0
 62
     0
 10
122.538
 20
31.1326
 30
0.0
 11
122.538
 21
34.3642
 31
0.0
  0
LINE
  8
0
 62
     0
 10
122.538
 20
34.3642
 30
0.0
 11
120.813
 21
34.3642
 31
0.0
  0
LINE
  8
0
 62
     0
 10
120.813
 20
34.3642
 30
0.0
 11
120.813
 21
35.2848
 31
0.0
  0
LINE
  8
0
 62
     0
 10
120.813
 20
35.2848
 30
0.0
 11
117.512
 21
35.2848
 31
0.0
  0
LINE
  8
0
 62
     0
 10
117.512
 20
35.2848
 30
0.0
 11
117.512
 21
34.3642
 31
0.0
  0
LINE
  8
0
 62
     0
 10
117.512
 20
34.3642
 30
0.0
 11
115.787
 21
34.3642
 31
0.0
  0
LINE
  8
0
 62
     0
 10
115.787
 20
34.3642
 30
0.0
 11
115.787
 21
31.1326
 31
0.0
  0
LINE
  8
0
 62
     0
 10
115.787
 20
31.1326
 30
0.0
 11
114.963
 21
31.1326
 31
0.0
  0
LINE
  8
0
 62
     0
 10
114.963
 20
31.1326
 30
0.0
 11
114.963
 21
28.3338
 31
0.0
  0
LINE
  8
0
 62
     0
 10
114.963
 20
28.3338
 30
0.0
 11
115.787
 21
28.3338
 31
0.0
  0
LINE
  8
0
 62
     0
 10
115.787
 20
28.3338
 30
0.0
 11
115.787
 21
22.0638
 31
0.0
  0
LINE
  8
0
 62
     0
 10
115.787
 20
22.0638
 30
0.0
 11
117.512
 21
22.0638
 31
0.0
  0
LINE
  8
0
 62
     0
 10
117.512
 20
22.0638
 30
0.0
 11
117.512
 21
21.084
 31
0.0
  0
LINE
  8
0
 62
     0
 10
117.512
 20
21.084
 30
0.0
 11
120.813
 21
21.084
 31
0.0
  0
LINE
  8
0
 62
     0
 10
120.813
 20
21.084
 30
0.0
 11
120.813
 21
22.0638
 31
0.0
  0
LINE
  8
0
 62
     0
 10
120.813
 20
22.0638
 30
0.0
 11
122.538
 21
22.0638
 31
0.0
  0
LINE
  8
0
 62
     0
 10
122.538
 20
22.0638
 30
0.0
 11
122.538
 21
26.5341
 31
0.0
  0
LINE
  8
0
 62
     0
 10
122.538
 20
26.5341
 30
0.0
 11
162.162
 21
26.5341
 31
0.0
  0
LINE
  8
0
 62
     0
 10
162.162
 20
26.5341
 30
0.0
 11
162.162
 21
25.9333
 31
0.0
  0
LINE
  8
0
 62
     0
 10
162.162
 20
25.9333
 30
0.0
 11
161.363
 21
25.9333
 31
0.0
  0
LINE
  8
0
 62
     0
 10
161.363
 20
25.9333
 30
0.0
 11
161.363
 21
22.8341
 31
0.0
  0
LINE
  8
0
 62
     0
 10
161.363
 20
22.8341
 30
0.0
 11
162.162
 21
22.8341
 31
0.0
  0
LINE
  8
0
 62
     0
 10
162.162
 20
22.8341
 30
0.0
 11
162.162
 21
21.8336
 31
0.0
  0
LINE
  8
0
 62
     0
 10
162.162
 20
21.8336
 30
0.0
 11
176.163
 21
21.8336
 31
0.0
  0
LINE
  8
0
 62
     0
 10
176.163
 20
21.8336
 30
0.0
 11
176.163
 21
22.8341
 31
0.0
  0
LINE
  8
0
 62
     0
 10
176.163
 20
22.8341
 30
0.0
 11
176.962
 21
22.8341
 31
0.0
  0
LINE
  8
0
 62
     0
 10
176.962
 20
22.8341
 30
0.0
 11
176.962
 21
25.9333
 31
0.0
  0
LINE
  8
0
 62
     0
 10
176.962
 20
25.9333
 30
0.0
 11
176.163
 21
25.9333
 31
0.0
  0
LINE
  8
0
 62
     0
 10
176.163
 20
25.9333
 30
0.0
 11
176.163
 21
26.5341
 31
0.0
  0
LINE
  8
0
 62
     0
 10
176.163
 20
26.5341
 30
0.0
 11
215.787
 21
26.5341
 31
0.0
  0
LINE
  8
0
 62
     0
 10
215.787
 20
26.5341
 30
0.0
 11
215.787
 21
22.0638
 31
0.0
  0
LINE
  8
0
 62
     0
 10
215.787
 20
22.0638
 30
0.0
 11
217.512
 21
22.0638
 31
0.0
  0
LINE
  8
0
 62
     0
 10
217.512
 20
22.0638
 30
0.0
 11
217.512
 21
21.084
 31
0.0
  0
LINE
  8
0
 62
     0
 10
217.512
 20
21.084
 30
0.0
 11
220.813
 21
21.084
 31
0.0
  0
LINE
  8
0
 62
     0
 10
220.813
 20
21.084
 30
0.0
 11
220.813
 21
22.0638
 31
0.0
  0
LINE
  8
0
 62
     0
 10
220.813
 20
22.0638
 30
0.0
 11
222.538
 21
22.0638
 31
0.0
  0
LINE
  8
0
 62
     0
 10
222.538
 20
22.0638
 30
0.0
 11
222.538
 21
28.3338
 31
0.0
  0
LINE
  8
0
 62
     0
 10
222.538
 20
28.3338
 30
0.0
 11
223.362
 21
28.3338
 31
0.0
  0
LINE
  8
0
 62
     0
 10
223.362
 20
28.3338
 30
0.0
 11
223.362
 21
31.1326
 31
0.0
  0
LINE
  8
0
 62
     0
 10
223.362
 20
31.1326
 30
0.0
 11
222.538
 21
31.1326
 31
0.0
  0
LINE
  8
0
 62
     0
 10
222.538
 20
31.1326
 30
0.0
 11
222.538
 21
34.3642
 31
0.0
  0
LINE
  8
0
 62
     0
 10
222.538
 20
34.3642
 30
0.0
 11
220.813
 21
34.3642
 31
0.0
  0
LINE
  8
0
 62
     0
 10
220.813
 20
34.3642
 30
0.0
 11
220.813
 21
35.2848
 31
0.0
  0
LINE
  8
0
 62
     0
 10
220.813
 20
35.2848
 30
0.0
 11
217.512
 21
35.2848
 31
0.0
  0
LINE
  8
0
 62
     0
 10
217.512
 20
35.2848
 30
0.0
 11
217.512
 21
34.3642
 31
0.0
  0
LINE
  8
0
 62
     0
 10
217.512
 20
34.3642
 30
0.0
 11
215.787
 21
34.3642
 31
0.0
  0
LINE
  8
0
 62
     0
 10
215.787
 20
34.3642
 30
0.0
 11
215.787
 21
31.1326
 31
0.0
  0
LINE
  8
0
 62
     0
 10
215.787
 20
31.1326
 30
0.0
 11
176.163
 21
31.1326
 31
0.0
  0
LINE
  8
0
 62
     0
 10
176.163
 20
31.1326
 30
0.0
 11
176.163
 21
31.7348
 31
0.0
  0
LINE
  8
0
 62
     0
 10
176.163
 20
31.7348
 30
0.0
 11
176.962
 21
31.7348
 31
0.0
  0
LINE
  8
0
 62
     0
 10
176.962
 20
31.7348
 30
0.0
 11
176.962
 21
34.8341
 31
0.0
  0
LINE
  8
0
 62
     0
 10
176.962
 20
34.8341
 30
0.0
 11
176.163
 21
34.8341
 31
0.0
  0
LINE
  8
0
 62
     0
 10
176.163
 20
34.8341
 30
0.0
 11
176.163
 21
35.8345
 31
0.0
  0
LINE
  8
0
 62
     0
 10
176.163
 20
35.8345
 30
0.0
 11
162.162
 21
35.8345
 31
0.0
  0
LINE
  8
0
 62
     0
 10
5.00091
 20
35.8345
 30
0.0
 11
5.00091
 21
34.8341
 31
0.0
  0
LINE
  8
0
 62
     0
 10
5.00091
 20
34.8341
 30
0.0
 11
4.20028
 21
34.8341
 31
0.0
  0
LINE
  8
0
 62
     0
 10
4.20028
 20
34.8341
 30
0.0
 11
4.20028
 21
31.7348
 31
0.0
  0
LINE
  8
0
 62
     0
 10
4.20028
 20
31.7348
 30
0.0
 11
5.00091
 21
31.7348
 31
0.0
  0
LINE
  8
0
 62
     0
 10
5.00091
 20
31.7348
 30
0.0
 11
5.00091
 21
25.9333
 31
0.0
  0
LINE
  8
0
 62
     0
 10
5.00091
 20
25.9333
 30
0.0
 11
4.20028
 21
25.9333
 31
0.0
  0
LINE
  8
0
 62
     0
 10
4.20028
 20
25.9333
 30
0.0
 11
4.20028
 21
22.8341
 31
0.0
  0
LINE
  8
0
 62
     0
 10
4.20028
 20
22.8341
 30
0.0
 11
5.00091
 21
22.8341
 31
0.0
  0
LINE
  8
0
 62
     0
 10
5.00091
 20
22.8341
 30
0.0
 11
5.00091
 21
21.8336
 31
0.0
  0
LINE
  8
0
 62
     0
 10
5.00091
 20
21.8336
 30
0.0
 11
19.0004
 21
21.8336
 31
0.0
  0
LINE
  8
0
 62
     0
 10
19.0004
 20
21.8336
 30
0.0
 11
19.0004
 21
22.8341
 31
0.0
  0
LINE
  8
0
 62
     0
 10
19.0004
 20
22.8341
 30
0.0
 11
19.801
 21
22.8341
 31
0.0
  0
LINE
  8
0
 62
     0
 10
19.801
 20
22.8341
 30
0.0
 11
19.801
 21
25.9333
 31
0.0
  0
LINE
  8
0
 62
     0
 10
19.801
 20
25.9333
 30
0.0
 11
19.0004
 21
25.9333
 31
0.0
  0
LINE
  8
0
 62
     0
 10
19.0004
 20
25.9333
 30
0.0
 11
19.0004
 21
31.7348
 31
0.0
  0
LINE
  8
0
 62
     0
 10
19.0004
 20
31.7348
 30
0.0
 11
19.801
 21
31.7348
 31
0.0
  0
LINE
  8
0
 62
     0
 10
19.801
 20
31.7348
 30
0.0
 11
19.801
 21
34.8341
 31
0.0
  0
LINE
  8
0
 62
     0
 10
19.801
 20
34.8341
 30
0.0
 11
19.0004
 21
34.8341
 31
0.0
  0
LINE
  8
0
 62
     0
 10
19.0004
 20
34.8341
 30
0.0
 11
19.0004
 21
35.8345
 31
0.0
  0
LINE
  8
0
 62
     0
 10
19.0004
 20
35.8345
 30
0.0
 11
5.00091
 21
35.8345
 31
0.0
  0
LINE
  8
0
 62
     0
 10
45.4822
 20
54.8831
 30
0.0
 11
45.4822
 21
53.8826
 31
0.0
  0
LINE
  8
0
 62
     0
 10
45.4822
 20
53.8826
 30
0.0
 11
44.6814
 21
53.8826
 31
0.0
  0
LINE
  8
0
 62
     0
 10
44.6814
 20
53.8826
 30
0.0
 11
44.6814
 21
50.7848
 31
0.0
  0
LINE
  8
0
 62
     0
 10
44.6814
 20
50.7848
 30
0.0
 11
45.4822
 21
50.7848
 31
0.0
  0
LINE
  8
0
 62
     0
 10
45.4822
 20
50.7848
 30
0.0
 11
45.4822
 21
50.1826
 31
0.0
  0
LINE
  8
0
 62
     0
 10
45.4822
 20
50.1826
 30
0.0
 11
12.9949
 21
50.1826
 31
0.0
  0
LINE
  8
0
 62
     0
 10
12.9949
 20
50.1826
 30
0.0
 11
12.9949
 21
53.4127
 31
0.0
  0
LINE
  8
0
 62
     0
 10
12.9949
 20
53.4127
 30
0.0
 11
11.2696
 21
53.4127
 31
0.0
  0
LINE
  8
0
 62
     0
 10
11.2696
 20
53.4127
 30
0.0
 11
11.2696
 21
54.3348
 31
0.0
  0
LINE
  8
0
 62
     0
 10
11.2696
 20
54.3348
 30
0.0
 11
7.96918
 21
54.3348
 31
0.0
  0
LINE
  8
0
 62
     0
 10
7.96918
 20
54.3348
 30
0.0
 11
7.96918
 21
53.4127
 31
0.0
  0
LINE
  8
0
 62
     0
 10
7.96918
 20
53.4127
 30
0.0
 11
6.24388
 21
53.4127
 31
0.0
  0
LINE
  8
0
 62
     0
 10
6.24388
 20
53.4127
 30
0.0
 11
6.24388
 21
50.1826
 31
0.0
  0
LINE
  8
0
 62
     0
 10
6.24388
 20
50.1826
 30
0.0
 11
5.41983
 21
50.1826
 31
0.0
  0
LINE
  8
0
 62
     0
 10
5.41983
 20
50.1826
 30
0.0
 11
5.41983
 21
47.3837
 31
0.0
  0
LINE
  8
0
 62
     0
 10
5.41983
 20
47.3837
 30
0.0
 11
6.24388
 21
47.3837
 31
0.0
  0
LINE
  8
0
 62
     0
 10
6.24388
 20
47.3837
 30
0.0
 11
6.24388
 21
41.1138
 31
0.0
  0
LINE
  8
0
 62
     0
 10
6.24388
 20
41.1138
 30
0.0
 11
7.96918
 21
41.1138
 31
0.0
  0
LINE
  8
0
 62
     0
 10
7.96918
 20
41.1138
 30
0.0
 11
7.96918
 21
40.1327
 31
0.0
  0
LINE
  8
0
 62
     0
 10
7.96918
 20
40.1327
 30
0.0
 11
11.2696
 21
40.1327
 31
0.0
  0
LINE
  8
0
 62
     0
 10
11.2696
 20
40.1327
 30
0.0
 11
11.2696
 21
41.1138
 31
0.0
  0
LINE
  8
0
 62
     0
 10
11.2696
 20
41.1138
 30
0.0
 11
12.9949
 21
41.1138
 31
0.0
  0
LINE
  8
0
 62
     0
 10
12.9949
 20
41.1138
 30
0.0
 11
12.9949
 21
45.5842
 31
0.0
  0
LINE
  8
0
 62
     0
 10
12.9949
 20
45.5842
 30
0.0
 11
45.4822
 21
45.5842
 31
0.0
  0
LINE
  8
0
 62
     0
 10
45.4822
 20
45.5842
 30
0.0
 11
45.4822
 21
44.9834
 31
0.0
  0
LINE
  8
0
 62
     0
 10
45.4822
 20
44.9834
 30
0.0
 11
44.6814
 21
44.9834
 31
0.0
  0
LINE
  8
0
 62
     0
 10
44.6814
 20
44.9834
 30
0.0
 11
44.6814
 21
41.8828
 31
0.0
  0
LINE
  8
0
 62
     0
 10
44.6814
 20
41.8828
 30
0.0
 11
45.4822
 21
41.8828
 31
0.0
  0
LINE
  8
0
 62
     0
 10
45.4822
 20
41.8828
 30
0.0
 11
45.4822
 21
40.8838
 31
0.0
  0
LINE
  8
0
 62
     0
 10
45.4822
 20
40.8838
 30
0.0
 11
59.4815
 21
40.8838
 31
0.0
  0
LINE
  8
0
 62
     0
 10
59.4815
 20
40.8838
 30
0.0
 11
59.4815
 21
41.8828
 31
0.0
  0
LINE
  8
0
 62
     0
 10
59.4815
 20
41.8828
 30
0.0
 11
60.2809
 21
41.8828
 31
0.0
  0
LINE
  8
0
 62
     0
 10
60.2809
 20
41.8828
 30
0.0
 11
60.2809
 21
44.9834
 31
0.0
  0
LINE
  8
0
 62
     0
 10
60.2809
 20
44.9834
 30
0.0
 11
59.4815
 21
44.9834
 31
0.0
  0
LINE
  8
0
 62
     0
 10
59.4815
 20
44.9834
 30
0.0
 11
59.4815
 21
45.5842
 31
0.0
  0
LINE
  8
0
 62
     0
 10
59.4815
 20
45.5842
 30
0.0
 11
91.9688
 21
45.5842
 31
0.0
  0
LINE
  8
0
 62
     0
 10
91.9688
 20
45.5842
 30
0.0
 11
91.9688
 21
41.1138
 31
0.0
  0
LINE
  8
0
 62
     0
 10
91.9688
 20
41.1138
 30
0.0
 11
93.6942
 21
41.1138
 31
0.0
  0
LINE
  8
0
 62
     0
 10
93.6942
 20
41.1138
 30
0.0
 11
93.6942
 21
40.1327
 31
0.0
  0
LINE
  8
0
 62
     0
 10
93.6942
 20
40.1327
 30
0.0
 11
96.9945
 21
40.1327
 31
0.0
  0
LINE
  8
0
 62
     0
 10
96.9945
 20
40.1327
 30
0.0
 11
96.9945
 21
41.1138
 31
0.0
  0
LINE
  8
0
 62
     0
 10
96.9945
 20
41.1138
 30
0.0
 11
98.7199
 21
41.1138
 31
0.0
  0
LINE
  8
0
 62
     0
 10
98.7199
 20
41.1138
 30
0.0
 11
98.7199
 21
47.3837
 31
0.0
  0
LINE
  8
0
 62
     0
 10
98.7199
 20
47.3837
 30
0.0
 11
99.544
 21
47.3837
 31
0.0
  0
LINE
  8
0
 62
     0
 10
99.544
 20
47.3837
 30
0.0
 11
99.544
 21
50.1826
 31
0.0
  0
LINE
  8
0
 62
     0
 10
99.544
 20
50.1826
 30
0.0
 11
98.7199
 21
50.1826
 31
0.0
  0
LINE
  8
0
 62
     0
 10
98.7199
 20
50.1826
 30
0.0
 11
98.7199
 21
53.4127
 31
0.0
  0
LINE
  8
0
 62
     0
 10
98.7199
 20
53.4127
 30
0.0
 11
96.9945
 21
53.4127
 31
0.0
  0
LINE
  8
0
 62
     0
 10
96.9945
 20
53.4127
 30
0.0
 11
96.9945
 21
54.3348
 31
0.0
  0
LINE
  8
0
 62
     0
 10
96.9945
 20
54.3348
 30
0.0
 11
93.6942
 21
54.3348
 31
0.0
  0
LINE
  8
0
 62
     0
 10
93.6942
 20
54.3348
 30
0.0
 11
93.6942
 21
53.4127
 31
0.0
  0
LINE
  8
0
 62
     0
 10
93.6942
 20
53.4127
 30
0.0
 11
91.9688
 21
53.4127
 31
0.0
  0
LINE
  8
0
 62
     0
 10
91.9688
 20
53.4127
 30
0.0
 11
91.9688
 21
50.1826
 31
0.0
  0
LINE
  8
0
 62
     0
 10
91.9688
 20
50.1826
 30
0.0
 11
59.4815
 21
50.1826
 31
0.0
  0
LINE
  8
0
 62
     0
 10
59.4815
 20
50.1826
 30
0.0
 11
59.4815
 21
50.7848
 31
0.0
  0
LINE
  8
0
 62
     0
 10
59.4815
 20
50.7848
 30
0.0
 11
60.2809
 21
50.7848
 31
0.0
  0
LINE
  8
0
 62
     0
 10
60.2809
 20
50.7848
 30
0.0
 11
60.2809
 21
53.8826
 31
0.0
  0
LINE
  8
0
 62
     0
 10
60.2809
 20
53.8826
 30
0.0
 11
59.4815
 21
53.8826
 31
0.0
  0
LINE
  8
0
 62
     0
 10
59.4815
 20
53.8826
 30
0.0
 11
59.4815
 21
54.8831
 31
0.0
  0
LINE
  8
0
 62
     0
 10
59.4815
 20
54.8831
 30
0.0
 11
45.4822
 21
54.8831
 31
0.0
  0
LINE
  8
0
 62
     0
 10
159.782
 20
54.8831
 30
0.0
 11
159.782
 21
53.8826
 31
0.0
  0
LINE
  8
0
 62
     0
 10
159.782
 20
53.8826
 30
0.0
 11
158.981
 21
53.8826
 31
0.0
  0
LINE
  8
0
 62
     0
 10
158.981
 20
53.8826
 30
0.0
 11
158.981
 21
50.7848
 31
0.0
  0
LINE
  8
0
 62
     0
 10
158.981
 20
50.7848
 30
0.0
 11
159.782
 21
50.7848
 31
0.0
  0
LINE
  8
0
 62
     0
 10
159.782
 20
50.7848
 30
0.0
 11
159.782
 21
50.1826
 31
0.0
  0
LINE
  8
0
 62
     0
 10
159.782
 20
50.1826
 30
0.0
 11
117.777
 21
50.1826
 31
0.0
  0
LINE
  8
0
 62
     0
 10
117.777
 20
50.1826
 30
0.0
 11
117.777
 21
53.4127
 31
0.0
  0
LINE
  8
0
 62
     0
 10
117.777
 20
53.4127
 30
0.0
 11
116.052
 21
53.4127
 31
0.0
  0
LINE
  8
0
 62
     0
 10
116.052
 20
53.4127
 30
0.0
 11
116.052
 21
54.3348
 31
0.0
  0
LINE
  8
0
 62
     0
 10
116.052
 20
54.3348
 30
0.0
 11
112.751
 21
54.3348
 31
0.0
  0
LINE
  8
0
 62
     0
 10
112.751
 20
54.3348
 30
0.0
 11
112.751
 21
53.4127
 31
0.0
  0
LINE
  8
0
 62
     0
 10
112.751
 20
53.4127
 30
0.0
 11
111.027
 21
53.4127
 31
0.0
  0
LINE
  8
0
 62
     0
 10
111.027
 20
53.4127
 30
0.0
 11
111.027
 21
50.1826
 31
0.0
  0
LINE
  8
0
 62
     0
 10
111.027
 20
50.1826
 30
0.0
 11
110.202
 21
50.1826
 31
0.0
  0
LINE
  8
0
 62
     0
 10
110.202
 20
50.1826
 30
0.0
 11
110.202
 21
47.3837
 31
0.0
  0
LINE
  8
0
 62
     0
 10
110.202
 20
47.3837
 30
0.0
 11
111.027
 21
47.3837
 31
0.0
  0
LINE
  8
0
 62
     0
 10
111.027
 20
47.3837
 30
0.0
 11
111.027
 21
41.1138
 31
0.0
  0
LINE
  8
0
 62
     0
 10
111.027
 20
41.1138
 30
0.0
 11
112.751
 21
41.1138
 31
0.0
  0
LINE
  8
0
 62
     0
 10
112.751
 20
41.1138
 30
0.0
 11
112.751
 21
40.1327
 31
0.0
  0
LINE
  8
0
 62
     0
 10
112.751
 20
40.1327
 30
0.0
 11
116.052
 21
40.1327
 31
0.0
  0
LINE
  8
0
 62
     0
 10
116.052
 20
40.1327
 30
0.0
 11
116.052
 21
41.1138
 31
0.0
  0
LINE
  8
0
 62
     0
 10
116.052
 20
41.1138
 30
0.0
 11
117.777
 21
41.1138
 31
0.0
  0
LINE
  8
0
 62
     0
 10
117.777
 20
41.1138
 30
0.0
 11
117.777
 21
45.5842
 31
0.0
  0
LINE
  8
0
 62
     0
 10
117.777
 20
45.5842
 30
0.0
 11
159.782
 21
45.5842
 31
0.0
  0
LINE
  8
0
 62
     0
 10
159.782
 20
45.5842
 30
0.0
 11
159.782
 21
44.9834
 31
0.0
  0
LINE
  8
0
 62
     0
 10
159.782
 20
44.9834
 30
0.0
 11
158.981
 21
44.9834
 31
0.0
  0
LINE
  8
0
 62
     0
 10
158.981
 20
44.9834
 30
0.0
 11
158.981
 21
41.8828
 31
0.0
  0
LINE
  8
0
 62
     0
 10
158.981
 20
41.8828
 30
0.0
 11
159.782
 21
41.8828
 31
0.0
  0
LINE
  8
0
 62
     0
 10
159.782
 20
41.8828
 30
0.0
 11
159.782
 21
40.8838
 31
0.0
  0
LINE
  8
0
 62
     0
 10
159.782
 20
40.8838
 30
0.0
 11
173.782
 21
40.8838
 31
0.0
  0
LINE
  8
0
 62
     0
 10
173.782
 20
40.8838
 30
0.0
 11
173.782
 21
41.8828
 31
0.0
  0
LINE
  8
0
 62
     0
 10
173.782
 20
41.8828
 30
0.0
 11
174.581
 21
41.8828
 31
0.0
  0
LINE
  8
0
 62
     0
 10
174.581
 20
41.8828
 30
0.0
 11
174.581
 21
44.9834
 31
0.0
  0
LINE
  8
0
 62
     0
 10
174.581
 20
44.9834
 30
0.0
 11
173.782
 21
44.9834
 31
0.0
  0
LINE
  8
0
 62
     0
 10
173.782
 20
44.9834
 30
0.0
 11
173.782
 21
45.5842
 31
0.0
  0
LINE
  8
0
 62
     0
 10
173.782
 20
45.5842
 30
0.0
 11
215.787
 21
45.5842
 31
0.0
  0
LINE
  8
0
 62
     0
 10
215.787
 20
45.5842
 30
0.0
 11
215.787
 21
41.1138
 31
0.0
  0
LINE
  8
0
 62
     0
 10
215.787
 20
41.1138
 30
0.0
 11
217.511
 21
41.1138
 31
0.0
  0
LINE
  8
0
 62
     0
 10
217.511
 20
41.1138
 30
0.0
 11
217.511
 21
40.1327
 31
0.0
  0
LINE
  8
0
 62
     0
 10
217.511
 20
40.1327
 30
0.0
 11
220.811
 21
40.1327
 31
0.0
  0
LINE
  8
0
 62
     0
 10
220.811
 20
40.1327
 30
0.0
 11
220.811
 21
41.1138
 31
0.0
  0
LINE
  8
0
 62
     0
 10
220.811
 20
41.1138
 30
0.0
 11
222.537
 21
41.1138
 31
0.0
  0
LINE
  8
0
 62
     0
 10
222.537
 20
41.1138
 30
0.0
 11
222.537
 21
47.3837
 31
0.0
  0
LINE
  8
0
 62
     0
 10
222.537
 20
47.3837
 30
0.0
 11
223.362
 21
47.3837
 31
0.0
  0
LINE
  8
0
 62
     0
 10
223.362
 20
47.3837
 30
0.0
 11
223.362
 21
50.1826
 31
0.0
  0
LINE
  8
0
 62
     0
 10
223.362
 20
50.1826
 30
0.0
 11
222.537
 21
50.1826
 31
0.0
  0
LINE
  8
0
 62
     0
 10
222.537
 20
50.1826
 30
0.0
 11
222.537
 21
53.4127
 31
0.0
  0
LINE
  8
0
 62
     0
 10
222.537
 20
53.4127
 30
0.0
 11
220.811
 21
53.4127
 31
0.0
  0
LINE
  8
0
 62
     0
 10
220.811
 20
53.4127
 30
0.0
 11
220.811
 21
54.3348
 31
0.0
  0
LINE
  8
0
 62
     0
 10
220.811
 20
54.3348
 30
0.0
 11
217.511
 21
54.3348
 31
0.0
  0
LINE
  8
0
 62
     0
 10
217.511
 20
54.3348
 30
0.0
 11
217.511
 21
53.4127
 31
0.0
  0
LINE
  8
0
 62
     0
 10
217.511
 20
53.4127
 30
0.0
 11
215.787
 21
53.4127
 31
0.0
  0
LINE
  8
0
 62
     0
 10
215.787
 20
53.4127
 30
0.0
 11
215.787
 21
50.1826
 31
0.0
  0
LINE
  8
0
 62
     0
 10
215.787
 20
50.1826
 30
0.0
 11
173.782
 21
50.1826
 31
0.0
  0
LINE
  8
0
 62
     0
 10
173.782
 20
50.1826
 30
0.0
 11
173.782
 21
50.7848
 31
0.0
  0
LINE
  8
0
 62
     0
 10
173.782
 20
50.7848
 30
0.0
 11
174.581
 21
50.7848
 31
0.0
  0
LINE
  8
0
 62
     0
 10
174.581
 20
50.7848
 30
0.0
 11
174.581
 21
53.8826
 31
0.0
  0
LINE
  8
0
 62
     0
 10
174.581
 20
53.8826
 30
0.0
 11
173.782
 21
53.8826
 31
0.0
  0
LINE
  8
0
 62
     0
 10
173.782
 20
53.8826
 30
0.0
 11
173.782
 21
54.8831
 31
0.0
  0
LINE
  8
0
 62
     0
 10
173.782
 20
54.8831
 30
0.0
 11
159.782
 21
54.8831
 31
0.0
  0
LINE
  8
0
 62
     0
 10
14.5259
 20
73.9331
 30
0.0
 11
14.5259
 21
72.9326
 31
0.0
  0
LINE
  8
0
 62
     0
 10
14.5259
 20
72.9326
 30
0.0
 11
13.7253
 21
72.9326
 31
0.0
  0
LINE
  8
0
 62
     0
 10
13.7253
 20
72.9326
 30
0.0
 11
13.7253
 21
69.8348
 31
0.0
  0
LINE
  8
0
 62
     0
 10
13.7253
 20
69.8348
 30
0.0
 11
14.5259
 21
69.8348
 31
0.0
  0
LINE
  8
0
 62
     0
 10
14.5259
 20
69.8348
 30
0.0
 11
14.5259
 21
69.2326
 31
0.0
  0
LINE
  8
0
 62
     0
 10
14.5259
 20
69.2326
 30
0.0
 11
13.0004
 21
69.2326
 31
0.0
  0
LINE
  8
0
 62
     0
 10
13.0004
 20
69.2326
 30
0.0
 11
13.0004
 21
72.4627
 31
0.0
  0
LINE
  8
0
 62
     0
 10
13.0004
 20
72.4627
 30
0.0
 11
11.2751
 21
72.4627
 31
0.0
  0
LINE
  8
0
 62
     0
 10
11.2751
 20
72.4627
 30
0.0
 11
11.2751
 21
73.3848
 31
0.0
  0
LINE
  8
0
 62
     0
 10
11.2751
 20
73.3848
 30
0.0
 11
7.97609
 21
73.3848
 31
0.0
  0
LINE
  8
0
 62
     0
 10
7.97609
 20
73.3848
 30
0.0
 11
7.97609
 21
72.4627
 31
0.0
  0
LINE
  8
0
 62
     0
 10
7.97609
 20
72.4627
 30
0.0
 11
6.2508
 21
72.4627
 31
0.0
  0
LINE
  8
0
 62
     0
 10
6.2508
 20
72.4627
 30
0.0
 11
6.2508
 21
69.2326
 31
0.0
  0
LINE
  8
0
 62
     0
 10
6.2508
 20
69.2326
 30
0.0
 11
5.42533
 21
69.2326
 31
0.0
  0
LINE
  8
0
 62
     0
 10
5.42533
 20
69.2326
 30
0.0
 11
5.42533
 21
66.4337
 31
0.0
  0
LINE
  8
0
 62
     0
 10
5.42533
 20
66.4337
 30
0.0
 11
6.2508
 21
66.4337
 31
0.0
  0
LINE
  8
0
 62
     0
 10
6.2508
 20
66.4337
 30
0.0
 11
6.2508
 21
60.1638
 31
0.0
  0
LINE
  8
0
 62
     0
 10
6.2508
 20
60.1638
 30
0.0
 11
7.97609
 21
60.1638
 31
0.0
  0
LINE
  8
0
 62
     0
 10
7.97609
 20
60.1638
 30
0.0
 11
7.97609
 21
59.1827
 31
0.0
  0
LINE
  8
0
 62
     0
 10
7.97609
 20
59.1827
 30
0.0
 11
11.2751
 21
59.1827
 31
0.0
  0
LINE
  8
0
 62
     0
 10
11.2751
 20
59.1827
 30
0.0
 11
11.2751
 21
60.1638
 31
0.0
  0
LINE
  8
0
 62
     0
 10
11.2751
 20
60.1638
 30
0.0
 11
13.0004
 21
60.1638
 31
0.0
  0
LINE
  8
0
 62
     0
 10
13.0004
 20
60.1638
 30
0.0
 11
13.0004
 21
64.6328
 31
0.0
  0
LINE
  8
0
 62
     0
 10
13.0004
 20
64.6328
 30
0.0
 11
14.5259
 21
64.6328
 31
0.0
  0
LINE
  8
0
 62
     0
 10
14.5259
 20
64.6328
 30
0.0
 11
14.5259
 21
64.0334
 31
0.0
  0
LINE
  8
0
 62
     0
 10
14.5259
 20
64.0334
 30
0.0
 11
13.7253
 21
64.0334
 31
0.0
  0
LINE
  8
0
 62
     0
 10
13.7253
 20
64.0334
 30
0.0
 11
13.7253
 21
60.9328
 31
0.0
  0
LINE
  8
0
 62
     0
 10
13.7253
 20
60.9328
 30
0.0
 11
14.5259
 21
60.9328
 31
0.0
  0
LINE
  8
0
 62
     0
 10
14.5259
 20
60.9328
 30
0.0
 11
14.5259
 21
59.9338
 31
0.0
  0
LINE
  8
0
 62
     0
 10
14.5259
 20
59.9338
 30
0.0
 11
28.5254
 21
59.9338
 31
0.0
  0
LINE
  8
0
 62
     0
 10
28.5254
 20
59.9338
 30
0.0
 11
28.5254
 21
60.9328
 31
0.0
  0
LINE
  8
0
 62
     0
 10
28.5254
 20
60.9328
 30
0.0
 11
29.326
 21
60.9328
 31
0.0
  0
LINE
  8
0
 62
     0
 10
29.326
 20
60.9328
 30
0.0
 11
29.326
 21
64.0334
 31
0.0
  0
LINE
  8
0
 62
     0
 10
29.326
 20
64.0334
 30
0.0
 11
28.5254
 21
64.0334
 31
0.0
  0
LINE
  8
0
 62
     0
 10
28.5254
 20
64.0334
 30
0.0
 11
28.5254
 21
64.6328
 31
0.0
  0
LINE
  8
0
 62
     0
 10
28.5254
 20
64.6328
 30
0.0
 11
30.0509
 21
64.6328
 31
0.0
  0
LINE
  8
0
 62
     0
 10
30.0509
 20
64.6328
 30
0.0
 11
30.0509
 21
60.1638
 31
0.0
  0
LINE
  8
0
 62
     0
 10
30.0509
 20
60.1638
 30
0.0
 11
31.7748
 21
60.1638
 31
0.0
  0
LINE
  8
0
 62
     0
 10
31.7748
 20
60.1638
 30
0.0
 11
31.7748
 21
59.1827
 31
0.0
  0
LINE
  8
0
 62
     0
 10
31.7748
 20
59.1827
 30
0.0
 11
35.0752
 21
59.1827
 31
0.0
  0
LINE
  8
0
 62
     0
 10
35.0752
 20
59.1827
 30
0.0
 11
35.0752
 21
60.1638
 31
0.0
  0
LINE
  8
0
 62
     0
 10
35.0752
 20
60.1638
 30
0.0
 11
36.8004
 21
60.1638
 31
0.0
  0
LINE
  8
0
 62
     0
 10
36.8004
 20
60.1638
 30
0.0
 11
36.8004
 21
66.4337
 31
0.0
  0
LINE
  8
0
 62
     0
 10
36.8004
 20
66.4337
 30
0.0
 11
37.6259
 21
66.4337
 31
0.0
  0
LINE
  8
0
 62
     0
 10
37.6259
 20
66.4337
 30
0.0
 11
37.6259
 21
69.2326
 31
0.0
  0
LINE
  8
0
 62
     0
 10
37.6259
 20
69.2326
 30
0.0
 11
36.8004
 21
69.2326
 31
0.0
  0
LINE
  8
0
 62
     0
 10
36.8004
 20
69.2326
 30
0.0
 11
36.8004
 21
72.4627
 31
0.0
  0
LINE
  8
0
 62
     0
 10
36.8004
 20
72.4627
 30
0.0
 11
35.0752
 21
72.4627
 31
0.0
  0
LINE
  8
0
 62
     0
 10
35.0752
 20
72.4627
 30
0.0
 11
35.0752
 21
73.3848
 31
0.0
  0
LINE
  8
0
 62
     0
 10
35.0752
 20
73.3848
 30
0.0
 11
31.7748
 21
73.3848
 31
0.0
  0
LINE
  8
0
 62
     0
 10
31.7748
 20
73.3848
 30
0.0
 11
31.7748
 21
72.4627
 31
0.0
  0
LINE
  8
0
 62
     0
 10
31.7748
 20
72.4627
 30
0.0
 11
30.0509
 21
72.4627
 31
0.0
  0
LINE
  8
0
 62
     0
 10
30.0509
 20
72.4627
 30
0.0
 11
30.0509
 21
69.2326
 31
0.0
  0
LINE
  8
0
 62
     0
 10
30.0509
 20
69.2326
 30
0.0
 11
28.5254
 21
69.2326
 31
0.0
  0
LINE
  8
0
 62
     0
 10
28.5254
 20
69.2326
 30
0.0
 11
28.5254
 21
69.8348
 31
0.0
  0
LINE
  8
0
 62
     0
 10
28.5254
 20
69.8348
 30
0.0
 11
29.326
 21
69.8348
 31
0.0
  0
LINE
  8
0
 62
     0
 10
29.326
 20
69.8348
 30
0.0
 11
29.326
 21
72.9326
 31
0.0
  0
LINE
  8
0
 62
     0
 10
29.326
 20
72.9326
 30
0.0
 11
28.5254
 21
72.9326
 31
0.0
  0
LINE
  8
0
 62
     0
 10
28.5254
 20
72.9326
 30
0.0
 11
28.5254
 21
73.9331
 31
0.0
  0
LINE
  8
0
 62
     0
 10
28.5254
 20
73.9331
 30
0.0
 11
14.5259
 21
73.9331
 31
0.0
  0
LINE
  8
0
 62
     0
 10
62.151
 20
73.9331
 30
0.0
 11
62.151
 21
72.9326
 31
0.0
  0
LINE
  8
0
 62
     0
 10
62.151
 20
72.9326
 30
0.0
 11
61.3502
 21
72.9326
 31
0.0
  0
LINE
  8
0
 62
     0
 10
61.3502
 20
72.9326
 30
0.0
 11
61.3502
 21
69.8348
 31
0.0
  0
LINE
  8
0
 62
     0
 10
61.3502
 20
69.8348
 30
0.0
 11
62.151
 21
69.8348
 31
0.0
  0
LINE
  8
0
 62
     0
 10
62.151
 20
69.8348
 30
0.0
 11
62.151
 21
69.2326
 31
0.0
  0
LINE
  8
0
 62
     0
 10
62.151
 20
69.2326
 30
0.0
 11
60.6256
 21
69.2326
 31
0.0
  0
LINE
  8
0
 62
     0
 10
60.6256
 20
69.2326
 30
0.0
 11
60.6256
 21
72.4627
 31
0.0
  0
LINE
  8
0
 62
     0
 10
60.6256
 20
72.4627
 30
0.0
 11
58.9001
 21
72.4627
 31
0.0
  0
LINE
  8
0
 62
     0
 10
58.9001
 20
72.4627
 30
0.0
 11
58.9001
 21
73.3848
 31
0.0
  0
LINE
  8
0
 62
     0
 10
58.9001
 20
73.3848
 30
0.0
 11
55.601
 21
73.3848
 31
0.0
  0
LINE
  8
0
 62
     0
 10
55.601
 20
73.3848
 30
0.0
 11
55.601
 21
72.4627
 31
0.0
  0
LINE
  8
0
 62
     0
 10
55.601
 20
72.4627
 30
0.0
 11
53.8759
 21
72.4627
 31
0.0
  0
LINE
  8
0
 62
     0
 10
53.8759
 20
72.4627
 30
0.0
 11
53.8759
 21
69.2326
 31
0.0
  0
LINE
  8
0
 62
     0
 10
53.8759
 20
69.2326
 30
0.0
 11
53.0504
 21
69.2326
 31
0.0
  0
LINE
  8
0
 62
     0
 10
53.0504
 20
69.2326
 30
0.0
 11
53.0504
 21
66.4337
 31
0.0
  0
LINE
  8
0
 62
     0
 10
53.0504
 20
66.4337
 30
0.0
 11
53.8759
 21
66.4337
 31
0.0
  0
LINE
  8
0
 62
     0
 10
53.8759
 20
66.4337
 30
0.0
 11
53.8759
 21
60.1638
 31
0.0
  0
LINE
  8
0
 62
     0
 10
53.8759
 20
60.1638
 30
0.0
 11
55.601
 21
60.1638
 31
0.0
  0
LINE
  8
0
 62
     0
 10
55.601
 20
60.1638
 30
0.0
 11
55.601
 21
59.1827
 31
0.0
  0
LINE
  8
0
 62
     0
 10
55.601
 20
59.1827
 30
0.0
 11
58.9001
 21
59.1827
 31
0.0
  0
LINE
  8
0
 62
     0
 10
58.9001
 20
59.1827
 30
0.0
 11
58.9001
 21
60.1638
 31
0.0
  0
LINE
  8
0
 62
     0
 10
58.9001
 20
60.1638
 30
0.0
 11
60.6256
 21
60.1638
 31
0.0
  0
LINE
  8
0
 62
     0
 10
60.6256
 20
60.1638
 30
0.0
 11
60.6256
 21
64.6328
 31
0.0
  0
LINE
  8
0
 62
     0
 10
60.6256
 20
64.6328
 30
0.0
 11
62.151
 21
64.6328
 31
0.0
  0
LINE
  8
0
 62
     0
 10
62.151
 20
64.6328
 30
0.0
 11
62.151
 21
64.0334
 31
0.0
  0
LINE
  8
0
 62
     0
 10
62.151
 20
64.0334
 30
0.0
 11
61.3502
 21
64.0334
 31
0.0
  0
LINE
  8
0
 62
     0
 10
61.3502
 20
64.0334
 30
0.0
 11
61.3502
 21
60.9328
 31
0.0
  0
LINE
  8
0
 62
     0
 10
61.3502
 20
60.9328
 30
0.0
 11
62.151
 21
60.9328
 31
0.0
  0
LINE
  8
0
 62
     0
 10
62.151
 20
60.9328
 30
0.0
 11
62.151
 21
59.9338
 31
0.0
  0
LINE
  8
0
 62
     0
 10
62.151
 20
59.9338
 30
0.0
 11
76.1503
 21
59.9338
 31
0.0
  0
LINE
  8
0
 62
     0
 10
76.1503
 20
59.9338
 30
0.0
 11
76.1503
 21
60.9328
 31
0.0
  0
LINE
  8
0
 62
     0
 10
76.1503
 20
60.9328
 30
0.0
 11
76.9511
 21
60.9328
 31
0.0
  0
LINE
  8
0
 62
     0
 10
76.9511
 20
60.9328
 30
0.0
 11
76.9511
 21
64.0334
 31
0.0
  0
LINE
  8
0
 62
     0
 10
76.9511
 20
64.0334
 30
0.0
 11
76.1503
 21
64.0334
 31
0.0
  0
LINE
  8
0
 62
     0
 10
76.1503
 20
64.0334
 30
0.0
 11
76.1503
 21
64.6328
 31
0.0
  0
LINE
  8
0
 62
     0
 10
76.1503
 20
64.6328
 30
0.0
 11
77.676
 21
64.6328
 31
0.0
  0
LINE
  8
0
 62
     0
 10
77.676
 20
64.6328
 30
0.0
 11
77.676
 21
60.1638
 31
0.0
  0
LINE
  8
0
 62
     0
 10
77.676
 20
60.1638
 30
0.0
 11
79.3997
 21
60.1638
 31
0.0
  0
LINE
  8
0
 62
     0
 10
79.3997
 20
60.1638
 30
0.0
 11
79.3997
 21
59.1827
 31
0.0
  0
LINE
  8
0
 62
     0
 10
79.3997
 20
59.1827
 30
0.0
 11
82.7003
 21
59.1827
 31
0.0
  0
LINE
  8
0
 62
     0
 10
82.7003
 20
59.1827
 30
0.0
 11
82.7003
 21
60.1638
 31
0.0
  0
LINE
  8
0
 62
     0
 10
82.7003
 20
60.1638
 30
0.0
 11
84.4254
 21
60.1638
 31
0.0
  0
LINE
  8
0
 62
     0
 10
84.4254
 20
60.1638
 30
0.0
 11
84.4254
 21
66.4337
 31
0.0
  0
LINE
  8
0
 62
     0
 10
84.4254
 20
66.4337
 30
0.0
 11
85.2509
 21
66.4337
 31
0.0
  0
LINE
  8
0
 62
     0
 10
85.2509
 20
66.4337
 30
0.0
 11
85.2509
 21
69.2326
 31
0.0
  0
LINE
  8
0
 62
     0
 10
85.2509
 20
69.2326
 30
0.0
 11
84.4254
 21
69.2326
 31
0.0
  0
LINE
  8
0
 62
     0
 10
84.4254
 20
69.2326
 30
0.0
 11
84.4254
 21
72.4627
 31
0.0
  0
LINE
  8
0
 62
     0
 10
84.4254
 20
72.4627
 30
0.0
 11
82.7003
 21
72.4627
 31
0.0
  0
LINE
  8
0
 62
     0
 10
82.7003
 20
72.4627
 30
0.0
 11
82.7003
 21
73.3848
 31
0.0
  0
LINE
  8
0
 62
     0
 10
82.7003
 20
73.3848
 30
0.0
 11
79.3997
 21
73.3848
 31
0.0
  0
LINE
  8
0
 62
     0
 10
79.3997
 20
73.3848
 30
0.0
 11
79.3997
 21
72.4627
 31
0.0
  0
LINE
  8
0
 62
     0
 10
79.3997
 20
72.4627
 30
0.0
 11
77.676
 21
72.4627
 31
0.0
  0
LINE
  8
0
 62
     0
 10
77.676
 20
72.4627
 30
0.0
 11
77.676
 21
69.2326
 31
0.0
  0
LINE
  8
0
 62
     0
 10
77.676
 20
69.2326
 30
0.0
 11
76.1503
 21
69.2326
 31
0.0
  0
LINE
  8
0
 62
     0
 10
76.1503
 20
69.2326
 30
0.0
 11
76.1503
 21
69.8348
 31
0.0
  0
LINE
  8
0
 62
     0
 10
76.1503
 20
69.8348
 30
0.0
 11
76.9511
 21
69.8348
 31
0.0
  0
LINE
  8
0
 62
     0
 10
76.9511
 20
69.8348
 30
0.0
 11
76.9511
 21
72.9326
 31
0.0
  0
LINE
  8
0
 62
     0
 10
76.9511
 20
72.9326
 30
0.0
 11
76.1503
 21
72.9326
 31
0.0
  0
LINE
  8
0
 62
     0
 10
76.1503
 20
72.9326
 30
0.0
 11
76.1503
 21
73.9331
 31
0.0
  0
LINE
  8
0
 62
     0
 10
76.1503
 20
73.9331
 30
0.0
 11
62.151
 21
73.9331
 31
0.0
  0
LINE
  8
0
 62
     0
 10
155.02
 20
73.9331
 30
0.0
 11
155.02
 21
72.9326
 31
0.0
  0
LINE
  8
0
 62
     0
 10
155.02
 20
72.9326
 30
0.0
 11
154.219
 21
72.9326
 31
0.0
  0
LINE
  8
0
 62
     0
 10
154.219
 20
72.9326
 30
0.0
 11
154.219
 21
69.8348
 31
0.0
  0
LINE
  8
0
 62
     0
 10
154.219
 20
69.8348
 30
0.0
 11
155.02
 21
69.8348
 31
0.0
  0
LINE
  8
0
 62
     0
 10
155.02
 20
69.8348
 30
0.0
 11
155.02
 21
69.2326
 31
0.0
  0
LINE
  8
0
 62
     0
 10
155.02
 20
69.2326
 30
0.0
 11
108.245
 21
69.2326
 31
0.0
  0
LINE
  8
0
 62
     0
 10
108.245
 20
69.2326
 30
0.0
 11
108.245
 21
72.4627
 31
0.0
  0
LINE
  8
0
 62
     0
 10
108.245
 20
72.4627
 30
0.0
 11
106.519
 21
72.4627
 31
0.0
  0
LINE
  8
0
 62
     0
 10
106.519
 20
72.4627
 30
0.0
 11
106.519
 21
73.3848
 31
0.0
  0
LINE
  8
0
 62
     0
 10
106.519
 20
73.3848
 30
0.0
 11
103.219
 21
73.3848
 31
0.0
  0
LINE
  8
0
 62
     0
 10
103.219
 20
73.3848
 30
0.0
 11
103.219
 21
72.4627
 31
0.0
  0
LINE
  8
0
 62
     0
 10
103.219
 20
72.4627
 30
0.0
 11
101.494
 21
72.4627
 31
0.0
  0
LINE
  8
0
 62
     0
 10
101.494
 20
72.4627
 30
0.0
 11
101.494
 21
69.2326
 31
0.0
  0
LINE
  8
0
 62
     0
 10
101.494
 20
69.2326
 30
0.0
 11
100.67
 21
69.2326
 31
0.0
  0
LINE
  8
0
 62
     0
 10
100.67
 20
69.2326
 30
0.0
 11
100.67
 21
66.4337
 31
0.0
  0
LINE
  8
0
 62
     0
 10
100.67
 20
66.4337
 30
0.0
 11
101.494
 21
66.4337
 31
0.0
  0
LINE
  8
0
 62
     0
 10
101.494
 20
66.4337
 30
0.0
 11
101.494
 21
60.1638
 31
0.0
  0
LINE
  8
0
 62
     0
 10
101.494
 20
60.1638
 30
0.0
 11
103.219
 21
60.1638
 31
0.0
  0
LINE
  8
0
 62
     0
 10
103.219
 20
60.1638
 30
0.0
 11
103.219
 21
59.1827
 31
0.0
  0
LINE
  8
0
 62
     0
 10
103.219
 20
59.1827
 30
0.0
 11
106.519
 21
59.1827
 31
0.0
  0
LINE
  8
0
 62
     0
 10
106.519
 20
59.1827
 30
0.0
 11
106.519
 21
60.1638
 31
0.0
  0
LINE
  8
0
 62
     0
 10
106.519
 20
60.1638
 30
0.0
 11
108.245
 21
60.1638
 31
0.0
  0
LINE
  8
0
 62
     0
 10
108.245
 20
60.1638
 30
0.0
 11
108.245
 21
64.6328
 31
0.0
  0
LINE
  8
0
 62
     0
 10
108.245
 20
64.6328
 30
0.0
 11
155.02
 21
64.6328
 31
0.0
  0
LINE
  8
0
 62
     0
 10
155.02
 20
64.6328
 30
0.0
 11
155.02
 21
64.0334
 31
0.0
  0
LINE
  8
0
 62
     0
 10
155.02
 20
64.0334
 30
0.0
 11
154.219
 21
64.0334
 31
0.0
  0
LINE
  8
0
 62
     0
 10
154.219
 20
64.0334
 30
0.0
 11
154.219
 21
60.9328
 31
0.0
  0
LINE
  8
0
 62
     0
 10
154.219
 20
60.9328
 30
0.0
 11
155.02
 21
60.9328
 31
0.0
  0
LINE
  8
0
 62
     0
 10
155.02
 20
60.9328
 30
0.0
 11
155.02
 21
59.9338
 31
0.0
  0
LINE
  8
0
 62
     0
 10
155.02
 20
59.9338
 30
0.0
 11
169.019
 21
59.9338
 31
0.0
  0
LINE
  8
0
 62
     0
 10
169.019
 20
59.9338
 30
0.0
 11
169.019
 21
60.9328
 31
0.0
  0
LINE
  8
0
 62
     0
 10
169.019
 20
60.9328
 30
0.0
 11
169.82
 21
60.9328
 31
0.0
  0
LINE
  8
0
 62
     0
 10
169.82
 20
60.9328
 30
0.0
 11
169.82
 21
64.0334
 31
0.0
  0
LINE
  8
0
 62
     0
 10
169.82
 20
64.0334
 30
0.0
 11
169.019
 21
64.0334
 31
0.0
  0
LINE
  8
0
 62
     0
 10
169.019
 20
64.0334
 30
0.0
 11
169.019
 21
64.6328
 31
0.0
  0
LINE
  8
0
 62
     0
 10
169.019
 20
64.6328
 30
0.0
 11
215.794
 21
64.6328
 31
0.0
  0
LINE
  8
0
 62
     0
 10
215.794
 20
64.6328
 30
0.0
 11
215.794
 21
60.1638
 31
0.0
  0
LINE
  8
0
 62
     0
 10
215.794
 20
60.1638
 30
0.0
 11
217.519
 21
60.1638
 31
0.0
  0
LINE
  8
0
 62
     0
 10
217.519
 20
60.1638
 30
0.0
 11
217.519
 21
59.1827
 31
0.0
  0
LINE
  8
0
 62
     0
 10
217.519
 20
59.1827
 30
0.0
 11
220.819
 21
59.1827
 31
0.0
  0
LINE
  8
0
 62
     0
 10
220.819
 20
59.1827
 30
0.0
 11
220.819
 21
60.1638
 31
0.0
  0
LINE
  8
0
 62
     0
 10
220.819
 20
60.1638
 30
0.0
 11
222.545
 21
60.1638
 31
0.0
  0
LINE
  8
0
 62
     0
 10
222.545
 20
60.1638
 30
0.0
 11
222.545
 21
66.4337
 31
0.0
  0
LINE
  8
0
 62
     0
 10
222.545
 20
66.4337
 30
0.0
 11
223.369
 21
66.4337
 31
0.0
  0
LINE
  8
0
 62
     0
 10
223.369
 20
66.4337
 30
0.0
 11
223.369
 21
69.2326
 31
0.0
  0
LINE
  8
0
 62
     0
 10
223.369
 20
69.2326
 30
0.0
 11
222.545
 21
69.2326
 31
0.0
  0
LINE
  8
0
 62
     0
 10
222.545
 20
69.2326
 30
0.0
 11
222.545
 21
72.4627
 31
0.0
  0
LINE
  8
0
 62
     0
 10
222.545
 20
72.4627
 30
0.0
 11
220.819
 21
72.4627
 31
0.0
  0
LINE
  8
0
 62
     0
 10
220.819
 20
72.4627
 30
0.0
 11
220.819
 21
73.3848
 31
0.0
  0
LINE
  8
0
 62
     0
 10
220.819
 20
73.3848
 30
0.0
 11
217.519
 21
73.3848
 31
0.0
  0
LINE
  8
0
 62
     0
 10
217.519
 20
73.3848
 30
0.0
 11
217.519
 21
72.4627
 31
0.0
  0
LINE
  8
0
 62
     0
 10
217.519
 20
72.4627
 30
0.0
 11
215.794
 21
72.4627
 31
0.0
  0
LINE
  8
0
 62
     0
 10
215.794
 20
72.4627
 30
0.0
 11
215.794
 21
69.2326
 31
0.0
  0
LINE
  8
0
 62
     0
 10
215.794
 20
69.2326
 30
0.0
 11
169.019
 21
69.2326
 31
0.0
  0
LINE
  8
0
 62
     0
 10
169.019
 20
69.2326
 30
0.0
 11
169.019
 21
69.8348
 31
0.0
  0
LINE
  8
0
 62
     0
 10
169.019
 20
69.8348
 30
0.0
 11
169.82
 21
69.8348
 31
0.0
  0
LINE
  8
0
 62
     0
 10
169.82
 20
69.8348
 30
0.0
 11
169.82
 21
72.9326
 31
0.0
  0
LINE
  8
0
 62
     0
 10
169.82
 20
72.9326
 30
0.0
 11
169.019
 21
72.9326
 31
0.0
  0
LINE
  8
0
 62
     0
 10
169.019
 20
72.9326
 30
0.0
 11
169.019
 21
73.9331
 31
0.0
  0
LINE
  8
0
 62
     0
 10
169.019
 20
73.9331
 30
0.0
 11
155.02
 21
73.9331
 31
0.0
  0
LINE
  8
0
 62
     0
 10
31.1947
 20
92.9831
 30
0.0
 11
31.1947
 21
91.9826
 31
0.0
  0
LINE
  8
0
 62
     0
 10
31.1947
 20
91.9826
 30
0.0
 11
30.394
 21
91.9826
 31
0.0
  0
LINE
  8
0
 62
     0
 10
30.394
 20
91.9826
 30
0.0
 11
30.394
 21
88.8834
 31
0.0
  0
LINE
  8
0
 62
     0
 10
30.394
 20
88.8834
 30
0.0
 11
31.1947
 21
88.8834
 31
0.0
  0
LINE
  8
0
 62
     0
 10
31.1947
 20
88.8834
 30
0.0
 11
31.1947
 21
88.2826
 31
0.0
  0
LINE
  8
0
 62
     0
 10
31.1947
 20
88.2826
 30
0.0
 11
12.9949
 21
88.2826
 31
0.0
  0
LINE
  8
0
 62
     0
 10
12.9949
 20
88.2826
 30
0.0
 11
12.9949
 21
91.5127
 31
0.0
  0
LINE
  8
0
 62
     0
 10
12.9949
 20
91.5127
 30
0.0
 11
11.2696
 21
91.5127
 31
0.0
  0
LINE
  8
0
 62
     0
 10
11.2696
 20
91.5127
 30
0.0
 11
11.2696
 21
92.4334
 31
0.0
  0
LINE
  8
0
 62
     0
 10
11.2696
 20
92.4334
 30
0.0
 11
7.96918
 21
92.4334
 31
0.0
  0
LINE
  8
0
 62
     0
 10
7.96918
 20
92.4334
 30
0.0
 11
7.96918
 21
91.5127
 31
0.0
  0
LINE
  8
0
 62
     0
 10
7.96918
 20
91.5127
 30
0.0
 11
6.24388
 21
91.5127
 31
0.0
  0
LINE
  8
0
 62
     0
 10
6.24388
 20
91.5127
 30
0.0
 11
6.24388
 21
88.2826
 31
0.0
  0
LINE
  8
0
 62
     0
 10
6.24388
 20
88.2826
 30
0.0
 11
5.41983
 21
88.2826
 31
0.0
  0
LINE
  8
0
 62
     0
 10
5.41983
 20
88.2826
 30
0.0
 11
5.41983
 21
85.4837
 31
0.0
  0
LINE
  8
0
 62
     0
 10
5.41983
 20
85.4837
 30
0.0
 11
6.24388
 21
85.4837
 31
0.0
  0
LINE
  8
0
 62
     0
 10
6.24388
 20
85.4837
 30
0.0
 11
6.24388
 21
79.2138
 31
0.0
  0
LINE
  8
0
 62
     0
 10
6.24388
 20
79.2138
 30
0.0
 11
7.96918
 21
79.2138
 31
0.0
  0
LINE
  8
0
 62
     0
 10
7.96918
 20
79.2138
 30
0.0
 11
7.96918
 21
78.2327
 31
0.0
  0
LINE
  8
0
 62
     0
 10
7.96918
 20
78.2327
 30
0.0
 11
11.2696
 21
78.2327
 31
0.0
  0
LINE
  8
0
 62
     0
 10
11.2696
 20
78.2327
 30
0.0
 11
11.2696
 21
79.2138
 31
0.0
  0
LINE
  8
0
 62
     0
 10
11.2696
 20
79.2138
 30
0.0
 11
12.9949
 21
79.2138
 31
0.0
  0
LINE
  8
0
 62
     0
 10
12.9949
 20
79.2138
 30
0.0
 11
12.9949
 21
83.6828
 31
0.0
  0
LINE
  8
0
 62
     0
 10
12.9949
 20
83.6828
 30
0.0
 11
31.1947
 21
83.6828
 31
0.0
  0
LINE
  8
0
 62
     0
 10
31.1947
 20
83.6828
 30
0.0
 11
31.1947
 21
83.0834
 31
0.0
  0
LINE
  8
0
 62
     0
 10
31.1947
 20
83.0834
 30
0.0
 11
30.394
 21
83.0834
 31
0.0
  0
LINE
  8
0
 62
     0
 10
30.394
 20
83.0834
 30
0.0
 11
30.394
 21
79.9828
 31
0.0
  0
LINE
  8
0
 62
     0
 10
30.394
 20
79.9828
 30
0.0
 11
31.1947
 21
79.9828
 31
0.0
  0
LINE
  8
0
 62
     0
 10
31.1947
 20
79.9828
 30
0.0
 11
31.1947
 21
78.9838
 31
0.0
  0
LINE
  8
0
 62
     0
 10
31.1947
 20
78.9838
 30
0.0
 11
45.194
 21
78.9838
 31
0.0
  0
LINE
  8
0
 62
     0
 10
45.194
 20
78.9838
 30
0.0
 11
45.194
 21
79.9828
 31
0.0
  0
LINE
  8
0
 62
     0
 10
45.194
 20
79.9828
 30
0.0
 11
45.9948
 21
79.9828
 31
0.0
  0
LINE
  8
0
 62
     0
 10
45.9948
 20
79.9828
 30
0.0
 11
45.9948
 21
83.0834
 31
0.0
  0
LINE
  8
0
 62
     0
 10
45.9948
 20
83.0834
 30
0.0
 11
45.194
 21
83.0834
 31
0.0
  0
LINE
  8
0
 62
     0
 10
45.194
 20
83.0834
 30
0.0
 11
45.194
 21
83.6828
 31
0.0
  0
LINE
  8
0
 62
     0
 10
45.194
 20
83.6828
 30
0.0
 11
63.3938
 21
83.6828
 31
0.0
  0
LINE
  8
0
 62
     0
 10
63.3938
 20
83.6828
 30
0.0
 11
63.3938
 21
79.2138
 31
0.0
  0
LINE
  8
0
 62
     0
 10
63.3938
 20
79.2138
 30
0.0
 11
65.1192
 21
79.2138
 31
0.0
  0
LINE
  8
0
 62
     0
 10
65.1192
 20
79.2138
 30
0.0
 11
65.1192
 21
78.2327
 31
0.0
  0
LINE
  8
0
 62
     0
 10
65.1192
 20
78.2327
 30
0.0
 11
68.4195
 21
78.2327
 31
0.0
  0
LINE
  8
0
 62
     0
 10
68.4195
 20
78.2327
 30
0.0
 11
68.4195
 21
79.2138
 31
0.0
  0
LINE
  8
0
 62
     0
 10
68.4195
 20
79.2138
 30
0.0
 11
70.1449
 21
79.2138
 31
0.0
  0
LINE
  8
0
 62
     0
 10
70.1449
 20
79.2138
 30
0.0
 11
70.1449
 21
85.4837
 31
0.0
  0
LINE
  8
0
 62
     0
 10
70.1449
 20
85.4837
 30
0.0
 11
70.969
 21
85.4837
 31
0.0
  0
LINE
  8
0
 62
     0
 10
70.969
 20
85.4837
 30
0.0
 11
70.969
 21
88.2826
 31
0.0
  0
LINE
  8
0
 62
     0
 10
70.969
 20
88.2826
 30
0.0
 11
70.1449
 21
88.2826
 31
0.0
  0
LINE
  8
0
 62
     0
 10
70.1449
 20
88.2826
 30
0.0
 11
70.1449
 21
91.5127
 31
0.0
  0
LINE
  8
0
 62
     0
 10
70.1449
 20
91.5127
 30
0.0
 11
68.4195
 21
91.5127
 31
0.0
  0
LINE
  8
0
 62
     0
 10
68.4195
 20
91.5127
 30
0.0
 11
68.4195
 21
92.4334
 31
0.0
  0
LINE
  8
0
 62
     0
 10
68.4195
 20
92.4334
 30
0.0
 11
65.1192
 21
92.4334
 31
0.0
  0
LINE
  8
0
 62
     0
 10
65.1192
 20
92.4334
 30
0.0
 11
65.1192
 21
91.5127
 31
0.0
  0
LINE
  8
0
 62
     0
 10
65.1192
 20
91.5127
 30
0.0
 11
63.3938
 21
91.5127
 31
0.0
  0
LINE
  8
0
 62
     0
 10
63.3938
 20
91.5127
 30
0.0
 11
63.3938
 21
88.2826
 31
0.0
  0
LINE
  8
0
 62
     0
 10
63.3938
 20
88.2826
 30
0.0
 11
45.194
 21
88.2826
 31
0.0
  0
LINE
  8
0
 62
     0
 10
45.194
 20
88.2826
 30
0.0
 11
45.194
 21
88.8834
 31
0.0
  0
LINE
  8
0
 62
     0
 10
45.194
 20
88.8834
 30
0.0
 11
45.9948
 21
88.8834
 31
0.0
  0
LINE
  8
0
 62
     0
 10
45.9948
 20
88.8834
 30
0.0
 11
45.9948
 21
91.9826
 31
0.0
  0
LINE
  8
0
 62
     0
 10
45.9948
 20
91.9826
 30
0.0
 11
45.194
 21
91.9826
 31
0.0
  0
LINE
  8
0
 62
     0
 10
45.194
 20
91.9826
 30
0.0
 11
45.194
 21
92.9831
 31
0.0
  0
LINE
  8
0
 62
     0
 10
45.194
 20
92.9831
 30
0.0
 11
31.1947
 21
92.9831
 31
0.0
  0
LINE
  8
0
 62
     0
 10
145.495
 20
92.9831
 30
0.0
 11
145.495
 21
91.9826
 31
0.0
  0
LINE
  8
0
 62
     0
 10
145.495
 20
91.9826
 30
0.0
 11
144.694
 21
91.9826
 31
0.0
  0
LINE
  8
0
 62
     0
 10
144.694
 20
91.9826
 30
0.0
 11
144.694
 21
88.8834
 31
0.0
  0
LINE
  8
0
 62
     0
 10
144.694
 20
88.8834
 30
0.0
 11
145.495
 21
88.8834
 31
0.0
  0
LINE
  8
0
 62
     0
 10
145.495
 20
88.8834
 30
0.0
 11
145.495
 21
88.2826
 31
0.0
  0
LINE
  8
0
 62
     0
 10
145.495
 20
88.2826
 30
0.0
 11
89.1949
 21
88.2826
 31
0.0
  0
LINE
  8
0
 62
     0
 10
89.1949
 20
88.2826
 30
0.0
 11
89.1949
 21
91.5127
 31
0.0
  0
LINE
  8
0
 62
     0
 10
89.1949
 20
91.5127
 30
0.0
 11
87.4695
 21
91.5127
 31
0.0
  0
LINE
  8
0
 62
     0
 10
87.4695
 20
91.5127
 30
0.0
 11
87.4695
 21
92.4334
 31
0.0
  0
LINE
  8
0
 62
     0
 10
87.4695
 20
92.4334
 30
0.0
 11
84.1692
 21
92.4334
 31
0.0
  0
LINE
  8
0
 62
     0
 10
84.1692
 20
92.4334
 30
0.0
 11
84.1692
 21
91.5127
 31
0.0
  0
LINE
  8
0
 62
     0
 10
84.1692
 20
91.5127
 30
0.0
 11
82.4438
 21
91.5127
 31
0.0
  0
LINE
  8
0
 62
     0
 10
82.4438
 20
91.5127
 30
0.0
 11
82.4438
 21
88.2826
 31
0.0
  0
LINE
  8
0
 62
     0
 10
82.4438
 20
88.2826
 30
0.0
 11
81.6197
 21
88.2826
 31
0.0
  0
LINE
  8
0
 62
     0
 10
81.6197
 20
88.2826
 30
0.0
 11
81.6197
 21
85.4837
 31
0.0
  0
LINE
  8
0
 62
     0
 10
81.6197
 20
85.4837
 30
0.0
 11
82.4438
 21
85.4837
 31
0.0
  0
LINE
  8
0
 62
     0
 10
82.4438
 20
85.4837
 30
0.0
 11
82.4438
 21
79.2138
 31
0.0
  0
LINE
  8
0
 62
     0
 10
82.4438
 20
79.2138
 30
0.0
 11
84.1692
 21
79.2138
 31
0.0
  0
LINE
  8
0
 62
     0
 10
84.1692
 20
79.2138
 30
0.0
 11
84.1692
 21
78.2327
 31
0.0
  0
LINE
  8
0
 62
     0
 10
84.1692
 20
78.2327
 30
0.0
 11
87.4695
 21
78.2327
 31
0.0
  0
LINE
  8
0
 62
     0
 10
87.4695
 20
78.2327
 30
0.0
 11
87.4695
 21
79.2138
 31
0.0
  0
LINE
  8
0
 62
     0
 10
87.4695
 20
79.2138
 30
0.0
 11
89.1949
 21
79.2138
 31
0.0
  0
LINE
  8
0
 62
     0
 10
89.1949
 20
79.2138
 30
0.0
 11
89.1949
 21
83.6828
 31
0.0
  0
LINE
  8
0
 62
     0
 10
89.1949
 20
83.6828
 30
0.0
 11
145.495
 21
83.6828
 31
0.0
  0
LINE
  8
0
 62
     0
 10
145.495
 20
83.6828
 30
0.0
 11
145.495
 21
83.0834
 31
0.0
  0
LINE
  8
0
 62
     0
 10
145.495
 20
83.0834
 30
0.0
 11
144.694
 21
83.0834
 31
0.0
  0
LINE
  8
0
 62
     0
 10
144.694
 20
83.0834
 30
0.0
 11
144.694
 21
79.9828
 31
0.0
  0
LINE
  8
0
 62
     0
 10
144.694
 20
79.9828
 30
0.0
 11
145.495
 21
79.9828
 31
0.0
  0
LINE
  8
0
 62
     0
 10
145.495
 20
79.9828
 30
0.0
 11
145.495
 21
78.9838
 31
0.0
  0
LINE
  8
0
 62
     0
 10
145.495
 20
78.9838
 30
0.0
 11
159.494
 21
78.9838
 31
0.0
  0
LINE
  8
0
 62
     0
 10
159.494
 20
78.9838
 30
0.0
 11
159.494
 21
79.9828
 31
0.0
  0
LINE
  8
0
 62
     0
 10
159.494
 20
79.9828
 30
0.0
 11
160.295
 21
79.9828
 31
0.0
  0
LINE
  8
0
 62
     0
 10
160.295
 20
79.9828
 30
0.0
 11
160.295
 21
83.0834
 31
0.0
  0
LINE
  8
0
 62
     0
 10
160.295
 20
83.0834
 30
0.0
 11
159.494
 21
83.0834
 31
0.0
  0
LINE
  8
0
 62
     0
 10
159.494
 20
83.0834
 30
0.0
 11
159.494
 21
83.6828
 31
0.0
  0
LINE
  8
0
 62
     0
 10
159.494
 20
83.6828
 30
0.0
 11
215.794
 21
83.6828
 31
0.0
  0
LINE
  8
0
 62
     0
 10
215.794
 20
83.6828
 30
0.0
 11
215.794
 21
79.2138
 31
0.0
  0
LINE
  8
0
 62
     0
 10
215.794
 20
79.2138
 30
0.0
 11
217.519
 21
79.2138
 31
0.0
  0
LINE
  8
0
 62
     0
 10
217.519
 20
79.2138
 30
0.0
 11
217.519
 21
78.2327
 31
0.0
  0
LINE
  8
0
 62
     0
 10
217.519
 20
78.2327
 30
0.0
 11
220.819
 21
78.2327
 31
0.0
  0
LINE
  8
0
 62
     0
 10
220.819
 20
78.2327
 30
0.0
 11
220.819
 21
79.2138
 31
0.0
  0
LINE
  8
0
 62
     0
 10
220.819
 20
79.2138
 30
0.0
 11
222.545
 21
79.2138
 31
0.0
  0
LINE
  8
0
 62
     0
 10
222.545
 20
79.2138
 30
0.0
 11
222.545
 21
85.4837
 31
0.0
  0
LINE
  8
0
 62
     0
 10
222.545
 20
85.4837
 30
0.0
 11
223.369
 21
85.4837
 31
0.0
  0
LINE
  8
0
 62
     0
 10
223.369
 20
85.4837
 30
0.0
 11
223.369
 21
88.2826
 31
0.0
  0
LINE
  8
0
 62
     0
 10
223.369
 20
88.2826
 30
0.0
 11
222.545
 21
88.2826
 31
0.0
  0
LINE
  8
0
 62
     0
 10
222.545
 20
88.2826
 30
0.0
 11
222.545
 21
91.5127
 31
0.0
  0
LINE
  8
0
 62
     0
 10
222.545
 20
91.5127
 30
0.0
 11
220.819
 21
91.5127
 31
0.0
  0
LINE
  8
0
 62
     0
 10
220.819
 20
91.5127
 30
0.0
 11
220.819
 21
92.4334
 31
0.0
  0
LINE
  8
0
 62
     0
 10
220.819
 20
92.4334
 30
0.0
 11
217.519
 21
92.4334
 31
0.0
  0
LINE
  8
0
 62
     0
 10
217.519
 20
92.4334
 30
0.0
 11
217.519
 21
91.5127
 31
0.0
  0
LINE
  8
0
 62
     0
 10
217.519
 20
91.5127
 30
0.0
 11
215.794
 21
91.5127
 31
0.0
  0
LINE
  8
0
 62
     0
 10
215.794
 20
91.5127
 30
0.0
 11
215.794
 21
88.2826
 31
0.0
  0
LINE
  8
0
 62
     0
 10
215.794
 20
88.2826
 30
0.0
 11
159.494
 21
88.2826
 31
0.0
  0
LINE
  8
0
 62
     0
 10
159.494
 20
88.2826
 30
0.0
 11
159.494
 21
88.8834
 31
0.0
  0
LINE
  8
0
 62
     0
 10
159.494
 20
88.8834
 30
0.0
 11
160.295
 21
88.8834
 31
0.0
  0
LINE
  8
0
 62
     0
 10
160.295
 20
88.8834
 30
0.0
 11
160.295
 21
91.9826
 31
0.0
  0
LINE
  8
0
 62
     0
 10
160.295
 20
91.9826
 30
0.0
 11
159.494
 21
91.9826
 31
0.0
  0
LINE
  8
0
 62
     0
 10
159.494
 20
91.9826
 30
0.0
 11
159.494
 21
92.9831
 31
0.0
  0
LINE
  8
0
 62
     0
 10
159.494
 20
92.9831
 30
0.0
 11
145.495
 21
92.9831
 31
0.0
  0
LINE
  8
0
 62
     0
 10
21.6697
 20
112.033
 30
0.0
 11
21.6697
 21
111.033
 31
0.0
  0
LINE
  8
0
 62
     0
 10
21.6697
 20
111.033
 30
0.0
 11
20.869
 21
111.033
 31
0.0
  0
LINE
  8
0
 62
     0
 10
20.869
 20
111.033
 30
0.0
 11
20.869
 21
107.933
 31
0.0
  0
LINE
  8
0
 62
     0
 10
20.869
 20
107.933
 30
0.0
 11
21.6697
 21
107.933
 31
0.0
  0
LINE
  8
0
 62
     0
 10
21.6697
 20
107.933
 30
0.0
 11
21.6697
 21
107.333
 31
0.0
  0
LINE
  8
0
 62
     0
 10
21.6697
 20
107.333
 30
0.0
 11
12.9949
 21
107.333
 31
0.0
  0
LINE
  8
0
 62
     0
 10
12.9949
 20
107.333
 30
0.0
 11
12.9949
 21
110.563
 31
0.0
  0
LINE
  8
0
 62
     0
 10
12.9949
 20
110.563
 30
0.0
 11
11.2696
 21
110.563
 31
0.0
  0
LINE
  8
0
 62
     0
 10
11.2696
 20
110.563
 30
0.0
 11
11.2696
 21
111.483
 31
0.0
  0
LINE
  8
0
 62
     0
 10
11.2696
 20
111.483
 30
0.0
 11
7.96918
 21
111.483
 31
0.0
  0
LINE
  8
0
 62
     0
 10
7.96918
 20
111.483
 30
0.0
 11
7.96918
 21
110.563
 31
0.0
  0
LINE
  8
0
 62
     0
 10
7.96918
 20
110.563
 30
0.0
 11
6.24388
 21
110.563
 31
0.0
  0
LINE
  8
0
 62
     0
 10
6.24388
 20
110.563
 30
0.0
 11
6.24388
 21
107.333
 31
0.0
  0
LINE
  8
0
 62
     0
 10
6.24388
 20
107.333
 30
0.0
 11
5.41983
 21
107.333
 31
0.0
  0
LINE
  8
0
 62
     0
 10
5.41983
 20
107.333
 30
0.0
 11
5.41983
 21
104.534
 31
0.0
  0
LINE
  8
0
 62
     0
 10
5.41983
 20
104.534
 30
0.0
 11
6.24388
 21
104.534
 31
0.0
  0
LINE
  8
0
 62
     0
 10
6.24388
 20
104.534
 30
0.0
 11
6.24388
 21
98.2638
 31
0.0
  0
LINE
  8
0
 62
     0
 10
6.24388
 20
98.2638
 30
0.0
 11
7.96918
 21
98.2638
 31
0.0
  0
LINE
  8
0
 62
     0
 10
7.96918
 20
98.2638
 30
0.0
 11
7.96918
 21
97.2827
 31
0.0
  0
LINE
  8
0
 62
     0
 10
7.96918
 20
97.2827
 30
0.0
 11
11.2696
 21
97.2827
 31
0.0
  0
LINE
  8
0
 62
     0
 10
11.2696
 20
97.2827
 30
0.0
 11
11.2696
 21
98.2638
 31
0.0
  0
LINE
  8
0
 62
     0
 10
11.2696
 20
98.2638
 30
0.0
 11
12.9949
 21
98.2638
 31
0.0
  0
LINE
  8
0
 62
     0
 10
12.9949
 20
98.2638
 30
0.0
 11
12.9949
 21
102.733
 31
0.0
  0
LINE
  8
0
 62
     0
 10
12.9949
 20
102.733
 30
0.0
 11
21.6697
 21
102.733
 31
0.0
  0
LINE
  8
0
 62
     0
 10
21.6697
 20
102.733
 30
0.0
 11
21.6697
 21
102.133
 31
0.0
  0
LINE
  8
0
 62
     0
 10
21.6697
 20
102.133
 30
0.0
 11
20.869
 21
102.133
 31
0.0
  0
LINE
  8
0
 62
     0
 10
20.869
 20
102.133
 30
0.0
 11
20.869
 21
99.0328
 31
0.0
  0
LINE
  8
0
 62
     0
 10
20.869
 20
99.0328
 30
0.0
 11
21.6697
 21
99.0328
 31
0.0
  0
LINE
  8
0
 62
     0
 10
21.6697
 20
99.0328
 30
0.0
 11
21.6697
 21
98.0338
 31
0.0
  0
LINE
  8
0
 62
     0
 10
21.6697
 20
98.0338
 30
0.0
 11
35.669
 21
98.0338
 31
0.0
  0
LINE
  8
0
 62
     0
 10
35.669
 20
98.0338
 30
0.0
 11
35.669
 21
99.0328
 31
0.0
  0
LINE
  8
0
 62
     0
 10
35.669
 20
99.0328
 30
0.0
 11
36.4698
 21
99.0328
 31
0.0
  0
LINE
  8
0
 62
     0
 10
36.4698
 20
99.0328
 30
0.0
 11
36.4698
 21
102.133
 31
0.0
  0
LINE
  8
0
 62
     0
 10
36.4698
 20
102.133
 30
0.0
 11
35.669
 21
102.133
 31
0.0
  0
LINE
  8
0
 62
     0
 10
35.669
 20
102.133
 30
0.0
 11
35.669
 21
102.733
 31
0.0
  0
LINE
  8
0
 62
     0
 10
35.669
 20
102.733
 30
0.0
 11
44.3438
 21
102.733
 31
0.0
  0
LINE
  8
0
 62
     0
 10
44.3438
 20
102.733
 30
0.0
 11
44.3438
 21
98.2638
 31
0.0
  0
LINE
  8
0
 62
     0
 10
44.3438
 20
98.2638
 30
0.0
 11
46.0692
 21
98.2638
 31
0.0
  0
LINE
  8
0
 62
     0
 10
46.0692
 20
98.2638
 30
0.0
 11
46.0692
 21
97.2827
 31
0.0
  0
LINE
  8
0
 62
     0
 10
46.0692
 20
97.2827
 30
0.0
 11
49.3695
 21
97.2827
 31
0.0
  0
LINE
  8
0
 62
     0
 10
49.3695
 20
97.2827
 30
0.0
 11
49.3695
 21
98.2638
 31
0.0
  0
LINE
  8
0
 62
     0
 10
49.3695
 20
98.2638
 30
0.0
 11
51.0949
 21
98.2638
 31
0.0
  0
LINE
  8
0
 62
     0
 10
51.0949
 20
98.2638
 30
0.0
 11
51.0949
 21
104.534
 31
0.0
  0
LINE
  8
0
 62
     0
 10
51.0949
 20
104.534
 30
0.0
 11
51.919
 21
104.534
 31
0.0
  0
LINE
  8
0
 62
     0
 10
51.919
 20
104.534
 30
0.0
 11
51.919
 21
107.333
 31
0.0
  0
LINE
  8
0
 62
     0
 10
51.919
 20
107.333
 30
0.0
 11
51.0949
 21
107.333
 31
0.0
  0
LINE
  8
0
 62
     0
 10
51.0949
 20
107.333
 30
0.0
 11
51.0949
 21
110.563
 31
0.0
  0
LINE
  8
0
 62
     0
 10
51.0949
 20
110.563
 30
0.0
 11
49.3695
 21
110.563
 31
0.0
  0
LINE
  8
0
 62
     0
 10
49.3695
 20
110.563
 30
0.0
 11
49.3695
 21
111.483
 31
0.0
  0
LINE
  8
0
 62
     0
 10
49.3695
 20
111.483
 30
0.0
 11
46.0692
 21
111.483
 31
0.0
  0
LINE
  8
0
 62
     0
 10
46.0692
 20
111.483
 30
0.0
 11
46.0692
 21
110.563
 31
0.0
  0
LINE
  8
0
 62
     0
 10
46.0692
 20
110.563
 30
0.0
 11
44.3438
 21
110.563
 31
0.0
  0
LINE
  8
0
 62
     0
 10
44.3438
 20
110.563
 30
0.0
 11
44.3438
 21
107.333
 31
0.0
  0
LINE
  8
0
 62
     0
 10
44.3438
 20
107.333
 30
0.0
 11
35.669
 21
107.333
 31
0.0
  0
LINE
  8
0
 62
     0
 10
35.669
 20
107.333
 30
0.0
 11
35.669
 21
107.933
 31
0.0
  0
LINE
  8
0
 62
     0
 10
35.669
 20
107.933
 30
0.0
 11
36.4698
 21
107.933
 31
0.0
  0
LINE
  8
0
 62
     0
 10
36.4698
 20
107.933
 30
0.0
 11
36.4698
 21
111.033
 31
0.0
  0
LINE
  8
0
 62
     0
 10
36.4698
 20
111.033
 30
0.0
 11
35.669
 21
111.033
 31
0.0
  0
LINE
  8
0
 62
     0
 10
35.669
 20
111.033
 30
0.0
 11
35.669
 21
112.033
 31
0.0
  0
LINE
  8
0
 62
     0
 10
35.669
 20
112.033
 30
0.0
 11
21.6697
 21
112.033
 31
0.0
  0
LINE
  8
0
 62
     0
 10
135.97
 20
112.033
 30
0.0
 11
135.97
 21
111.033
 31
0.0
  0
LINE
  8
0
 62
     0
 10
135.97
 20
111.033
 30
0.0
 11
135.169
 21
111.033
 31
0.0
  0
LINE
  8
0
 62
     0
 10
135.169
 20
111.033
 30
0.0
 11
135.169
 21
107.933
 31
0.0
  0
LINE
  8
0
 62
     0
 10
135.169
 20
107.933
 30
0.0
 11
135.97
 21
107.933
 31
0.0
  0
LINE
  8
0
 62
     0
 10
135.97
 20
107.933
 30
0.0
 11
135.97
 21
107.333
 31
0.0
  0
LINE
  8
0
 62
     0
 10
135.97
 20
107.333
 30
0.0
 11
79.6699
 21
107.333
 31
0.0
  0
LINE
  8
0
 62
     0
 10
79.6699
 20
107.333
 30
0.0
 11
79.6699
 21
110.563
 31
0.0
  0
LINE
  8
0
 62
     0
 10
79.6699
 20
110.563
 30
0.0
 11
77.9445
 21
110.563
 31
0.0
  0
LINE
  8
0
 62
     0
 10
77.9445
 20
110.563
 30
0.0
 11
77.9445
 21
111.483
 31
0.0
  0
LINE
  8
0
 62
     0
 10
77.9445
 20
111.483
 30
0.0
 11
74.6442
 21
111.483
 31
0.0
  0
LINE
  8
0
 62
     0
 10
74.6442
 20
111.483
 30
0.0
 11
74.6442
 21
110.563
 31
0.0
  0
LINE
  8
0
 62
     0
 10
74.6442
 20
110.563
 30
0.0
 11
72.9188
 21
110.563
 31
0.0
  0
LINE
  8
0
 62
     0
 10
72.9188
 20
110.563
 30
0.0
 11
72.9188
 21
107.333
 31
0.0
  0
LINE
  8
0
 62
     0
 10
72.9188
 20
107.333
 30
0.0
 11
72.0947
 21
107.333
 31
0.0
  0
LINE
  8
0
 62
     0
 10
72.0947
 20
107.333
 30
0.0
 11
72.0947
 21
104.534
 31
0.0
  0
LINE
  8
0
 62
     0
 10
72.0947
 20
104.534
 30
0.0
 11
72.9188
 21
104.534
 31
0.0
  0
LINE
  8
0
 62
     0
 10
72.9188
 20
104.534
 30
0.0
 11
72.9188
 21
98.2638
 31
0.0
  0
LINE
  8
0
 62
     0
 10
72.9188
 20
98.2638
 30
0.0
 11
74.6442
 21
98.2638
 31
0.0
  0
LINE
  8
0
 62
     0
 10
74.6442
 20
98.2638
 30
0.0
 11
74.6442
 21
97.2827
 31
0.0
  0
LINE
  8
0
 62
     0
 10
74.6442
 20
97.2827
 30
0.0
 11
77.9445
 21
97.2827
 31
0.0
  0
LINE
  8
0
 62
     0
 10
77.9445
 20
97.2827
 30
0.0
 11
77.9445
 21
98.2638
 31
0.0
  0
LINE
  8
0
 62
     0
 10
77.9445
 20
98.2638
 30
0.0
 11
79.6699
 21
98.2638
 31
0.0
  0
LINE
  8
0
 62
     0
 10
79.6699
 20
98.2638
 30
0.0
 11
79.6699
 21
102.733
 31
0.0
  0
LINE
  8
0
 62
     0
 10
79.6699
 20
102.733
 30
0.0
 11
135.97
 21
102.733
 31
0.0
  0
LINE
  8
0
 62
     0
 10
135.97
 20
102.733
 30
0.0
 11
135.97
 21
102.133
 31
0.0
  0
LINE
  8
0
 62
     0
 10
135.97
 20
102.133
 30
0.0
 11
135.169
 21
102.133
 31
0.0
  0
LINE
  8
0
 62
     0
 10
135.169
 20
102.133
 30
0.0
 11
135.169
 21
99.0328
 31
0.0
  0
LINE
  8
0
 62
     0
 10
135.169
 20
99.0328
 30
0.0
 11
135.97
 21
99.0328
 31
0.0
  0
LINE
  8
0
 62
     0
 10
135.97
 20
99.0328
 30
0.0
 11
135.97
 21
98.0338
 31
0.0
  0
LINE
  8
0
 62
     0
 10
135.97
 20
98.0338
 30
0.0
 11
149.969
 21
98.0338
 31
0.0
  0
LINE
  8
0
 62
     0
 10
149.969
 20
98.0338
 30
0.0
 11
149.969
 21
99.0328
 31
0.0
  0
LINE
  8
0
 62
     0
 10
149.969
 20
99.0328
 30
0.0
 11
150.77
 21
99.0328
 31
0.0
  0
LINE
  8
0
 62
     0
 10
150.77
 20
99.0328
 30
0.0
 11
150.77
 21
102.133
 31
0.0
  0
LINE
  8
0
 62
     0
 10
150.77
 20
102.133
 30
0.0
 11
149.969
 21
102.133
 31
0.0
  0
LINE
  8
0
 62
     0
 10
149.969
 20
102.133
 30
0.0
 11
149.969
 21
102.733
 31
0.0
  0
LINE
  8
0
 62
     0
 10
149.969
 20
102.733
 30
0.0
 11
206.269
 21
102.733
 31
0.0
  0
LINE
  8
0
 62
     0
 10
206.269
 20
102.733
 30
0.0
 11
206.269
 21
98.2638
 31
0.0
  0
LINE
  8
0
 62
     0
 10
206.269
 20
98.2638
 30
0.0
 11
207.993
 21
98.2638
 31
0.0
  0
LINE
  8
0
 62
     0
 10
207.993
 20
98.2638
 30
0.0
 11
207.993
 21
97.2827
 31
0.0
  0
LINE
  8
0
 62
     0
 10
207.993
 20
97.2827
 30
0.0
 11
211.294
 21
97.2827
 31
0.0
  0
LINE
  8
0
 62
     0
 10
211.294
 20
97.2827
 30
0.0
 11
211.294
 21
98.2638
 31
0.0
  0
LINE
  8
0
 62
     0
 10
211.294
 20
98.2638
 30
0.0
 11
213.02
 21
98.2638
 31
0.0
  0
LINE
  8
0
 62
     0
 10
213.02
 20
98.2638
 30
0.0
 11
213.02
 21
104.534
 31
0.0
  0
LINE
  8
0
 62
     0
 10
213.02
 20
104.534
 30
0.0
 11
213.844
 21
104.534
 31
0.0
  0
LINE
  8
0
 62
     0
 10
213.844
 20
104.534
 30
0.0
 11
213.844
 21
107.333
 31
0.0
  0
LINE
  8
0
 62
     0
 10
213.844
 20
107.333
 30
0.0
 11
213.02
 21
107.333
 31
0.0
  0
LINE
  8
0
 62
     0
 10
213.02
 20
107.333
 30
0.0
 11
213.02
 21
110.563
 31
0.0
  0
LINE
  8
0
 62
     0
 10
213.02
 20
110.563
 30
0.0
 11
211.294
 21
110.563
 31
0.0
  0
LINE
  8
0
 62
     0
 10
211.294
 20
110.563
 30
0.0
 11
211.294
 21
111.483
 31
0.0
  0
LINE
  8
0
 62
     0
 10
211.294
 20
111.483
 30
0.0
 11
207.993
 21
111.483
 31
0.0
  0
LINE
  8
0
 62
     0
 10
207.993
 20
111.483
 30
0.0
 11
207.993
 21
110.563
 31
0.0
  0
LINE
  8
0
 62
     0
 10
207.993
 20
110.563
 30
0.0
 11
206.269
 21
110.563
 31
0.0
  0
LINE
  8
0
 62
     0
 10
206.269
 20
110.563
 30
0.0
 11
206.269
 21
107.333
 31
0.0
  0
LINE
  8
0
 62
     0
 10
206.269
 20
107.333
 30
0.0
 11
149.969
 21
107.333
 31
0.0
  0
LINE
  8
0
 62
     0
 10
149.969
 20
107.333
 30
0.0
 11
149.969
 21
107.933
 31
0.0
  0
LINE
  8
0
 62
     0
 10
149.969
 20
107.933
 30
0.0
 11
150.77
 21
107.933
 31
0.0
  0
LINE
  8
0
 62
     0
 10
150.77
 20
107.933
 30
0.0
 11
150.77
 21
111.033
 31
0.0
  0
LINE
  8
0
 62
     0
 10
150.77
 20
111.033
 30
0.0
 11
149.969
 21
111.033
 31
0.0
  0
LINE
  8
0
 62
     0
 10
149.969
 20
111.033
 30
0.0
 11
149.969
 21
112.033
 31
0.0
  0
LINE
  8
0
 62
     0
 10
149.969
 20
112.033
 30
0.0
 11
135.97
 21
112.033
 31
0.0
  0
LINE
  8
0
 62
     0
 10
12.1447
 20
131.083
 30
0.0
 11
12.1447
 21
130.083
 31
0.0
  0
LINE
  8
0
 62
     0
 10
12.1447
 20
130.083
 30
0.0
 11
11.344
 21
130.083
 31
0.0
  0
LINE
  8
0
 62
     0
 10
11.344
 20
130.083
 30
0.0
 11
11.344
 21
126.983
 31
0.0
  0
LINE
  8
0
 62
     0
 10
11.344
 20
126.983
 30
0.0
 11
12.1447
 21
126.983
 31
0.0
  0
LINE
  8
0
 62
     0
 10
12.1447
 20
126.983
 30
0.0
 11
12.1447
 21
126.383
 31
0.0
  0
LINE
  8
0
 62
     0
 10
12.1447
 20
126.383
 30
0.0
 11
10.6192
 21
126.383
 31
0.0
  0
LINE
  8
0
 62
     0
 10
10.6192
 20
126.383
 30
0.0
 11
10.6192
 21
129.613
 31
0.0
  0
LINE
  8
0
 62
     0
 10
10.6192
 20
129.613
 30
0.0
 11
8.89385
 21
129.613
 31
0.0
  0
LINE
  8
0
 62
     0
 10
8.89385
 20
129.613
 30
0.0
 11
8.89385
 21
130.535
 31
0.0
  0
LINE
  8
0
 62
     0
 10
8.89385
 20
130.535
 30
0.0
 11
5.59484
 21
130.535
 31
0.0
  0
LINE
  8
0
 62
     0
 10
5.59484
 20
130.535
 30
0.0
 11
5.59484
 21
129.613
 31
0.0
  0
LINE
  8
0
 62
     0
 10
5.59484
 20
129.613
 30
0.0
 11
3.86955
 21
129.613
 31
0.0
  0
LINE
  8
0
 62
     0
 10
3.86955
 20
129.613
 30
0.0
 11
3.86955
 21
126.383
 31
0.0
  0
LINE
  8
0
 62
     0
 10
3.86955
 20
126.383
 30
0.0
 11
3.04409
 21
126.383
 31
0.0
  0
LINE
  8
0
 62
     0
 10
3.04409
 20
126.383
 30
0.0
 11
3.04409
 21
123.584
 31
0.0
  0
LINE
  8
0
 62
     0
 10
3.04409
 20
123.584
 30
0.0
 11
3.86955
 21
123.584
 31
0.0
  0
LINE
  8
0
 62
     0
 10
3.86955
 20
123.584
 30
0.0
 11
3.86955
 21
117.314
 31
0.0
  0
LINE
  8
0
 62
     0
 10
3.86955
 20
117.314
 30
0.0
 11
5.59484
 21
117.314
 31
0.0
  0
LINE
  8
0
 62
     0
 10
5.59484
 20
117.314
 30
0.0
 11
5.59484
 21
116.333
 31
0.0
  0
LINE
  8
0
 62
     0
 10
5.59484
 20
116.333
 30
0.0
 11
8.89385
 21
116.333
 31
0.0
  0
LINE
  8
0
 62
     0
 10
8.89385
 20
116.333
 30
0.0
 11
8.89385
 21
117.314
 31
0.0
  0
LINE
  8
0
 62
     0
 10
8.89385
 20
117.314
 30
0.0
 11
10.6192
 21
117.314
 31
0.0
  0
LINE
  8
0
 62
     0
 10
10.6192
 20
117.314
 30
0.0
 11
10.6192
 21
121.783
 31
0.0
  0
LINE
  8
0
 62
     0
 10
10.6192
 20
121.783
 30
0.0
 11
12.1447
 21
121.783
 31
0.0
  0
LINE
  8
0
 62
     0
 10
12.1447
 20
121.783
 30
0.0
 11
12.1447
 21
121.183
 31
0.0
  0
LINE
  8
0
 62
     0
 10
12.1447
 20
121.183
 30
0.0
 11
11.344
 21
121.183
 31
0.0
  0
LINE
  8
0
 62
     0
 10
11.344
 20
121.183
 30
0.0
 11
11.344
 21
118.083
 31
0.0
  0
LINE
  8
0
 62
     0
 10
11.344
 20
118.083
 30
0.0
 11
12.1447
 21
118.083
 31
0.0
  0
LINE
  8
0
 62
     0
 10
12.1447
 20
118.083
 30
0.0
 11
12.1447
 21
117.084
 31
0.0
  0
LINE
  8
0
 62
     0
 10
12.1447
 20
117.084
 30
0.0
 11
26.1441
 21
117.084
 31
0.0
  0
LINE
  8
0
 62
     0
 10
26.1441
 20
117.084
 30
0.0
 11
26.1441
 21
118.083
 31
0.0
  0
LINE
  8
0
 62
     0
 10
26.1441
 20
118.083
 30
0.0
 11
26.9448
 21
118.083
 31
0.0
  0
LINE
  8
0
 62
     0
 10
26.9448
 20
118.083
 30
0.0
 11
26.9448
 21
121.183
 31
0.0
  0
LINE
  8
0
 62
     0
 10
26.9448
 20
121.183
 30
0.0
 11
26.1441
 21
121.183
 31
0.0
  0
LINE
  8
0
 62
     0
 10
26.1441
 20
121.183
 30
0.0
 11
26.1441
 21
121.783
 31
0.0
  0
LINE
  8
0
 62
     0
 10
26.1441
 20
121.783
 30
0.0
 11
27.6696
 21
121.783
 31
0.0
  0
LINE
  8
0
 62
     0
 10
27.6696
 20
121.783
 30
0.0
 11
27.6696
 21
117.314
 31
0.0
  0
LINE
  8
0
 62
     0
 10
27.6696
 20
117.314
 30
0.0
 11
29.3949
 21
117.314
 31
0.0
  0
LINE
  8
0
 62
     0
 10
29.3949
 20
117.314
 30
0.0
 11
29.3949
 21
116.333
 31
0.0
  0
LINE
  8
0
 62
     0
 10
29.3949
 20
116.333
 30
0.0
 11
32.694
 21
116.333
 31
0.0
  0
LINE
  8
0
 62
     0
 10
32.694
 20
116.333
 30
0.0
 11
32.694
 21
117.314
 31
0.0
  0
LINE
  8
0
 62
     0
 10
32.694
 20
117.314
 30
0.0
 11
34.4193
 21
117.314
 31
0.0
  0
LINE
  8
0
 62
     0
 10
34.4193
 20
117.314
 30
0.0
 11
34.4193
 21
123.584
 31
0.0
  0
LINE
  8
0
 62
     0
 10
34.4193
 20
123.584
 30
0.0
 11
35.2447
 21
123.584
 31
0.0
  0
LINE
  8
0
 62
     0
 10
35.2447
 20
123.584
 30
0.0
 11
35.2447
 21
126.383
 31
0.0
  0
LINE
  8
0
 62
     0
 10
35.2447
 20
126.383
 30
0.0
 11
34.4193
 21
126.383
 31
0.0
  0
LINE
  8
0
 62
     0
 10
34.4193
 20
126.383
 30
0.0
 11
34.4193
 21
129.613
 31
0.0
  0
LINE
  8
0
 62
     0
 10
34.4193
 20
129.613
 30
0.0
 11
32.694
 21
129.613
 31
0.0
  0
LINE
  8
0
 62
     0
 10
32.694
 20
129.613
 30
0.0
 11
32.694
 21
130.535
 31
0.0
  0
LINE
  8
0
 62
     0
 10
32.694
 20
130.535
 30
0.0
 11
29.3949
 21
130.535
 31
0.0
  0
LINE
  8
0
 62
     0
 10
29.3949
 20
130.535
 30
0.0
 11
29.3949
 21
129.613
 31
0.0
  0
LINE
  8
0
 62
     0
 10
29.3949
 20
129.613
 30
0.0
 11
27.6696
 21
129.613
 31
0.0
  0
LINE
  8
0
 62
     0
 10
27.6696
 20
129.613
 30
0.0
 11
27.6696
 21
126.383
 31
0.0
  0
LINE
  8
0
 62
     0
 10
27.6696
 20
126.383
 30
0.0
 11
26.1441
 21
126.383
 31
0.0
  0
LINE
  8
0
 62
     0
 10
26.1441
 20
126.383
 30
0.0
 11
26.1441
 21
126.983
 31
0.0
  0
LINE
  8
0
 62
     0
 10
26.1441
 20
126.983
 30
0.0
 11
26.9448
 21
126.983
 31
0.0
  0
LINE
  8
0
 62
     0
 10
26.9448
 20
126.983
 30
0.0
 11
26.9448
 21
130.083
 31
0.0
  0
LINE
  8
0
 62
     0
 10
26.9448
 20
130.083
 30
0.0
 11
26.1441
 21
130.083
 31
0.0
  0
LINE
  8
0
 62
     0
 10
26.1441
 20
130.083
 30
0.0
 11
26.1441
 21
131.083
 31
0.0
  0
LINE
  8
0
 62
     0
 10
26.1441
 20
131.083
 30
0.0
 11
12.1447
 21
131.083
 31
0.0
  0
LINE
  8
0
 62
     0
 10
126.445
 20
131.083
 30
0.0
 11
126.445
 21
130.083
 31
0.0
  0
LINE
  8
0
 62
     0
 10
126.445
 20
130.083
 30
0.0
 11
125.644
 21
130.083
 31
0.0
  0
LINE
  8
0
 62
     0
 10
125.644
 20
130.083
 30
0.0
 11
125.644
 21
126.983
 31
0.0
  0
LINE
  8
0
 62
     0
 10
125.644
 20
126.983
 30
0.0
 11
126.445
 21
126.983
 31
0.0
  0
LINE
  8
0
 62
     0
 10
126.445
 20
126.983
 30
0.0
 11
126.445
 21
126.383
 31
0.0
  0
LINE
  8
0
 62
     0
 10
126.445
 20
126.383
 30
0.0
 11
70.1449
 21
126.383
 31
0.0
  0
LINE
  8
0
 62
     0
 10
70.1449
 20
126.383
 30
0.0
 11
70.1449
 21
129.613
 31
0.0
  0
LINE
  8
0
 62
     0
 10
70.1449
 20
129.613
 30
0.0
 11
68.4195
 21
129.613
 31
0.0
  0
LINE
  8
0
 62
     0
 10
68.4195
 20
129.613
 30
0.0
 11
68.4195
 21
130.535
 31
0.0
  0
LINE
  8
0
 62
     0
 10
68.4195
 20
130.535
 30
0.0
 11
65.1178
 21
130.535
 31
0.0
  0
LINE
  8
0
 62
     0
 10
65.1178
 20
130.535
 30
0.0
 11
65.1178
 21
129.613
 31
0.0
  0
LINE
  8
0
 62
     0
 10
65.1178
 20
129.613
 30
0.0
 11
63.3938
 21
129.613
 31
0.0
  0
LINE
  8
0
 62
     0
 10
63.3938
 20
129.613
 30
0.0
 11
63.3938
 21
126.383
 31
0.0
  0
LINE
  8
0
 62
     0
 10
63.3938
 20
126.383
 30
0.0
 11
62.5697
 21
126.383
 31
0.0
  0
LINE
  8
0
 62
     0
 10
62.5697
 20
126.383
 30
0.0
 11
62.5697
 21
123.584
 31
0.0
  0
LINE
  8
0
 62
     0
 10
62.5697
 20
123.584
 30
0.0
 11
63.3938
 21
123.584
 31
0.0
  0
LINE
  8
0
 62
     0
 10
63.3938
 20
123.584
 30
0.0
 11
63.3938
 21
117.314
 31
0.0
  0
LINE
  8
0
 62
     0
 10
63.3938
 20
117.314
 30
0.0
 11
65.1178
 21
117.314
 31
0.0
  0
LINE
  8
0
 62
     0
 10
65.1178
 20
117.314
 30
0.0
 11
65.1178
 21
116.333
 31
0.0
  0
LINE
  8
0
 62
     0
 10
65.1178
 20
116.333
 30
0.0
 11
68.4195
 21
116.333
 31
0.0
  0
LINE
  8
0
 62
     0
 10
68.4195
 20
116.333
 30
0.0
 11
68.4195
 21
117.314
 31
0.0
  0
LINE
  8
0
 62
     0
 10
68.4195
 20
117.314
 30
0.0
 11
70.1449
 21
117.314
 31
0.0
  0
LINE
  8
0
 62
     0
 10
70.1449
 20
117.314
 30
0.0
 11
70.1449
 21
121.783
 31
0.0
  0
LINE
  8
0
 62
     0
 10
70.1449
 20
121.783
 30
0.0
 11
126.445
 21
121.783
 31
0.0
  0
LINE
  8
0
 62
     0
 10
126.445
 20
121.783
 30
0.0
 11
126.445
 21
121.183
 31
0.0
  0
LINE
  8
0
 62
     0
 10
126.445
 20
121.183
 30
0.0
 11
125.644
 21
121.183
 31
0.0
  0
LINE
  8
0
 62
     0
 10
125.644
 20
121.183
 30
0.0
 11
125.644
 21
118.083
 31
0.0
  0
LINE
  8
0
 62
     0
 10
125.644
 20
118.083
 30
0.0
 11
126.445
 21
118.083
 31
0.0
  0
LINE
  8
0
 62
     0
 10
126.445
 20
118.083
 30
0.0
 11
126.445
 21
117.084
 31
0.0
  0
LINE
  8
0
 62
     0
 10
126.445
 20
117.084
 30
0.0
 11
140.444
 21
117.084
 31
0.0
  0
LINE
  8
0
 62
     0
 10
140.444
 20
117.084
 30
0.0
 11
140.444
 21
118.083
 31
0.0
  0
LINE
  8
0
 62
     0
 10
140.444
 20
118.083
 30
0.0
 11
141.245
 21
118.083
 31
0.0
  0
LINE
  8
0
 62
     0
 10
141.245
 20
118.083
 30
0.0
 11
141.245
 21
121.183
 31
0.0
  0
LINE
  8
0
 62
     0
 10
141.245
 20
121.183
 30
0.0
 11
140.444
 21
121.183
 31
0.0
  0
LINE
  8
0
 62
     0
 10
140.444
 20
121.183
 30
0.0
 11
140.444
 21
121.783
 31
0.0
  0
LINE
  8
0
 62
     0
 10
140.444
 20
121.783
 30
0.0
 11
196.744
 21
121.783
 31
0.0
  0
LINE
  8
0
 62
     0
 10
196.744
 20
121.783
 30
0.0
 11
196.744
 21
117.314
 31
0.0
  0
LINE
  8
0
 62
     0
 10
196.744
 20
117.314
 30
0.0
 11
198.469
 21
117.314
 31
0.0
  0
LINE
  8
0
 62
     0
 10
198.469
 20
117.314
 30
0.0
 11
198.469
 21
116.333
 31
0.0
  0
LINE
  8
0
 62
     0
 10
198.469
 20
116.333
 30
0.0
 11
201.769
 21
116.333
 31
0.0
  0
LINE
  8
0
 62
     0
 10
201.769
 20
116.333
 30
0.0
 11
201.769
 21
117.314
 31
0.0
  0
LINE
  8
0
 62
     0
 10
201.769
 20
117.314
 30
0.0
 11
203.494
 21
117.314
 31
0.0
  0
LINE
  8
0
 62
     0
 10
203.494
 20
117.314
 30
0.0
 11
203.494
 21
123.584
 31
0.0
  0
LINE
  8
0
 62
     0
 10
203.494
 20
123.584
 30
0.0
 11
204.319
 21
123.584
 31
0.0
  0
LINE
  8
0
 62
     0
 10
204.319
 20
123.584
 30
0.0
 11
204.319
 21
126.383
 31
0.0
  0
LINE
  8
0
 62
     0
 10
204.319
 20
126.383
 30
0.0
 11
203.494
 21
126.383
 31
0.0
  0
LINE
  8
0
 62
     0
 10
203.494
 20
126.383
 30
0.0
 11
203.494
 21
129.613
 31
0.0
  0
LINE
  8
0
 62
     0
 10
203.494
 20
129.613
 30
0.0
 11
201.769
 21
129.613
 31
0.0
  0
LINE
  8
0
 62
     0
 10
201.769
 20
129.613
 30
0.0
 11
201.769
 21
130.535
 31
0.0
  0
LINE
  8
0
 62
     0
 10
201.769
 20
130.535
 30
0.0
 11
198.469
 21
130.535
 31
0.0
  0
LINE
  8
0
 62
     0
 10
198.469
 20
130.535
 30
0.0
 11
198.469
 21
129.613
 31
0.0
  0
LINE
  8
0
 62
     0
 10
198.469
 20
129.613
 30
0.0
 11
196.744
 21
129.613
 31
0.0
  0
LINE
  8
0
 62
     0
 10
196.744
 20
129.613
 30
0.0
 11
196.744
 21
126.383
 31
0.0
  0
LINE
  8
0
 62
     0
 10
196.744
 20
126.383
 30
0.0
 11
140.444
 21
126.383
 31
0.0
  0
LINE
  8
0
 62
     0
 10
140.444
 20
126.383
 30
0.0
 11
140.444
 21
126.983
 31
0.0
  0
LINE
  8
0
 62
     0
 10
140.444
 20
126.983
 30
0.0
 11
141.245
 21
126.983
 31
0.0
  0
LINE
  8
0
 62
     0
 10
141.245
 20
126.983
 30
0.0
 11
141.245
 21
130.083
 31
0.0
  0
LINE
  8
0
 62
     0
 10
141.245
 20
130.083
 30
0.0
 11
140.444
 21
130.083
 31
0.0
  0
LINE
  8
0
 62
     0
 10
140.444
 20
130.083
 30
0.0
 11
140.444
 21
131.083
 31
0.0
  0
LINE
  8
0
 62
     0
 10
140.444
 20
131.083
 30
0.0
 11
126.445
 21
131.083
 31
0.0
  0
ENDSEC
  0
EOF
