  0
SECTION
  2
HEADER
  9
$ACADVER
  1
AC1009
  9
$FILLMODE
 70
 0
  9
$SPLFRAME
 70
 1
  9
$EXTMIN
 10
0
 20
0
 30
0.0
  9
$EXTMAX
 10
1058.33
 20
1058.33
 30
0.0
  0
ENDSEC
  0
SECTION
  2
TABLES
  0
TABLE
  2
LAYER
 70
1
  0
LAYER
  2
0
 70
     0
 62
     7
  6
CONTINUOUS
  0
ENDTAB
  0
ENDSEC
  0
SECTION
  2
ENTITIES
  0
LINE
  8
0
 62
     0
 10
0.0950846
 20
57.4075
 30
0.0
 11
152.495
 21
57.4075
 31
0.0
  0
LINE
  8
0
 62
     0
 10
152.495
 20
57.4075
 30
0.0
 11
152.495
 21
0.257693
 31
0.0
  0
LINE
  8
0
 62
     0
 10
152.495
 20
0.257693
 30
0.0
 11
0.0950846
 21
0.257693
 31
0.0
  0
LINE
  8
0
 62
     0
 10
0.0950846
 20
0.257693
 30
0.0
 11
0.0950846
 21
57.4075
 31
0.0
  0
LINE
  8
0
 62
     0
 10
22.7652
 20
5.9104
 30
0.0
 11
25.4317
 21
5.9104
 31
0.0
  0
LINE
  8
0
 62
     0
 10
25.4317
 20
5.9104
 30
0.0
 11
25.4317
 21
0.7028
 31
0.0
  0
LINE
  8
0
 62
     0
 10
25.4317
 20
0.7028
 30
0.0
 11
22.7652
 21
0.7028
 31
0.0
  0
LINE
  8
0
 62
     0
 10
22.7652
 20
0.7028
 30
0.0
 11
22.7652
 21
5.9104
 31
0.0
  0
LINE
  8
0
 62
     0
 10
50.957
 20
5.9104
 30
0.0
 11
53.6236
 21
5.9104
 31
0.0
  0
LINE
  8
0
 62
     0
 10
53.6236
 20
5.9104
 30
0.0
 11
53.6236
 21
0.7028
 31
0.0
  0
LINE
  8
0
 62
     0
 10
53.6236
 20
0.7028
 30
0.0
 11
50.957
 21
0.7028
 31
0.0
  0
LINE
  8
0
 62
     0
 10
50.957
 20
0.7028
 30
0.0
 11
50.957
 21
5.9104
 31
0.0
  0
LINE
  8
0
 62
     0
 10
63.2464
 20
5.9104
 30
0.0
 11
65.913
 21
5.9104
 31
0.0
  0
LINE
  8
0
 62
     0
 10
65.913
 20
5.9104
 30
0.0
 11
65.913
 21
0.7028
 31
0.0
  0
LINE
  8
0
 62
     0
 10
65.913
 20
0.7028
 30
0.0
 11
63.2464
 21
0.7028
 31
0.0
  0
LINE
  8
0
 62
     0
 10
63.2464
 20
0.7028
 30
0.0
 11
63.2464
 21
5.9104
 31
0.0
  0
LINE
  8
0
 62
     0
 10
91.4382
 20
5.9104
 30
0.0
 11
94.1049
 21
5.9104
 31
0.0
  0
LINE
  8
0
 62
     0
 10
94.1049
 20
5.9104
 30
0.0
 11
94.1049
 21
0.7028
 31
0.0
  0
LINE
  8
0
 62
     0
 10
94.1049
 20
0.7028
 30
0.0
 11
91.4382
 21
0.7028
 31
0.0
  0
LINE
  8
0
 62
     0
 10
91.4382
 20
0.7028
 30
0.0
 11
91.4382
 21
5.9104
 31
0.0
  0
LINE
  8
0
 62
     0
 10
110.871
 20
5.9104
 30
0.0
 11
113.538
 21
5.9104
 31
0.0
  0
LINE
  8
0
 62
     0
 10
113.538
 20
5.9104
 30
0.0
 11
113.538
 21
0.7028
 31
0.0
  0
LINE
  8
0
 62
     0
 10
113.538
 20
0.7028
 30
0.0
 11
110.871
 21
0.7028
 31
0.0
  0
LINE
  8
0
 62
     0
 10
110.871
 20
0.7028
 30
0.0
 11
110.871
 21
5.9104
 31
0.0
  0
LINE
  8
0
 62
     0
 10
139.063
 20
5.9104
 30
0.0
 11
141.73
 21
5.9104
 31
0.0
  0
LINE
  8
0
 62
     0
 10
141.73
 20
5.9104
 30
0.0
 11
141.73
 21
0.7028
 31
0.0
  0
LINE
  8
0
 62
     0
 10
141.73
 20
0.7028
 30
0.0
 11
139.063
 21
0.7028
 31
0.0
  0
LINE
  8
0
 62
     0
 10
139.063
 20
0.7028
 30
0.0
 11
139.063
 21
5.9104
 31
0.0
  0
LINE
  8
0
 62
     0
 10
1.81901
 20
16.1837
 30
0.0
 11
17.4198
 21
16.1837
 31
0.0
  0
LINE
  8
0
 62
     0
 10
17.4198
 20
16.1837
 30
0.0
 11
17.4198
 21
3.38308
 31
0.0
  0
LINE
  8
0
 62
     0
 10
17.4198
 20
3.38308
 30
0.0
 11
1.81901
 21
3.38308
 31
0.0
  0
LINE
  8
0
 62
     0
 10
1.81901
 20
3.38308
 30
0.0
 11
1.81901
 21
16.1837
 31
0.0
  0
LINE
  8
0
 62
     0
 10
30.394
 20
16.1837
 30
0.0
 11
45.9948
 21
16.1837
 31
0.0
  0
LINE
  8
0
 62
     0
 10
45.9948
 20
16.1837
 30
0.0
 11
45.9948
 21
3.38308
 31
0.0
  0
LINE
  8
0
 62
     0
 10
45.9948
 20
3.38308
 30
0.0
 11
30.394
 21
3.38308
 31
0.0
  0
LINE
  8
0
 62
     0
 10
30.394
 20
3.38308
 30
0.0
 11
30.394
 21
16.1837
 31
0.0
  0
LINE
  8
0
 62
     0
 10
70.8752
 20
16.1837
 30
0.0
 11
86.4761
 21
16.1837
 31
0.0
  0
LINE
  8
0
 62
     0
 10
86.4761
 20
16.1837
 30
0.0
 11
86.4761
 21
3.38308
 31
0.0
  0
LINE
  8
0
 62
     0
 10
86.4761
 20
3.38308
 30
0.0
 11
70.8752
 21
3.38308
 31
0.0
  0
LINE
  8
0
 62
     0
 10
70.8752
 20
3.38308
 30
0.0
 11
70.8752
 21
16.1837
 31
0.0
  0
LINE
  8
0
 62
     0
 10
118.5
 20
16.1837
 30
0.0
 11
134.101
 21
16.1837
 31
0.0
  0
LINE
  8
0
 62
     0
 10
134.101
 20
16.1837
 30
0.0
 11
134.101
 21
3.38308
 31
0.0
  0
LINE
  8
0
 62
     0
 10
134.101
 20
3.38308
 30
0.0
 11
118.5
 21
3.38308
 31
0.0
  0
LINE
  8
0
 62
     0
 10
118.5
 20
3.38308
 30
0.0
 11
118.5
 21
16.1837
 31
0.0
  0
LINE
  8
0
 62
     0
 10
3.49195
 20
24.9604
 30
0.0
 11
6.15707
 21
24.9604
 31
0.0
  0
LINE
  8
0
 62
     0
 10
6.15707
 20
24.9604
 30
0.0
 11
6.15707
 21
19.7528
 31
0.0
  0
LINE
  8
0
 62
     0
 10
6.15707
 20
19.7528
 30
0.0
 11
3.49195
 21
19.7528
 31
0.0
  0
LINE
  8
0
 62
     0
 10
3.49195
 20
19.7528
 30
0.0
 11
3.49195
 21
24.9604
 31
0.0
  0
LINE
  8
0
 62
     0
 10
27.3678
 20
24.9604
 30
0.0
 11
30.033
 21
24.9604
 31
0.0
  0
LINE
  8
0
 62
     0
 10
30.033
 20
24.9604
 30
0.0
 11
30.033
 21
19.7528
 31
0.0
  0
LINE
  8
0
 62
     0
 10
30.033
 20
19.7528
 30
0.0
 11
27.3678
 21
19.7528
 31
0.0
  0
LINE
  8
0
 62
     0
 10
27.3678
 20
19.7528
 30
0.0
 11
27.3678
 21
24.9604
 31
0.0
  0
LINE
  8
0
 62
     0
 10
49.7706
 20
24.9604
 30
0.0
 11
52.4372
 21
24.9604
 31
0.0
  0
LINE
  8
0
 62
     0
 10
52.4372
 20
24.9604
 30
0.0
 11
52.4372
 21
19.7528
 31
0.0
  0
LINE
  8
0
 62
     0
 10
52.4372
 20
19.7528
 30
0.0
 11
49.7706
 21
19.7528
 31
0.0
  0
LINE
  8
0
 62
     0
 10
49.7706
 20
19.7528
 30
0.0
 11
49.7706
 21
24.9604
 31
0.0
  0
LINE
  8
0
 62
     0
 10
133.488
 20
24.9604
 30
0.0
 11
136.154
 21
24.9604
 31
0.0
  0
LINE
  8
0
 62
     0
 10
136.154
 20
24.9604
 30
0.0
 11
136.154
 21
19.7528
 31
0.0
  0
LINE
  8
0
 62
     0
 10
136.154
 20
19.7528
 30
0.0
 11
133.488
 21
19.7528
 31
0.0
  0
LINE
  8
0
 62
     0
 10
133.488
 20
19.7528
 30
0.0
 11
133.488
 21
24.9604
 31
0.0
  0
LINE
  8
0
 62
     0
 10
8.96278
 20
35.2337
 30
0.0
 11
24.5622
 21
35.2337
 31
0.0
  0
LINE
  8
0
 62
     0
 10
24.5622
 20
35.2337
 30
0.0
 11
24.5622
 21
22.4331
 31
0.0
  0
LINE
  8
0
 62
     0
 10
24.5622
 20
22.4331
 30
0.0
 11
8.96278
 21
22.4331
 31
0.0
  0
LINE
  8
0
 62
     0
 10
8.96278
 20
22.4331
 30
0.0
 11
8.96278
 21
35.2337
 31
0.0
  0
LINE
  8
0
 62
     0
 10
85.1627
 20
35.2337
 30
0.0
 11
100.762
 21
35.2337
 31
0.0
  0
LINE
  8
0
 62
     0
 10
100.762
 20
35.2337
 30
0.0
 11
100.762
 21
22.4331
 31
0.0
  0
LINE
  8
0
 62
     0
 10
100.762
 20
22.4331
 30
0.0
 11
85.1627
 21
22.4331
 31
0.0
  0
LINE
  8
0
 62
     0
 10
85.1627
 20
22.4331
 30
0.0
 11
85.1627
 21
35.2337
 31
0.0
  0
LINE
  8
0
 62
     0
 10
43.9484
 20
44.0104
 30
0.0
 11
46.615
 21
44.0104
 31
0.0
  0
LINE
  8
0
 62
     0
 10
46.615
 20
44.0104
 30
0.0
 11
46.615
 21
38.8027
 31
0.0
  0
LINE
  8
0
 62
     0
 10
46.615
 20
38.8027
 30
0.0
 11
43.9484
 21
38.8027
 31
0.0
  0
LINE
  8
0
 62
     0
 10
43.9484
 20
38.8027
 30
0.0
 11
43.9484
 21
44.0104
 31
0.0
  0
LINE
  8
0
 62
     0
 10
134.549
 20
44.0104
 30
0.0
 11
137.214
 21
44.0104
 31
0.0
  0
LINE
  8
0
 62
     0
 10
137.214
 20
44.0104
 30
0.0
 11
137.214
 21
38.8027
 31
0.0
  0
LINE
  8
0
 62
     0
 10
137.214
 20
38.8027
 30
0.0
 11
134.549
 21
38.8027
 31
0.0
  0
LINE
  8
0
 62
     0
 10
134.549
 20
38.8027
 30
0.0
 11
134.549
 21
44.0104
 31
0.0
  0
LINE
  8
0
 62
     0
 10
6.58153
 20
54.2837
 30
0.0
 11
22.1809
 21
54.2837
 31
0.0
  0
LINE
  8
0
 62
     0
 10
22.1809
 20
54.2837
 30
0.0
 11
22.1809
 21
41.4831
 31
0.0
  0
LINE
  8
0
 62
     0
 10
22.1809
 20
41.4831
 30
0.0
 11
6.58153
 21
41.4831
 31
0.0
  0
LINE
  8
0
 62
     0
 10
6.58153
 20
41.4831
 30
0.0
 11
6.58153
 21
54.2837
 31
0.0
  0
LINE
  8
0
 62
     0
 10
82.7814
 20
54.2837
 30
0.0
 11
98.3809
 21
54.2837
 31
0.0
  0
LINE
  8
0
 62
     0
 10
98.3809
 20
54.2837
 30
0.0
 11
98.3809
 21
41.4831
 31
0.0
  0
LINE
  8
0
 62
     0
 10
98.3809
 20
41.4831
 30
0.0
 11
82.7814
 21
41.4831
 31
0.0
  0
LINE
  8
0
 62
     0
 10
82.7814
 20
41.4831
 30
0.0
 11
82.7814
 21
54.2837
 31
0.0
  0
ENDSEC
  0
EOF
