  0
SECTION
  2
HEADER
  9
$ACADVER
  1
AC1009
  9
$FILLMODE
 70
 0
  9
$SPLFRAME
 70
 1
  9
$EXTMIN
 10
0
 20
0
 30
0.0
  9
$EXTMAX
 10
1058.33
 20
1058.33
 30
0.0
  0
ENDSEC
  0
SECTION
  2
TABLES
  0
TABLE
  2
LAYER
 70
1
  0
LAYER
  2
0
 70
     0
 62
     7
  6
CONTINUOUS
  0
ENDTAB
  0
ENDSEC
  0
SECTION
  2
ENTITIES
  0
LINE
  8
0
 62
     0
 10
0.0950846
 20
76.4575
 30
0.0
 11
209.645
 21
76.4575
 31
0.0
  0
LINE
  8
0
 62
     0
 10
209.645
 20
76.4575
 30
0.0
 11
209.645
 21
0.257693
 31
0.0
  0
LINE
  8
0
 62
     0
 10
209.645
 20
0.257693
 30
0.0
 11
0.0950846
 21
0.257693
 31
0.0
  0
LINE
  8
0
 62
     0
 10
0.0950846
 20
0.257693
 30
0.0
 11
0.0950846
 21
76.4575
 31
0.0
  0
LINE
  8
0
 62
     0
 10
175.165
 20
5.9104
 30
0.0
 11
177.832
 21
5.9104
 31
0.0
  0
LINE
  8
0
 62
     0
 10
177.832
 20
5.9104
 30
0.0
 11
177.832
 21
0.7028
 31
0.0
  0
LINE
  8
0
 62
     0
 10
177.832
 20
0.7028
 30
0.0
 11
175.165
 21
0.7028
 31
0.0
  0
LINE
  8
0
 62
     0
 10
175.165
 20
0.7028
 30
0.0
 11
175.165
 21
5.9104
 31
0.0
  0
LINE
  8
0
 62
     0
 10
203.357
 20
5.9104
 30
0.0
 11
206.024
 21
5.9104
 31
0.0
  0
LINE
  8
0
 62
     0
 10
206.024
 20
5.9104
 30
0.0
 11
206.024
 21
0.7028
 31
0.0
  0
LINE
  8
0
 62
     0
 10
206.024
 20
0.7028
 30
0.0
 11
203.357
 21
0.7028
 31
0.0
  0
LINE
  8
0
 62
     0
 10
203.357
 20
0.7028
 30
0.0
 11
203.357
 21
5.9104
 31
0.0
  0
LINE
  8
0
 62
     0
 10
106.594
 20
16.1837
 30
0.0
 11
106.594
 21
12.0826
 31
0.0
  0
LINE
  8
0
 62
     0
 10
106.594
 20
12.0826
 30
0.0
 11
105.869
 21
12.0826
 31
0.0
  0
LINE
  8
0
 62
     0
 10
105.869
 20
12.0826
 30
0.0
 11
105.869
 21
15.3128
 31
0.0
  0
LINE
  8
0
 62
     0
 10
105.869
 20
15.3128
 30
0.0
 11
99.1196
 21
15.3128
 31
0.0
  0
LINE
  8
0
 62
     0
 10
99.1196
 20
15.3128
 30
0.0
 11
99.1196
 21
12.0826
 31
0.0
  0
LINE
  8
0
 62
     0
 10
99.1196
 20
12.0826
 30
0.0
 11
98.2941
 21
12.0826
 31
0.0
  0
LINE
  8
0
 62
     0
 10
98.2941
 20
12.0826
 30
0.0
 11
98.2941
 21
9.28384
 31
0.0
  0
LINE
  8
0
 62
     0
 10
98.2941
 20
9.28384
 30
0.0
 11
99.1196
 21
9.28384
 31
0.0
  0
LINE
  8
0
 62
     0
 10
99.1196
 20
9.28384
 30
0.0
 11
99.1196
 21
3.01377
 31
0.0
  0
LINE
  8
0
 62
     0
 10
99.1196
 20
3.01377
 30
0.0
 11
100.845
 21
3.01377
 31
0.0
  0
LINE
  8
0
 62
     0
 10
100.845
 20
3.01377
 30
0.0
 11
100.845
 21
1.8135
 31
0.0
  0
LINE
  8
0
 62
     0
 10
100.845
 20
1.8135
 30
0.0
 11
104.144
 21
1.8135
 31
0.0
  0
LINE
  8
0
 62
     0
 10
104.144
 20
1.8135
 30
0.0
 11
104.144
 21
3.01377
 31
0.0
  0
LINE
  8
0
 62
     0
 10
104.144
 20
3.01377
 30
0.0
 11
105.869
 21
3.01377
 31
0.0
  0
LINE
  8
0
 62
     0
 10
105.869
 20
3.01377
 30
0.0
 11
105.869
 21
7.48273
 31
0.0
  0
LINE
  8
0
 62
     0
 10
105.869
 20
7.48273
 30
0.0
 11
106.594
 21
7.48273
 31
0.0
  0
LINE
  8
0
 62
     0
 10
106.594
 20
7.48273
 30
0.0
 11
106.594
 21
3.38308
 31
0.0
  0
LINE
  8
0
 62
     0
 10
106.594
 20
3.38308
 30
0.0
 11
122.195
 21
3.38308
 31
0.0
  0
LINE
  8
0
 62
     0
 10
122.195
 20
3.38308
 30
0.0
 11
122.195
 21
7.48273
 31
0.0
  0
LINE
  8
0
 62
     0
 10
122.195
 20
7.48273
 30
0.0
 11
122.92
 21
7.48273
 31
0.0
  0
LINE
  8
0
 62
     0
 10
122.92
 20
7.48273
 30
0.0
 11
122.92
 21
3.01377
 31
0.0
  0
LINE
  8
0
 62
     0
 10
122.92
 20
3.01377
 30
0.0
 11
124.645
 21
3.01377
 31
0.0
  0
LINE
  8
0
 62
     0
 10
124.645
 20
3.01377
 30
0.0
 11
124.645
 21
1.8135
 31
0.0
  0
LINE
  8
0
 62
     0
 10
124.645
 20
1.8135
 30
0.0
 11
127.944
 21
1.8135
 31
0.0
  0
LINE
  8
0
 62
     0
 10
127.944
 20
1.8135
 30
0.0
 11
127.944
 21
3.01377
 31
0.0
  0
LINE
  8
0
 62
     0
 10
127.944
 20
3.01377
 30
0.0
 11
129.669
 21
3.01377
 31
0.0
  0
LINE
  8
0
 62
     0
 10
129.669
 20
3.01377
 30
0.0
 11
129.669
 21
9.28384
 31
0.0
  0
LINE
  8
0
 62
     0
 10
129.669
 20
9.28384
 30
0.0
 11
130.495
 21
9.28384
 31
0.0
  0
LINE
  8
0
 62
     0
 10
130.495
 20
9.28384
 30
0.0
 11
130.495
 21
12.0826
 31
0.0
  0
LINE
  8
0
 62
     0
 10
130.495
 20
12.0826
 30
0.0
 11
129.669
 21
12.0826
 31
0.0
  0
LINE
  8
0
 62
     0
 10
129.669
 20
12.0826
 30
0.0
 11
129.669
 21
15.3128
 31
0.0
  0
LINE
  8
0
 62
     0
 10
129.669
 20
15.3128
 30
0.0
 11
122.92
 21
15.3128
 31
0.0
  0
LINE
  8
0
 62
     0
 10
122.92
 20
15.3128
 30
0.0
 11
122.92
 21
12.0826
 31
0.0
  0
LINE
  8
0
 62
     0
 10
122.92
 20
12.0826
 30
0.0
 11
122.195
 21
12.0826
 31
0.0
  0
LINE
  8
0
 62
     0
 10
122.195
 20
12.0826
 30
0.0
 11
122.195
 21
16.1837
 31
0.0
  0
LINE
  8
0
 62
     0
 10
122.195
 20
16.1837
 30
0.0
 11
106.594
 21
16.1837
 31
0.0
  0
LINE
  8
0
 62
     0
 10
62.7447
 20
16.2347
 30
0.0
 11
62.7447
 21
15.3128
 31
0.0
  0
LINE
  8
0
 62
     0
 10
62.7447
 20
15.3128
 30
0.0
 11
61.0196
 21
15.3128
 31
0.0
  0
LINE
  8
0
 62
     0
 10
61.0196
 20
15.3128
 30
0.0
 11
61.0196
 21
12.0826
 31
0.0
  0
LINE
  8
0
 62
     0
 10
61.0196
 20
12.0826
 30
0.0
 11
60.1941
 21
12.0826
 31
0.0
  0
LINE
  8
0
 62
     0
 10
60.1941
 20
12.0826
 30
0.0
 11
60.1941
 21
9.28384
 31
0.0
  0
LINE
  8
0
 62
     0
 10
60.1941
 20
9.28384
 30
0.0
 11
61.0196
 21
9.28384
 31
0.0
  0
LINE
  8
0
 62
     0
 10
61.0196
 20
9.28384
 30
0.0
 11
61.0196
 21
3.01377
 31
0.0
  0
LINE
  8
0
 62
     0
 10
61.0196
 20
3.01377
 30
0.0
 11
62.7447
 21
3.01377
 31
0.0
  0
LINE
  8
0
 62
     0
 10
62.7447
 20
3.01377
 30
0.0
 11
62.7447
 21
2.03261
 31
0.0
  0
LINE
  8
0
 62
     0
 10
62.7447
 20
2.03261
 30
0.0
 11
66.0439
 21
2.03261
 31
0.0
  0
LINE
  8
0
 62
     0
 10
66.0439
 20
2.03261
 30
0.0
 11
66.0439
 21
3.01377
 31
0.0
  0
LINE
  8
0
 62
     0
 10
66.0439
 20
3.01377
 30
0.0
 11
67.7693
 21
3.01377
 31
0.0
  0
LINE
  8
0
 62
     0
 10
67.7693
 20
3.01377
 30
0.0
 11
67.7693
 21
7.48273
 31
0.0
  0
LINE
  8
0
 62
     0
 10
67.7693
 20
7.48273
 30
0.0
 11
68.4939
 21
7.48273
 31
0.0
  0
LINE
  8
0
 62
     0
 10
68.4939
 20
7.48273
 30
0.0
 11
68.4939
 21
3.38308
 31
0.0
  0
LINE
  8
0
 62
     0
 10
68.4939
 20
3.38308
 30
0.0
 11
84.0948
 21
3.38308
 31
0.0
  0
LINE
  8
0
 62
     0
 10
84.0948
 20
3.38308
 30
0.0
 11
84.0948
 21
7.48273
 31
0.0
  0
LINE
  8
0
 62
     0
 10
84.0948
 20
7.48273
 30
0.0
 11
84.8198
 21
7.48273
 31
0.0
  0
LINE
  8
0
 62
     0
 10
84.8198
 20
7.48273
 30
0.0
 11
84.8198
 21
3.01377
 31
0.0
  0
LINE
  8
0
 62
     0
 10
84.8198
 20
3.01377
 30
0.0
 11
86.5449
 21
3.01377
 31
0.0
  0
LINE
  8
0
 62
     0
 10
86.5449
 20
3.01377
 30
0.0
 11
86.5449
 21
2.03261
 31
0.0
  0
LINE
  8
0
 62
     0
 10
86.5449
 20
2.03261
 30
0.0
 11
89.844
 21
2.03261
 31
0.0
  0
LINE
  8
0
 62
     0
 10
89.844
 20
2.03261
 30
0.0
 11
89.844
 21
3.01377
 31
0.0
  0
LINE
  8
0
 62
     0
 10
89.844
 20
3.01377
 30
0.0
 11
91.5691
 21
3.01377
 31
0.0
  0
LINE
  8
0
 62
     0
 10
91.5691
 20
3.01377
 30
0.0
 11
91.5691
 21
9.28384
 31
0.0
  0
LINE
  8
0
 62
     0
 10
91.5691
 20
9.28384
 30
0.0
 11
92.3946
 21
9.28384
 31
0.0
  0
LINE
  8
0
 62
     0
 10
92.3946
 20
9.28384
 30
0.0
 11
92.3946
 21
12.0826
 31
0.0
  0
LINE
  8
0
 62
     0
 10
92.3946
 20
12.0826
 30
0.0
 11
91.5691
 21
12.0826
 31
0.0
  0
LINE
  8
0
 62
     0
 10
91.5691
 20
12.0826
 30
0.0
 11
91.5691
 21
15.3128
 31
0.0
  0
LINE
  8
0
 62
     0
 10
91.5691
 20
15.3128
 30
0.0
 11
89.844
 21
15.3128
 31
0.0
  0
LINE
  8
0
 62
     0
 10
89.844
 20
15.3128
 30
0.0
 11
89.844
 21
16.2347
 31
0.0
  0
LINE
  8
0
 62
     0
 10
89.844
 20
16.2347
 30
0.0
 11
86.5449
 21
16.2347
 31
0.0
  0
LINE
  8
0
 62
     0
 10
86.5449
 20
16.2347
 30
0.0
 11
86.5449
 21
15.3128
 31
0.0
  0
LINE
  8
0
 62
     0
 10
86.5449
 20
15.3128
 30
0.0
 11
84.8198
 21
15.3128
 31
0.0
  0
LINE
  8
0
 62
     0
 10
84.8198
 20
15.3128
 30
0.0
 11
84.8198
 21
12.0826
 31
0.0
  0
LINE
  8
0
 62
     0
 10
84.8198
 20
12.0826
 30
0.0
 11
84.0948
 21
12.0826
 31
0.0
  0
LINE
  8
0
 62
     0
 10
84.0948
 20
12.0826
 30
0.0
 11
84.0948
 21
16.1837
 31
0.0
  0
LINE
  8
0
 62
     0
 10
84.0948
 20
16.1837
 30
0.0
 11
68.4939
 21
16.1837
 31
0.0
  0
LINE
  8
0
 62
     0
 10
68.4939
 20
16.1837
 30
0.0
 11
68.4939
 21
12.0826
 31
0.0
  0
LINE
  8
0
 62
     0
 10
68.4939
 20
12.0826
 30
0.0
 11
67.7693
 21
12.0826
 31
0.0
  0
LINE
  8
0
 62
     0
 10
67.7693
 20
12.0826
 30
0.0
 11
67.7693
 21
15.3128
 31
0.0
  0
LINE
  8
0
 62
     0
 10
67.7693
 20
15.3128
 30
0.0
 11
66.0439
 21
15.3128
 31
0.0
  0
LINE
  8
0
 62
     0
 10
66.0439
 20
15.3128
 30
0.0
 11
66.0439
 21
16.2347
 31
0.0
  0
LINE
  8
0
 62
     0
 10
66.0439
 20
16.2347
 30
0.0
 11
62.7447
 21
16.2347
 31
0.0
  0
LINE
  8
0
 62
     0
 10
138.945
 20
16.2347
 30
0.0
 11
142.244
 21
16.2347
 31
0.0
  0
LINE
  8
0
 62
     0
 10
142.244
 20
16.2347
 30
0.0
 11
142.244
 21
2.03261
 31
0.0
  0
LINE
  8
0
 62
     0
 10
142.244
 20
2.03261
 30
0.0
 11
138.945
 21
2.03261
 31
0.0
  0
LINE
  8
0
 62
     0
 10
138.945
 20
2.03261
 30
0.0
 11
138.945
 21
16.2347
 31
0.0
  0
LINE
  8
0
 62
     0
 10
162.745
 20
16.2347
 30
0.0
 11
166.044
 21
16.2347
 31
0.0
  0
LINE
  8
0
 62
     0
 10
166.044
 20
16.2347
 30
0.0
 11
166.044
 21
2.03261
 31
0.0
  0
LINE
  8
0
 62
     0
 10
166.044
 20
2.03261
 30
0.0
 11
162.745
 21
2.03261
 31
0.0
  0
LINE
  8
0
 62
     0
 10
162.745
 20
2.03261
 30
0.0
 11
162.745
 21
16.2347
 31
0.0
  0
LINE
  8
0
 62
     0
 10
1.81901
 20
16.1837
 30
0.0
 11
17.4198
 21
16.1837
 31
0.0
  0
LINE
  8
0
 62
     0
 10
17.4198
 20
16.1837
 30
0.0
 11
17.4198
 21
3.38308
 31
0.0
  0
LINE
  8
0
 62
     0
 10
17.4198
 20
3.38308
 30
0.0
 11
1.81901
 21
3.38308
 31
0.0
  0
LINE
  8
0
 62
     0
 10
1.81901
 20
3.38308
 30
0.0
 11
1.81901
 21
16.1837
 31
0.0
  0
LINE
  8
0
 62
     0
 10
30.394
 20
16.1837
 30
0.0
 11
45.9948
 21
16.1837
 31
0.0
  0
LINE
  8
0
 62
     0
 10
45.9948
 20
16.1837
 30
0.0
 11
45.9948
 21
3.38308
 31
0.0
  0
LINE
  8
0
 62
     0
 10
45.9948
 20
3.38308
 30
0.0
 11
30.394
 21
3.38308
 31
0.0
  0
LINE
  8
0
 62
     0
 10
30.394
 20
3.38308
 30
0.0
 11
30.394
 21
16.1837
 31
0.0
  0
LINE
  8
0
 62
     0
 10
144.694
 20
16.1837
 30
0.0
 11
160.295
 21
16.1837
 31
0.0
  0
LINE
  8
0
 62
     0
 10
160.295
 20
16.1837
 30
0.0
 11
160.295
 21
3.38308
 31
0.0
  0
LINE
  8
0
 62
     0
 10
160.295
 20
3.38308
 30
0.0
 11
144.694
 21
3.38308
 31
0.0
  0
LINE
  8
0
 62
     0
 10
144.694
 20
3.38308
 30
0.0
 11
144.694
 21
16.1837
 31
0.0
  0
LINE
  8
0
 62
     0
 10
182.794
 20
16.1837
 30
0.0
 11
198.395
 21
16.1837
 31
0.0
  0
LINE
  8
0
 62
     0
 10
198.395
 20
16.1837
 30
0.0
 11
198.395
 21
3.38308
 31
0.0
  0
LINE
  8
0
 62
     0
 10
198.395
 20
3.38308
 30
0.0
 11
182.794
 21
3.38308
 31
0.0
  0
LINE
  8
0
 62
     0
 10
182.794
 20
3.38308
 30
0.0
 11
182.794
 21
16.1837
 31
0.0
  0
LINE
  8
0
 62
     0
 10
175.165
 20
24.9604
 30
0.0
 11
177.832
 21
24.9604
 31
0.0
  0
LINE
  8
0
 62
     0
 10
177.832
 20
24.9604
 30
0.0
 11
177.832
 21
19.7528
 31
0.0
  0
LINE
  8
0
 62
     0
 10
177.832
 20
19.7528
 30
0.0
 11
175.165
 21
19.7528
 31
0.0
  0
LINE
  8
0
 62
     0
 10
175.165
 20
19.7528
 30
0.0
 11
175.165
 21
24.9604
 31
0.0
  0
LINE
  8
0
 62
     0
 10
203.357
 20
24.9604
 30
0.0
 11
206.024
 21
24.9604
 31
0.0
  0
LINE
  8
0
 62
     0
 10
206.024
 20
24.9604
 30
0.0
 11
206.024
 21
19.7528
 31
0.0
  0
LINE
  8
0
 62
     0
 10
206.024
 20
19.7528
 30
0.0
 11
203.357
 21
19.7528
 31
0.0
  0
LINE
  8
0
 62
     0
 10
203.357
 20
19.7528
 30
0.0
 11
203.357
 21
24.9604
 31
0.0
  0
LINE
  8
0
 62
     0
 10
107.395
 20
35.833
 30
0.0
 11
107.395
 21
34.8327
 31
0.0
  0
LINE
  8
0
 62
     0
 10
107.395
 20
34.8327
 30
0.0
 11
106.594
 21
34.8327
 31
0.0
  0
LINE
  8
0
 62
     0
 10
106.594
 20
34.8327
 30
0.0
 11
106.594
 21
31.7335
 31
0.0
  0
LINE
  8
0
 62
     0
 10
106.594
 20
31.7335
 30
0.0
 11
107.395
 21
31.7335
 31
0.0
  0
LINE
  8
0
 62
     0
 10
107.395
 20
31.7335
 30
0.0
 11
107.395
 21
31.1326
 31
0.0
  0
LINE
  8
0
 62
     0
 10
107.395
 20
31.1326
 30
0.0
 11
105.869
 21
31.1326
 31
0.0
  0
LINE
  8
0
 62
     0
 10
105.869
 20
31.1326
 30
0.0
 11
105.869
 21
34.3628
 31
0.0
  0
LINE
  8
0
 62
     0
 10
105.869
 20
34.3628
 30
0.0
 11
99.1196
 21
34.3628
 31
0.0
  0
LINE
  8
0
 62
     0
 10
99.1196
 20
34.3628
 30
0.0
 11
99.1196
 21
31.1326
 31
0.0
  0
LINE
  8
0
 62
     0
 10
99.1196
 20
31.1326
 30
0.0
 11
98.2941
 21
31.1326
 31
0.0
  0
LINE
  8
0
 62
     0
 10
98.2941
 20
31.1326
 30
0.0
 11
98.2941
 21
28.3338
 31
0.0
  0
LINE
  8
0
 62
     0
 10
98.2941
 20
28.3338
 30
0.0
 11
99.1196
 21
28.3338
 31
0.0
  0
LINE
  8
0
 62
     0
 10
99.1196
 20
28.3338
 30
0.0
 11
99.1196
 21
22.0638
 31
0.0
  0
LINE
  8
0
 62
     0
 10
99.1196
 20
22.0638
 30
0.0
 11
100.845
 21
22.0638
 31
0.0
  0
LINE
  8
0
 62
     0
 10
100.845
 20
22.0638
 30
0.0
 11
100.845
 21
20.8635
 31
0.0
  0
LINE
  8
0
 62
     0
 10
100.845
 20
20.8635
 30
0.0
 11
104.144
 21
20.8635
 31
0.0
  0
LINE
  8
0
 62
     0
 10
104.144
 20
20.8635
 30
0.0
 11
104.144
 21
22.0638
 31
0.0
  0
LINE
  8
0
 62
     0
 10
104.144
 20
22.0638
 30
0.0
 11
105.869
 21
22.0638
 31
0.0
  0
LINE
  8
0
 62
     0
 10
105.869
 20
22.0638
 30
0.0
 11
105.869
 21
26.5327
 31
0.0
  0
LINE
  8
0
 62
     0
 10
105.869
 20
26.5327
 30
0.0
 11
107.395
 21
26.5327
 31
0.0
  0
LINE
  8
0
 62
     0
 10
107.395
 20
26.5327
 30
0.0
 11
107.395
 21
25.9333
 31
0.0
  0
LINE
  8
0
 62
     0
 10
107.395
 20
25.9333
 30
0.0
 11
106.594
 21
25.9333
 31
0.0
  0
LINE
  8
0
 62
     0
 10
106.594
 20
25.9333
 30
0.0
 11
106.594
 21
22.8327
 31
0.0
  0
LINE
  8
0
 62
     0
 10
106.594
 20
22.8327
 30
0.0
 11
107.395
 21
22.8327
 31
0.0
  0
LINE
  8
0
 62
     0
 10
107.395
 20
22.8327
 30
0.0
 11
107.395
 21
21.8336
 31
0.0
  0
LINE
  8
0
 62
     0
 10
107.395
 20
21.8336
 30
0.0
 11
121.394
 21
21.8336
 31
0.0
  0
LINE
  8
0
 62
     0
 10
121.394
 20
21.8336
 30
0.0
 11
121.394
 21
22.8327
 31
0.0
  0
LINE
  8
0
 62
     0
 10
121.394
 20
22.8327
 30
0.0
 11
122.195
 21
22.8327
 31
0.0
  0
LINE
  8
0
 62
     0
 10
122.195
 20
22.8327
 30
0.0
 11
122.195
 21
25.9333
 31
0.0
  0
LINE
  8
0
 62
     0
 10
122.195
 20
25.9333
 30
0.0
 11
121.394
 21
25.9333
 31
0.0
  0
LINE
  8
0
 62
     0
 10
121.394
 20
25.9333
 30
0.0
 11
121.394
 21
26.5327
 31
0.0
  0
LINE
  8
0
 62
     0
 10
121.394
 20
26.5327
 30
0.0
 11
122.92
 21
26.5327
 31
0.0
  0
LINE
  8
0
 62
     0
 10
122.92
 20
26.5327
 30
0.0
 11
122.92
 21
22.0638
 31
0.0
  0
LINE
  8
0
 62
     0
 10
122.92
 20
22.0638
 30
0.0
 11
124.645
 21
22.0638
 31
0.0
  0
LINE
  8
0
 62
     0
 10
124.645
 20
22.0638
 30
0.0
 11
124.645
 21
20.8635
 31
0.0
  0
LINE
  8
0
 62
     0
 10
124.645
 20
20.8635
 30
0.0
 11
127.944
 21
20.8635
 31
0.0
  0
LINE
  8
0
 62
     0
 10
127.944
 20
20.8635
 30
0.0
 11
127.944
 21
22.0638
 31
0.0
  0
LINE
  8
0
 62
     0
 10
127.944
 20
22.0638
 30
0.0
 11
129.669
 21
22.0638
 31
0.0
  0
LINE
  8
0
 62
     0
 10
129.669
 20
22.0638
 30
0.0
 11
129.669
 21
28.3338
 31
0.0
  0
LINE
  8
0
 62
     0
 10
129.669
 20
28.3338
 30
0.0
 11
130.495
 21
28.3338
 31
0.0
  0
LINE
  8
0
 62
     0
 10
130.495
 20
28.3338
 30
0.0
 11
130.495
 21
31.1326
 31
0.0
  0
LINE
  8
0
 62
     0
 10
130.495
 20
31.1326
 30
0.0
 11
129.669
 21
31.1326
 31
0.0
  0
LINE
  8
0
 62
     0
 10
129.669
 20
31.1326
 30
0.0
 11
129.669
 21
34.3628
 31
0.0
  0
LINE
  8
0
 62
     0
 10
129.669
 20
34.3628
 30
0.0
 11
122.92
 21
34.3628
 31
0.0
  0
LINE
  8
0
 62
     0
 10
122.92
 20
34.3628
 30
0.0
 11
122.92
 21
31.1326
 31
0.0
  0
LINE
  8
0
 62
     0
 10
122.92
 20
31.1326
 30
0.0
 11
121.394
 21
31.1326
 31
0.0
  0
LINE
  8
0
 62
     0
 10
121.394
 20
31.1326
 30
0.0
 11
121.394
 21
31.7335
 31
0.0
  0
LINE
  8
0
 62
     0
 10
121.394
 20
31.7335
 30
0.0
 11
122.195
 21
31.7335
 31
0.0
  0
LINE
  8
0
 62
     0
 10
122.195
 20
31.7335
 30
0.0
 11
122.195
 21
34.8327
 31
0.0
  0
LINE
  8
0
 62
     0
 10
122.195
 20
34.8327
 30
0.0
 11
121.394
 21
34.8327
 31
0.0
  0
LINE
  8
0
 62
     0
 10
121.394
 20
34.8327
 30
0.0
 11
121.394
 21
35.833
 31
0.0
  0
LINE
  8
0
 62
     0
 10
121.394
 20
35.833
 30
0.0
 11
107.395
 21
35.833
 31
0.0
  0
LINE
  8
0
 62
     0
 10
69.2947
 20
35.833
 30
0.0
 11
69.2947
 21
34.8327
 31
0.0
  0
LINE
  8
0
 62
     0
 10
69.2947
 20
34.8327
 30
0.0
 11
68.4939
 21
34.8327
 31
0.0
  0
LINE
  8
0
 62
     0
 10
68.4939
 20
34.8327
 30
0.0
 11
68.4939
 21
31.7335
 31
0.0
  0
LINE
  8
0
 62
     0
 10
68.4939
 20
31.7335
 30
0.0
 11
69.2947
 21
31.7335
 31
0.0
  0
LINE
  8
0
 62
     0
 10
69.2947
 20
31.7335
 30
0.0
 11
69.2947
 21
31.1326
 31
0.0
  0
LINE
  8
0
 62
     0
 10
69.2947
 20
31.1326
 30
0.0
 11
67.7693
 21
31.1326
 31
0.0
  0
LINE
  8
0
 62
     0
 10
67.7693
 20
31.1326
 30
0.0
 11
67.7693
 21
34.3628
 31
0.0
  0
LINE
  8
0
 62
     0
 10
67.7693
 20
34.3628
 30
0.0
 11
66.0439
 21
34.3628
 31
0.0
  0
LINE
  8
0
 62
     0
 10
66.0439
 20
34.3628
 30
0.0
 11
66.0439
 21
35.2834
 31
0.0
  0
LINE
  8
0
 62
     0
 10
66.0439
 20
35.2834
 30
0.0
 11
62.7447
 21
35.2834
 31
0.0
  0
LINE
  8
0
 62
     0
 10
62.7447
 20
35.2834
 30
0.0
 11
62.7447
 21
34.3628
 31
0.0
  0
LINE
  8
0
 62
     0
 10
62.7447
 20
34.3628
 30
0.0
 11
61.0196
 21
34.3628
 31
0.0
  0
LINE
  8
0
 62
     0
 10
61.0196
 20
34.3628
 30
0.0
 11
61.0196
 21
31.1326
 31
0.0
  0
LINE
  8
0
 62
     0
 10
61.0196
 20
31.1326
 30
0.0
 11
60.1941
 21
31.1326
 31
0.0
  0
LINE
  8
0
 62
     0
 10
60.1941
 20
31.1326
 30
0.0
 11
60.1941
 21
28.3338
 31
0.0
  0
LINE
  8
0
 62
     0
 10
60.1941
 20
28.3338
 30
0.0
 11
61.0196
 21
28.3338
 31
0.0
  0
LINE
  8
0
 62
     0
 10
61.0196
 20
28.3338
 30
0.0
 11
61.0196
 21
22.0638
 31
0.0
  0
LINE
  8
0
 62
     0
 10
61.0196
 20
22.0638
 30
0.0
 11
62.7447
 21
22.0638
 31
0.0
  0
LINE
  8
0
 62
     0
 10
62.7447
 20
22.0638
 30
0.0
 11
62.7447
 21
21.0826
 31
0.0
  0
LINE
  8
0
 62
     0
 10
62.7447
 20
21.0826
 30
0.0
 11
66.0439
 21
21.0826
 31
0.0
  0
LINE
  8
0
 62
     0
 10
66.0439
 20
21.0826
 30
0.0
 11
66.0439
 21
22.0638
 31
0.0
  0
LINE
  8
0
 62
     0
 10
66.0439
 20
22.0638
 30
0.0
 11
67.7693
 21
22.0638
 31
0.0
  0
LINE
  8
0
 62
     0
 10
67.7693
 20
22.0638
 30
0.0
 11
67.7693
 21
26.5327
 31
0.0
  0
LINE
  8
0
 62
     0
 10
67.7693
 20
26.5327
 30
0.0
 11
69.2947
 21
26.5327
 31
0.0
  0
LINE
  8
0
 62
     0
 10
69.2947
 20
26.5327
 30
0.0
 11
69.2947
 21
25.9333
 31
0.0
  0
LINE
  8
0
 62
     0
 10
69.2947
 20
25.9333
 30
0.0
 11
68.4939
 21
25.9333
 31
0.0
  0
LINE
  8
0
 62
     0
 10
68.4939
 20
25.9333
 30
0.0
 11
68.4939
 21
22.8327
 31
0.0
  0
LINE
  8
0
 62
     0
 10
68.4939
 20
22.8327
 30
0.0
 11
69.2947
 21
22.8327
 31
0.0
  0
LINE
  8
0
 62
     0
 10
69.2947
 20
22.8327
 30
0.0
 11
69.2947
 21
21.8336
 31
0.0
  0
LINE
  8
0
 62
     0
 10
69.2947
 20
21.8336
 30
0.0
 11
83.294
 21
21.8336
 31
0.0
  0
LINE
  8
0
 62
     0
 10
83.294
 20
21.8336
 30
0.0
 11
83.294
 21
22.8327
 31
0.0
  0
LINE
  8
0
 62
     0
 10
83.294
 20
22.8327
 30
0.0
 11
84.0948
 21
22.8327
 31
0.0
  0
LINE
  8
0
 62
     0
 10
84.0948
 20
22.8327
 30
0.0
 11
84.0948
 21
25.9333
 31
0.0
  0
LINE
  8
0
 62
     0
 10
84.0948
 20
25.9333
 30
0.0
 11
83.294
 21
25.9333
 31
0.0
  0
LINE
  8
0
 62
     0
 10
83.294
 20
25.9333
 30
0.0
 11
83.294
 21
26.5327
 31
0.0
  0
LINE
  8
0
 62
     0
 10
83.294
 20
26.5327
 30
0.0
 11
84.8198
 21
26.5327
 31
0.0
  0
LINE
  8
0
 62
     0
 10
84.8198
 20
26.5327
 30
0.0
 11
84.8198
 21
22.0638
 31
0.0
  0
LINE
  8
0
 62
     0
 10
84.8198
 20
22.0638
 30
0.0
 11
86.5449
 21
22.0638
 31
0.0
  0
LINE
  8
0
 62
     0
 10
86.5449
 20
22.0638
 30
0.0
 11
86.5449
 21
21.0826
 31
0.0
  0
LINE
  8
0
 62
     0
 10
86.5449
 20
21.0826
 30
0.0
 11
89.844
 21
21.0826
 31
0.0
  0
LINE
  8
0
 62
     0
 10
89.844
 20
21.0826
 30
0.0
 11
89.844
 21
22.0638
 31
0.0
  0
LINE
  8
0
 62
     0
 10
89.844
 20
22.0638
 30
0.0
 11
91.5691
 21
22.0638
 31
0.0
  0
LINE
  8
0
 62
     0
 10
91.5691
 20
22.0638
 30
0.0
 11
91.5691
 21
28.3338
 31
0.0
  0
LINE
  8
0
 62
     0
 10
91.5691
 20
28.3338
 30
0.0
 11
92.3946
 21
28.3338
 31
0.0
  0
LINE
  8
0
 62
     0
 10
92.3946
 20
28.3338
 30
0.0
 11
92.3946
 21
31.1326
 31
0.0
  0
LINE
  8
0
 62
     0
 10
92.3946
 20
31.1326
 30
0.0
 11
91.5691
 21
31.1326
 31
0.0
  0
LINE
  8
0
 62
     0
 10
91.5691
 20
31.1326
 30
0.0
 11
91.5691
 21
34.3628
 31
0.0
  0
LINE
  8
0
 62
     0
 10
91.5691
 20
34.3628
 30
0.0
 11
89.844
 21
34.3628
 31
0.0
  0
LINE
  8
0
 62
     0
 10
89.844
 20
34.3628
 30
0.0
 11
89.844
 21
35.2834
 31
0.0
  0
LINE
  8
0
 62
     0
 10
89.844
 20
35.2834
 30
0.0
 11
86.5449
 21
35.2834
 31
0.0
  0
LINE
  8
0
 62
     0
 10
86.5449
 20
35.2834
 30
0.0
 11
86.5449
 21
34.3628
 31
0.0
  0
LINE
  8
0
 62
     0
 10
86.5449
 20
34.3628
 30
0.0
 11
84.8198
 21
34.3628
 31
0.0
  0
LINE
  8
0
 62
     0
 10
84.8198
 20
34.3628
 30
0.0
 11
84.8198
 21
31.1326
 31
0.0
  0
LINE
  8
0
 62
     0
 10
84.8198
 20
31.1326
 30
0.0
 11
83.294
 21
31.1326
 31
0.0
  0
LINE
  8
0
 62
     0
 10
83.294
 20
31.1326
 30
0.0
 11
83.294
 21
31.7335
 31
0.0
  0
LINE
  8
0
 62
     0
 10
83.294
 20
31.7335
 30
0.0
 11
84.0948
 21
31.7335
 31
0.0
  0
LINE
  8
0
 62
     0
 10
84.0948
 20
31.7335
 30
0.0
 11
84.0948
 21
34.8327
 31
0.0
  0
LINE
  8
0
 62
     0
 10
84.0948
 20
34.8327
 30
0.0
 11
83.294
 21
34.8327
 31
0.0
  0
LINE
  8
0
 62
     0
 10
83.294
 20
34.8327
 30
0.0
 11
83.294
 21
35.833
 31
0.0
  0
LINE
  8
0
 62
     0
 10
83.294
 20
35.833
 30
0.0
 11
69.2947
 21
35.833
 31
0.0
  0
LINE
  8
0
 62
     0
 10
138.945
 20
35.2834
 30
0.0
 11
142.244
 21
35.2834
 31
0.0
  0
LINE
  8
0
 62
     0
 10
142.244
 20
35.2834
 30
0.0
 11
142.244
 21
21.0826
 31
0.0
  0
LINE
  8
0
 62
     0
 10
142.244
 20
21.0826
 30
0.0
 11
138.945
 21
21.0826
 31
0.0
  0
LINE
  8
0
 62
     0
 10
138.945
 20
21.0826
 30
0.0
 11
138.945
 21
35.2834
 31
0.0
  0
LINE
  8
0
 62
     0
 10
162.745
 20
35.2834
 30
0.0
 11
166.044
 21
35.2834
 31
0.0
  0
LINE
  8
0
 62
     0
 10
166.044
 20
35.2834
 30
0.0
 11
166.044
 21
21.0826
 31
0.0
  0
LINE
  8
0
 62
     0
 10
166.044
 20
21.0826
 30
0.0
 11
162.745
 21
21.0826
 31
0.0
  0
LINE
  8
0
 62
     0
 10
162.745
 20
21.0826
 30
0.0
 11
162.745
 21
35.2834
 31
0.0
  0
LINE
  8
0
 62
     0
 10
2.61965
 20
35.833
 30
0.0
 11
2.61965
 21
34.8327
 31
0.0
  0
LINE
  8
0
 62
     0
 10
2.61965
 20
34.8327
 30
0.0
 11
1.81901
 21
34.8327
 31
0.0
  0
LINE
  8
0
 62
     0
 10
1.81901
 20
34.8327
 30
0.0
 11
1.81901
 21
31.7335
 31
0.0
  0
LINE
  8
0
 62
     0
 10
1.81901
 20
31.7335
 30
0.0
 11
2.61965
 21
31.7335
 31
0.0
  0
LINE
  8
0
 62
     0
 10
2.61965
 20
31.7335
 30
0.0
 11
2.61965
 21
25.9333
 31
0.0
  0
LINE
  8
0
 62
     0
 10
2.61965
 20
25.9333
 30
0.0
 11
1.81901
 21
25.9333
 31
0.0
  0
LINE
  8
0
 62
     0
 10
1.81901
 20
25.9333
 30
0.0
 11
1.81901
 21
22.8327
 31
0.0
  0
LINE
  8
0
 62
     0
 10
1.81901
 20
22.8327
 30
0.0
 11
2.61965
 21
22.8327
 31
0.0
  0
LINE
  8
0
 62
     0
 10
2.61965
 20
22.8327
 30
0.0
 11
2.61965
 21
21.8336
 31
0.0
  0
LINE
  8
0
 62
     0
 10
2.61965
 20
21.8336
 30
0.0
 11
16.6192
 21
21.8336
 31
0.0
  0
LINE
  8
0
 62
     0
 10
16.6192
 20
21.8336
 30
0.0
 11
16.6192
 21
22.8327
 31
0.0
  0
LINE
  8
0
 62
     0
 10
16.6192
 20
22.8327
 30
0.0
 11
17.4198
 21
22.8327
 31
0.0
  0
LINE
  8
0
 62
     0
 10
17.4198
 20
22.8327
 30
0.0
 11
17.4198
 21
25.9333
 31
0.0
  0
LINE
  8
0
 62
     0
 10
17.4198
 20
25.9333
 30
0.0
 11
16.6192
 21
25.9333
 31
0.0
  0
LINE
  8
0
 62
     0
 10
16.6192
 20
25.9333
 30
0.0
 11
16.6192
 21
31.7335
 31
0.0
  0
LINE
  8
0
 62
     0
 10
16.6192
 20
31.7335
 30
0.0
 11
17.4198
 21
31.7335
 31
0.0
  0
LINE
  8
0
 62
     0
 10
17.4198
 20
31.7335
 30
0.0
 11
17.4198
 21
34.8327
 31
0.0
  0
LINE
  8
0
 62
     0
 10
17.4198
 20
34.8327
 30
0.0
 11
16.6192
 21
34.8327
 31
0.0
  0
LINE
  8
0
 62
     0
 10
16.6192
 20
34.8327
 30
0.0
 11
16.6192
 21
35.833
 31
0.0
  0
LINE
  8
0
 62
     0
 10
16.6192
 20
35.833
 30
0.0
 11
2.61965
 21
35.833
 31
0.0
  0
LINE
  8
0
 62
     0
 10
31.1947
 20
35.833
 30
0.0
 11
31.1947
 21
34.8327
 31
0.0
  0
LINE
  8
0
 62
     0
 10
31.1947
 20
34.8327
 30
0.0
 11
30.394
 21
34.8327
 31
0.0
  0
LINE
  8
0
 62
     0
 10
30.394
 20
34.8327
 30
0.0
 11
30.394
 21
31.7335
 31
0.0
  0
LINE
  8
0
 62
     0
 10
30.394
 20
31.7335
 30
0.0
 11
31.1947
 21
31.7335
 31
0.0
  0
LINE
  8
0
 62
     0
 10
31.1947
 20
31.7335
 30
0.0
 11
31.1947
 21
25.9333
 31
0.0
  0
LINE
  8
0
 62
     0
 10
31.1947
 20
25.9333
 30
0.0
 11
30.394
 21
25.9333
 31
0.0
  0
LINE
  8
0
 62
     0
 10
30.394
 20
25.9333
 30
0.0
 11
30.394
 21
22.8327
 31
0.0
  0
LINE
  8
0
 62
     0
 10
30.394
 20
22.8327
 30
0.0
 11
31.1947
 21
22.8327
 31
0.0
  0
LINE
  8
0
 62
     0
 10
31.1947
 20
22.8327
 30
0.0
 11
31.1947
 21
21.8336
 31
0.0
  0
LINE
  8
0
 62
     0
 10
31.1947
 20
21.8336
 30
0.0
 11
45.194
 21
21.8336
 31
0.0
  0
LINE
  8
0
 62
     0
 10
45.194
 20
21.8336
 30
0.0
 11
45.194
 21
22.8327
 31
0.0
  0
LINE
  8
0
 62
     0
 10
45.194
 20
22.8327
 30
0.0
 11
45.9948
 21
22.8327
 31
0.0
  0
LINE
  8
0
 62
     0
 10
45.9948
 20
22.8327
 30
0.0
 11
45.9948
 21
25.9333
 31
0.0
  0
LINE
  8
0
 62
     0
 10
45.9948
 20
25.9333
 30
0.0
 11
45.194
 21
25.9333
 31
0.0
  0
LINE
  8
0
 62
     0
 10
45.194
 20
25.9333
 30
0.0
 11
45.194
 21
31.7335
 31
0.0
  0
LINE
  8
0
 62
     0
 10
45.194
 20
31.7335
 30
0.0
 11
45.9948
 21
31.7335
 31
0.0
  0
LINE
  8
0
 62
     0
 10
45.9948
 20
31.7335
 30
0.0
 11
45.9948
 21
34.8327
 31
0.0
  0
LINE
  8
0
 62
     0
 10
45.9948
 20
34.8327
 30
0.0
 11
45.194
 21
34.8327
 31
0.0
  0
LINE
  8
0
 62
     0
 10
45.194
 20
34.8327
 30
0.0
 11
45.194
 21
35.833
 31
0.0
  0
LINE
  8
0
 62
     0
 10
45.194
 20
35.833
 30
0.0
 11
31.1947
 21
35.833
 31
0.0
  0
LINE
  8
0
 62
     0
 10
145.495
 20
35.833
 30
0.0
 11
145.495
 21
34.8327
 31
0.0
  0
LINE
  8
0
 62
     0
 10
145.495
 20
34.8327
 30
0.0
 11
144.694
 21
34.8327
 31
0.0
  0
LINE
  8
0
 62
     0
 10
144.694
 20
34.8327
 30
0.0
 11
144.694
 21
31.7335
 31
0.0
  0
LINE
  8
0
 62
     0
 10
144.694
 20
31.7335
 30
0.0
 11
145.495
 21
31.7335
 31
0.0
  0
LINE
  8
0
 62
     0
 10
145.495
 20
31.7335
 30
0.0
 11
145.495
 21
25.9333
 31
0.0
  0
LINE
  8
0
 62
     0
 10
145.495
 20
25.9333
 30
0.0
 11
144.694
 21
25.9333
 31
0.0
  0
LINE
  8
0
 62
     0
 10
144.694
 20
25.9333
 30
0.0
 11
144.694
 21
22.8327
 31
0.0
  0
LINE
  8
0
 62
     0
 10
144.694
 20
22.8327
 30
0.0
 11
145.495
 21
22.8327
 31
0.0
  0
LINE
  8
0
 62
     0
 10
145.495
 20
22.8327
 30
0.0
 11
145.495
 21
21.8336
 31
0.0
  0
LINE
  8
0
 62
     0
 10
145.495
 20
21.8336
 30
0.0
 11
159.494
 21
21.8336
 31
0.0
  0
LINE
  8
0
 62
     0
 10
159.494
 20
21.8336
 30
0.0
 11
159.494
 21
22.8327
 31
0.0
  0
LINE
  8
0
 62
     0
 10
159.494
 20
22.8327
 30
0.0
 11
160.295
 21
22.8327
 31
0.0
  0
LINE
  8
0
 62
     0
 10
160.295
 20
22.8327
 30
0.0
 11
160.295
 21
25.9333
 31
0.0
  0
LINE
  8
0
 62
     0
 10
160.295
 20
25.9333
 30
0.0
 11
159.494
 21
25.9333
 31
0.0
  0
LINE
  8
0
 62
     0
 10
159.494
 20
25.9333
 30
0.0
 11
159.494
 21
31.7335
 31
0.0
  0
LINE
  8
0
 62
     0
 10
159.494
 20
31.7335
 30
0.0
 11
160.295
 21
31.7335
 31
0.0
  0
LINE
  8
0
 62
     0
 10
160.295
 20
31.7335
 30
0.0
 11
160.295
 21
34.8327
 31
0.0
  0
LINE
  8
0
 62
     0
 10
160.295
 20
34.8327
 30
0.0
 11
159.494
 21
34.8327
 31
0.0
  0
LINE
  8
0
 62
     0
 10
159.494
 20
34.8327
 30
0.0
 11
159.494
 21
35.833
 31
0.0
  0
LINE
  8
0
 62
     0
 10
159.494
 20
35.833
 30
0.0
 11
145.495
 21
35.833
 31
0.0
  0
LINE
  8
0
 62
     0
 10
183.595
 20
35.833
 30
0.0
 11
183.595
 21
34.8327
 31
0.0
  0
LINE
  8
0
 62
     0
 10
183.595
 20
34.8327
 30
0.0
 11
182.794
 21
34.8327
 31
0.0
  0
LINE
  8
0
 62
     0
 10
182.794
 20
34.8327
 30
0.0
 11
182.794
 21
31.7335
 31
0.0
  0
LINE
  8
0
 62
     0
 10
182.794
 20
31.7335
 30
0.0
 11
183.595
 21
31.7335
 31
0.0
  0
LINE
  8
0
 62
     0
 10
183.595
 20
31.7335
 30
0.0
 11
183.595
 21
25.9333
 31
0.0
  0
LINE
  8
0
 62
     0
 10
183.595
 20
25.9333
 30
0.0
 11
182.794
 21
25.9333
 31
0.0
  0
LINE
  8
0
 62
     0
 10
182.794
 20
25.9333
 30
0.0
 11
182.794
 21
22.8327
 31
0.0
  0
LINE
  8
0
 62
     0
 10
182.794
 20
22.8327
 30
0.0
 11
183.595
 21
22.8327
 31
0.0
  0
LINE
  8
0
 62
     0
 10
183.595
 20
22.8327
 30
0.0
 11
183.595
 21
21.8336
 31
0.0
  0
LINE
  8
0
 62
     0
 10
183.595
 20
21.8336
 30
0.0
 11
197.594
 21
21.8336
 31
0.0
  0
LINE
  8
0
 62
     0
 10
197.594
 20
21.8336
 30
0.0
 11
197.594
 21
22.8327
 31
0.0
  0
LINE
  8
0
 62
     0
 10
197.594
 20
22.8327
 30
0.0
 11
198.395
 21
22.8327
 31
0.0
  0
LINE
  8
0
 62
     0
 10
198.395
 20
22.8327
 30
0.0
 11
198.395
 21
25.9333
 31
0.0
  0
LINE
  8
0
 62
     0
 10
198.395
 20
25.9333
 30
0.0
 11
197.594
 21
25.9333
 31
0.0
  0
LINE
  8
0
 62
     0
 10
197.594
 20
25.9333
 30
0.0
 11
197.594
 21
31.7335
 31
0.0
  0
LINE
  8
0
 62
     0
 10
197.594
 20
31.7335
 30
0.0
 11
198.395
 21
31.7335
 31
0.0
  0
LINE
  8
0
 62
     0
 10
198.395
 20
31.7335
 30
0.0
 11
198.395
 21
34.8327
 31
0.0
  0
LINE
  8
0
 62
     0
 10
198.395
 20
34.8327
 30
0.0
 11
197.594
 21
34.8327
 31
0.0
  0
LINE
  8
0
 62
     0
 10
197.594
 20
34.8327
 30
0.0
 11
197.594
 21
35.833
 31
0.0
  0
LINE
  8
0
 62
     0
 10
197.594
 20
35.833
 30
0.0
 11
183.595
 21
35.833
 31
0.0
  0
LINE
  8
0
 62
     0
 10
175.165
 20
44.0104
 30
0.0
 11
177.832
 21
44.0104
 31
0.0
  0
LINE
  8
0
 62
     0
 10
177.832
 20
44.0104
 30
0.0
 11
177.832
 21
38.8027
 31
0.0
  0
LINE
  8
0
 62
     0
 10
177.832
 20
38.8027
 30
0.0
 11
175.165
 21
38.8027
 31
0.0
  0
LINE
  8
0
 62
     0
 10
175.165
 20
38.8027
 30
0.0
 11
175.165
 21
44.0104
 31
0.0
  0
LINE
  8
0
 62
     0
 10
203.357
 20
44.0104
 30
0.0
 11
206.024
 21
44.0104
 31
0.0
  0
LINE
  8
0
 62
     0
 10
206.024
 20
44.0104
 30
0.0
 11
206.024
 21
38.8027
 31
0.0
  0
LINE
  8
0
 62
     0
 10
206.024
 20
38.8027
 30
0.0
 11
203.357
 21
38.8027
 31
0.0
  0
LINE
  8
0
 62
     0
 10
203.357
 20
38.8027
 30
0.0
 11
203.357
 21
44.0104
 31
0.0
  0
LINE
  8
0
 62
     0
 10
107.395
 20
54.8831
 30
0.0
 11
107.395
 21
54.2837
 31
0.0
  0
LINE
  8
0
 62
     0
 10
107.395
 20
54.2837
 30
0.0
 11
106.594
 21
54.2837
 31
0.0
  0
LINE
  8
0
 62
     0
 10
106.594
 20
54.2837
 30
0.0
 11
106.594
 21
50.1826
 31
0.0
  0
LINE
  8
0
 62
     0
 10
106.594
 20
50.1826
 30
0.0
 11
105.869
 21
50.1826
 31
0.0
  0
LINE
  8
0
 62
     0
 10
105.869
 20
50.1826
 30
0.0
 11
105.869
 21
53.4127
 31
0.0
  0
LINE
  8
0
 62
     0
 10
105.869
 20
53.4127
 30
0.0
 11
99.1196
 21
53.4127
 31
0.0
  0
LINE
  8
0
 62
     0
 10
99.1196
 20
53.4127
 30
0.0
 11
99.1196
 21
50.1826
 31
0.0
  0
LINE
  8
0
 62
     0
 10
99.1196
 20
50.1826
 30
0.0
 11
98.2941
 21
50.1826
 31
0.0
  0
LINE
  8
0
 62
     0
 10
98.2941
 20
50.1826
 30
0.0
 11
98.2941
 21
47.3837
 31
0.0
  0
LINE
  8
0
 62
     0
 10
98.2941
 20
47.3837
 30
0.0
 11
99.1196
 21
47.3837
 31
0.0
  0
LINE
  8
0
 62
     0
 10
99.1196
 20
47.3837
 30
0.0
 11
99.1196
 21
41.1138
 31
0.0
  0
LINE
  8
0
 62
     0
 10
99.1196
 20
41.1138
 30
0.0
 11
100.845
 21
41.1138
 31
0.0
  0
LINE
  8
0
 62
     0
 10
100.845
 20
41.1138
 30
0.0
 11
100.845
 21
39.9136
 31
0.0
  0
LINE
  8
0
 62
     0
 10
100.845
 20
39.9136
 30
0.0
 11
104.144
 21
39.9136
 31
0.0
  0
LINE
  8
0
 62
     0
 10
104.144
 20
39.9136
 30
0.0
 11
104.144
 21
41.1138
 31
0.0
  0
LINE
  8
0
 62
     0
 10
104.144
 20
41.1138
 30
0.0
 11
105.869
 21
41.1138
 31
0.0
  0
LINE
  8
0
 62
     0
 10
105.869
 20
41.1138
 30
0.0
 11
105.869
 21
45.5828
 31
0.0
  0
LINE
  8
0
 62
     0
 10
105.869
 20
45.5828
 30
0.0
 11
106.594
 21
45.5828
 31
0.0
  0
LINE
  8
0
 62
     0
 10
106.594
 20
45.5828
 30
0.0
 11
106.594
 21
41.4831
 31
0.0
  0
LINE
  8
0
 62
     0
 10
106.594
 20
41.4831
 30
0.0
 11
107.395
 21
41.4831
 31
0.0
  0
LINE
  8
0
 62
     0
 10
107.395
 20
41.4831
 30
0.0
 11
107.395
 21
40.8838
 31
0.0
  0
LINE
  8
0
 62
     0
 10
107.395
 20
40.8838
 30
0.0
 11
121.394
 21
40.8838
 31
0.0
  0
LINE
  8
0
 62
     0
 10
121.394
 20
40.8838
 30
0.0
 11
121.394
 21
41.4831
 31
0.0
  0
LINE
  8
0
 62
     0
 10
121.394
 20
41.4831
 30
0.0
 11
122.195
 21
41.4831
 31
0.0
  0
LINE
  8
0
 62
     0
 10
122.195
 20
41.4831
 30
0.0
 11
122.195
 21
45.5828
 31
0.0
  0
LINE
  8
0
 62
     0
 10
122.195
 20
45.5828
 30
0.0
 11
122.92
 21
45.5828
 31
0.0
  0
LINE
  8
0
 62
     0
 10
122.92
 20
45.5828
 30
0.0
 11
122.92
 21
41.1138
 31
0.0
  0
LINE
  8
0
 62
     0
 10
122.92
 20
41.1138
 30
0.0
 11
124.645
 21
41.1138
 31
0.0
  0
LINE
  8
0
 62
     0
 10
124.645
 20
41.1138
 30
0.0
 11
124.645
 21
39.9136
 31
0.0
  0
LINE
  8
0
 62
     0
 10
124.645
 20
39.9136
 30
0.0
 11
127.944
 21
39.9136
 31
0.0
  0
LINE
  8
0
 62
     0
 10
127.944
 20
39.9136
 30
0.0
 11
127.944
 21
41.1138
 31
0.0
  0
LINE
  8
0
 62
     0
 10
127.944
 20
41.1138
 30
0.0
 11
129.669
 21
41.1138
 31
0.0
  0
LINE
  8
0
 62
     0
 10
129.669
 20
41.1138
 30
0.0
 11
129.669
 21
47.3837
 31
0.0
  0
LINE
  8
0
 62
     0
 10
129.669
 20
47.3837
 30
0.0
 11
130.495
 21
47.3837
 31
0.0
  0
LINE
  8
0
 62
     0
 10
130.495
 20
47.3837
 30
0.0
 11
130.495
 21
50.1826
 31
0.0
  0
LINE
  8
0
 62
     0
 10
130.495
 20
50.1826
 30
0.0
 11
129.669
 21
50.1826
 31
0.0
  0
LINE
  8
0
 62
     0
 10
129.669
 20
50.1826
 30
0.0
 11
129.669
 21
53.4127
 31
0.0
  0
LINE
  8
0
 62
     0
 10
129.669
 20
53.4127
 30
0.0
 11
122.92
 21
53.4127
 31
0.0
  0
LINE
  8
0
 62
     0
 10
122.92
 20
53.4127
 30
0.0
 11
122.92
 21
50.1826
 31
0.0
  0
LINE
  8
0
 62
     0
 10
122.92
 20
50.1826
 30
0.0
 11
122.195
 21
50.1826
 31
0.0
  0
LINE
  8
0
 62
     0
 10
122.195
 20
50.1826
 30
0.0
 11
122.195
 21
54.2837
 31
0.0
  0
LINE
  8
0
 62
     0
 10
122.195
 20
54.2837
 30
0.0
 11
121.394
 21
54.2837
 31
0.0
  0
LINE
  8
0
 62
     0
 10
121.394
 20
54.2837
 30
0.0
 11
121.394
 21
54.8831
 31
0.0
  0
LINE
  8
0
 62
     0
 10
121.394
 20
54.8831
 30
0.0
 11
107.395
 21
54.8831
 31
0.0
  0
LINE
  8
0
 62
     0
 10
69.2947
 20
54.8831
 30
0.0
 11
69.2947
 21
54.2837
 31
0.0
  0
LINE
  8
0
 62
     0
 10
69.2947
 20
54.2837
 30
0.0
 11
68.4939
 21
54.2837
 31
0.0
  0
LINE
  8
0
 62
     0
 10
68.4939
 20
54.2837
 30
0.0
 11
68.4939
 21
50.1826
 31
0.0
  0
LINE
  8
0
 62
     0
 10
68.4939
 20
50.1826
 30
0.0
 11
67.7693
 21
50.1826
 31
0.0
  0
LINE
  8
0
 62
     0
 10
67.7693
 20
50.1826
 30
0.0
 11
67.7693
 21
53.4127
 31
0.0
  0
LINE
  8
0
 62
     0
 10
67.7693
 20
53.4127
 30
0.0
 11
66.0439
 21
53.4127
 31
0.0
  0
LINE
  8
0
 62
     0
 10
66.0439
 20
53.4127
 30
0.0
 11
66.0439
 21
54.3334
 31
0.0
  0
LINE
  8
0
 62
     0
 10
66.0439
 20
54.3334
 30
0.0
 11
62.7447
 21
54.3334
 31
0.0
  0
LINE
  8
0
 62
     0
 10
62.7447
 20
54.3334
 30
0.0
 11
62.7447
 21
53.4127
 31
0.0
  0
LINE
  8
0
 62
     0
 10
62.7447
 20
53.4127
 30
0.0
 11
61.0196
 21
53.4127
 31
0.0
  0
LINE
  8
0
 62
     0
 10
61.0196
 20
53.4127
 30
0.0
 11
61.0196
 21
50.1826
 31
0.0
  0
LINE
  8
0
 62
     0
 10
61.0196
 20
50.1826
 30
0.0
 11
60.1941
 21
50.1826
 31
0.0
  0
LINE
  8
0
 62
     0
 10
60.1941
 20
50.1826
 30
0.0
 11
60.1941
 21
47.3837
 31
0.0
  0
LINE
  8
0
 62
     0
 10
60.1941
 20
47.3837
 30
0.0
 11
61.0196
 21
47.3837
 31
0.0
  0
LINE
  8
0
 62
     0
 10
61.0196
 20
47.3837
 30
0.0
 11
61.0196
 21
41.1138
 31
0.0
  0
LINE
  8
0
 62
     0
 10
61.0196
 20
41.1138
 30
0.0
 11
62.7447
 21
41.1138
 31
0.0
  0
LINE
  8
0
 62
     0
 10
62.7447
 20
41.1138
 30
0.0
 11
62.7447
 21
40.1327
 31
0.0
  0
LINE
  8
0
 62
     0
 10
62.7447
 20
40.1327
 30
0.0
 11
66.0439
 21
40.1327
 31
0.0
  0
LINE
  8
0
 62
     0
 10
66.0439
 20
40.1327
 30
0.0
 11
66.0439
 21
41.1138
 31
0.0
  0
LINE
  8
0
 62
     0
 10
66.0439
 20
41.1138
 30
0.0
 11
67.7693
 21
41.1138
 31
0.0
  0
LINE
  8
0
 62
     0
 10
67.7693
 20
41.1138
 30
0.0
 11
67.7693
 21
45.5828
 31
0.0
  0
LINE
  8
0
 62
     0
 10
67.7693
 20
45.5828
 30
0.0
 11
68.4939
 21
45.5828
 31
0.0
  0
LINE
  8
0
 62
     0
 10
68.4939
 20
45.5828
 30
0.0
 11
68.4939
 21
41.4831
 31
0.0
  0
LINE
  8
0
 62
     0
 10
68.4939
 20
41.4831
 30
0.0
 11
69.2947
 21
41.4831
 31
0.0
  0
LINE
  8
0
 62
     0
 10
69.2947
 20
41.4831
 30
0.0
 11
69.2947
 21
40.8838
 31
0.0
  0
LINE
  8
0
 62
     0
 10
69.2947
 20
40.8838
 30
0.0
 11
83.294
 21
40.8838
 31
0.0
  0
LINE
  8
0
 62
     0
 10
83.294
 20
40.8838
 30
0.0
 11
83.294
 21
41.4831
 31
0.0
  0
LINE
  8
0
 62
     0
 10
83.294
 20
41.4831
 30
0.0
 11
84.0948
 21
41.4831
 31
0.0
  0
LINE
  8
0
 62
     0
 10
84.0948
 20
41.4831
 30
0.0
 11
84.0948
 21
45.5828
 31
0.0
  0
LINE
  8
0
 62
     0
 10
84.0948
 20
45.5828
 30
0.0
 11
84.8198
 21
45.5828
 31
0.0
  0
LINE
  8
0
 62
     0
 10
84.8198
 20
45.5828
 30
0.0
 11
84.8198
 21
41.1138
 31
0.0
  0
LINE
  8
0
 62
     0
 10
84.8198
 20
41.1138
 30
0.0
 11
86.5449
 21
41.1138
 31
0.0
  0
LINE
  8
0
 62
     0
 10
86.5449
 20
41.1138
 30
0.0
 11
86.5449
 21
40.1327
 31
0.0
  0
LINE
  8
0
 62
     0
 10
86.5449
 20
40.1327
 30
0.0
 11
89.844
 21
40.1327
 31
0.0
  0
LINE
  8
0
 62
     0
 10
89.844
 20
40.1327
 30
0.0
 11
89.844
 21
41.1138
 31
0.0
  0
LINE
  8
0
 62
     0
 10
89.844
 20
41.1138
 30
0.0
 11
91.5691
 21
41.1138
 31
0.0
  0
LINE
  8
0
 62
     0
 10
91.5691
 20
41.1138
 30
0.0
 11
91.5691
 21
47.3837
 31
0.0
  0
LINE
  8
0
 62
     0
 10
91.5691
 20
47.3837
 30
0.0
 11
92.3946
 21
47.3837
 31
0.0
  0
LINE
  8
0
 62
     0
 10
92.3946
 20
47.3837
 30
0.0
 11
92.3946
 21
50.1826
 31
0.0
  0
LINE
  8
0
 62
     0
 10
92.3946
 20
50.1826
 30
0.0
 11
91.5691
 21
50.1826
 31
0.0
  0
LINE
  8
0
 62
     0
 10
91.5691
 20
50.1826
 30
0.0
 11
91.5691
 21
53.4127
 31
0.0
  0
LINE
  8
0
 62
     0
 10
91.5691
 20
53.4127
 30
0.0
 11
89.844
 21
53.4127
 31
0.0
  0
LINE
  8
0
 62
     0
 10
89.844
 20
53.4127
 30
0.0
 11
89.844
 21
54.3334
 31
0.0
  0
LINE
  8
0
 62
     0
 10
89.844
 20
54.3334
 30
0.0
 11
86.5449
 21
54.3334
 31
0.0
  0
LINE
  8
0
 62
     0
 10
86.5449
 20
54.3334
 30
0.0
 11
86.5449
 21
53.4127
 31
0.0
  0
LINE
  8
0
 62
     0
 10
86.5449
 20
53.4127
 30
0.0
 11
84.8198
 21
53.4127
 31
0.0
  0
LINE
  8
0
 62
     0
 10
84.8198
 20
53.4127
 30
0.0
 11
84.8198
 21
50.1826
 31
0.0
  0
LINE
  8
0
 62
     0
 10
84.8198
 20
50.1826
 30
0.0
 11
84.0948
 21
50.1826
 31
0.0
  0
LINE
  8
0
 62
     0
 10
84.0948
 20
50.1826
 30
0.0
 11
84.0948
 21
54.2837
 31
0.0
  0
LINE
  8
0
 62
     0
 10
84.0948
 20
54.2837
 30
0.0
 11
83.294
 21
54.2837
 31
0.0
  0
LINE
  8
0
 62
     0
 10
83.294
 20
54.2837
 30
0.0
 11
83.294
 21
54.8831
 31
0.0
  0
LINE
  8
0
 62
     0
 10
83.294
 20
54.8831
 30
0.0
 11
69.2947
 21
54.8831
 31
0.0
  0
LINE
  8
0
 62
     0
 10
138.945
 20
54.3334
 30
0.0
 11
142.244
 21
54.3334
 31
0.0
  0
LINE
  8
0
 62
     0
 10
142.244
 20
54.3334
 30
0.0
 11
142.244
 21
40.1327
 31
0.0
  0
LINE
  8
0
 62
     0
 10
142.244
 20
40.1327
 30
0.0
 11
138.945
 21
40.1327
 31
0.0
  0
LINE
  8
0
 62
     0
 10
138.945
 20
40.1327
 30
0.0
 11
138.945
 21
54.3334
 31
0.0
  0
LINE
  8
0
 62
     0
 10
162.745
 20
54.3334
 30
0.0
 11
166.044
 21
54.3334
 31
0.0
  0
LINE
  8
0
 62
     0
 10
166.044
 20
54.3334
 30
0.0
 11
166.044
 21
40.1327
 31
0.0
  0
LINE
  8
0
 62
     0
 10
166.044
 20
40.1327
 30
0.0
 11
162.745
 21
40.1327
 31
0.0
  0
LINE
  8
0
 62
     0
 10
162.745
 20
40.1327
 30
0.0
 11
162.745
 21
54.3334
 31
0.0
  0
LINE
  8
0
 62
     0
 10
2.61965
 20
54.8831
 30
0.0
 11
2.61965
 21
54.2837
 31
0.0
  0
LINE
  8
0
 62
     0
 10
2.61965
 20
54.2837
 30
0.0
 11
1.81901
 21
54.2837
 31
0.0
  0
LINE
  8
0
 62
     0
 10
1.81901
 20
54.2837
 30
0.0
 11
1.81901
 21
41.4831
 31
0.0
  0
LINE
  8
0
 62
     0
 10
1.81901
 20
41.4831
 30
0.0
 11
2.61965
 21
41.4831
 31
0.0
  0
LINE
  8
0
 62
     0
 10
2.61965
 20
41.4831
 30
0.0
 11
2.61965
 21
40.8838
 31
0.0
  0
LINE
  8
0
 62
     0
 10
2.61965
 20
40.8838
 30
0.0
 11
16.6192
 21
40.8838
 31
0.0
  0
LINE
  8
0
 62
     0
 10
16.6192
 20
40.8838
 30
0.0
 11
16.6192
 21
41.4831
 31
0.0
  0
LINE
  8
0
 62
     0
 10
16.6192
 20
41.4831
 30
0.0
 11
17.4198
 21
41.4831
 31
0.0
  0
LINE
  8
0
 62
     0
 10
17.4198
 20
41.4831
 30
0.0
 11
17.4198
 21
54.2837
 31
0.0
  0
LINE
  8
0
 62
     0
 10
17.4198
 20
54.2837
 30
0.0
 11
16.6192
 21
54.2837
 31
0.0
  0
LINE
  8
0
 62
     0
 10
16.6192
 20
54.2837
 30
0.0
 11
16.6192
 21
54.8831
 31
0.0
  0
LINE
  8
0
 62
     0
 10
16.6192
 20
54.8831
 30
0.0
 11
2.61965
 21
54.8831
 31
0.0
  0
LINE
  8
0
 62
     0
 10
31.1947
 20
54.8831
 30
0.0
 11
31.1947
 21
54.2837
 31
0.0
  0
LINE
  8
0
 62
     0
 10
31.1947
 20
54.2837
 30
0.0
 11
30.394
 21
54.2837
 31
0.0
  0
LINE
  8
0
 62
     0
 10
30.394
 20
54.2837
 30
0.0
 11
30.394
 21
41.4831
 31
0.0
  0
LINE
  8
0
 62
     0
 10
30.394
 20
41.4831
 30
0.0
 11
31.1947
 21
41.4831
 31
0.0
  0
LINE
  8
0
 62
     0
 10
31.1947
 20
41.4831
 30
0.0
 11
31.1947
 21
40.8838
 31
0.0
  0
LINE
  8
0
 62
     0
 10
31.1947
 20
40.8838
 30
0.0
 11
45.194
 21
40.8838
 31
0.0
  0
LINE
  8
0
 62
     0
 10
45.194
 20
40.8838
 30
0.0
 11
45.194
 21
41.4831
 31
0.0
  0
LINE
  8
0
 62
     0
 10
45.194
 20
41.4831
 30
0.0
 11
45.9948
 21
41.4831
 31
0.0
  0
LINE
  8
0
 62
     0
 10
45.9948
 20
41.4831
 30
0.0
 11
45.9948
 21
54.2837
 31
0.0
  0
LINE
  8
0
 62
     0
 10
45.9948
 20
54.2837
 30
0.0
 11
45.194
 21
54.2837
 31
0.0
  0
LINE
  8
0
 62
     0
 10
45.194
 20
54.2837
 30
0.0
 11
45.194
 21
54.8831
 31
0.0
  0
LINE
  8
0
 62
     0
 10
45.194
 20
54.8831
 30
0.0
 11
31.1947
 21
54.8831
 31
0.0
  0
LINE
  8
0
 62
     0
 10
145.495
 20
54.8831
 30
0.0
 11
145.495
 21
54.2837
 31
0.0
  0
LINE
  8
0
 62
     0
 10
145.495
 20
54.2837
 30
0.0
 11
144.694
 21
54.2837
 31
0.0
  0
LINE
  8
0
 62
     0
 10
144.694
 20
54.2837
 30
0.0
 11
144.694
 21
41.4831
 31
0.0
  0
LINE
  8
0
 62
     0
 10
144.694
 20
41.4831
 30
0.0
 11
145.495
 21
41.4831
 31
0.0
  0
LINE
  8
0
 62
     0
 10
145.495
 20
41.4831
 30
0.0
 11
145.495
 21
40.8838
 31
0.0
  0
LINE
  8
0
 62
     0
 10
145.495
 20
40.8838
 30
0.0
 11
159.494
 21
40.8838
 31
0.0
  0
LINE
  8
0
 62
     0
 10
159.494
 20
40.8838
 30
0.0
 11
159.494
 21
41.4831
 31
0.0
  0
LINE
  8
0
 62
     0
 10
159.494
 20
41.4831
 30
0.0
 11
160.295
 21
41.4831
 31
0.0
  0
LINE
  8
0
 62
     0
 10
160.295
 20
41.4831
 30
0.0
 11
160.295
 21
54.2837
 31
0.0
  0
LINE
  8
0
 62
     0
 10
160.295
 20
54.2837
 30
0.0
 11
159.494
 21
54.2837
 31
0.0
  0
LINE
  8
0
 62
     0
 10
159.494
 20
54.2837
 30
0.0
 11
159.494
 21
54.8831
 31
0.0
  0
LINE
  8
0
 62
     0
 10
159.494
 20
54.8831
 30
0.0
 11
145.495
 21
54.8831
 31
0.0
  0
LINE
  8
0
 62
     0
 10
183.595
 20
54.8831
 30
0.0
 11
183.595
 21
54.2837
 31
0.0
  0
LINE
  8
0
 62
     0
 10
183.595
 20
54.2837
 30
0.0
 11
182.794
 21
54.2837
 31
0.0
  0
LINE
  8
0
 62
     0
 10
182.794
 20
54.2837
 30
0.0
 11
182.794
 21
41.4831
 31
0.0
  0
LINE
  8
0
 62
     0
 10
182.794
 20
41.4831
 30
0.0
 11
183.595
 21
41.4831
 31
0.0
  0
LINE
  8
0
 62
     0
 10
183.595
 20
41.4831
 30
0.0
 11
183.595
 21
40.8838
 31
0.0
  0
LINE
  8
0
 62
     0
 10
183.595
 20
40.8838
 30
0.0
 11
197.594
 21
40.8838
 31
0.0
  0
LINE
  8
0
 62
     0
 10
197.594
 20
40.8838
 30
0.0
 11
197.594
 21
41.4831
 31
0.0
  0
LINE
  8
0
 62
     0
 10
197.594
 20
41.4831
 30
0.0
 11
198.395
 21
41.4831
 31
0.0
  0
LINE
  8
0
 62
     0
 10
198.395
 20
41.4831
 30
0.0
 11
198.395
 21
54.2837
 31
0.0
  0
LINE
  8
0
 62
     0
 10
198.395
 20
54.2837
 30
0.0
 11
197.594
 21
54.2837
 31
0.0
  0
LINE
  8
0
 62
     0
 10
197.594
 20
54.2837
 30
0.0
 11
197.594
 21
54.8831
 31
0.0
  0
LINE
  8
0
 62
     0
 10
197.594
 20
54.8831
 30
0.0
 11
183.595
 21
54.8831
 31
0.0
  0
LINE
  8
0
 62
     0
 10
175.165
 20
63.0604
 30
0.0
 11
177.832
 21
63.0604
 31
0.0
  0
LINE
  8
0
 62
     0
 10
177.832
 20
63.0604
 30
0.0
 11
177.832
 21
57.8527
 31
0.0
  0
LINE
  8
0
 62
     0
 10
177.832
 20
57.8527
 30
0.0
 11
175.165
 21
57.8527
 31
0.0
  0
LINE
  8
0
 62
     0
 10
175.165
 20
57.8527
 30
0.0
 11
175.165
 21
63.0604
 31
0.0
  0
LINE
  8
0
 62
     0
 10
203.357
 20
63.0604
 30
0.0
 11
206.024
 21
63.0604
 31
0.0
  0
LINE
  8
0
 62
     0
 10
206.024
 20
63.0604
 30
0.0
 11
206.024
 21
57.8527
 31
0.0
  0
LINE
  8
0
 62
     0
 10
206.024
 20
57.8527
 30
0.0
 11
203.357
 21
57.8527
 31
0.0
  0
LINE
  8
0
 62
     0
 10
203.357
 20
57.8527
 30
0.0
 11
203.357
 21
63.0604
 31
0.0
  0
LINE
  8
0
 62
     0
 10
107.395
 20
73.9331
 30
0.0
 11
107.395
 21
69.2326
 31
0.0
  0
LINE
  8
0
 62
     0
 10
107.395
 20
69.2326
 30
0.0
 11
105.869
 21
69.2326
 31
0.0
  0
LINE
  8
0
 62
     0
 10
105.869
 20
69.2326
 30
0.0
 11
105.869
 21
72.4627
 31
0.0
  0
LINE
  8
0
 62
     0
 10
105.869
 20
72.4627
 30
0.0
 11
99.1196
 21
72.4627
 31
0.0
  0
LINE
  8
0
 62
     0
 10
99.1196
 20
72.4627
 30
0.0
 11
99.1196
 21
69.2326
 31
0.0
  0
LINE
  8
0
 62
     0
 10
99.1196
 20
69.2326
 30
0.0
 11
98.2941
 21
69.2326
 31
0.0
  0
LINE
  8
0
 62
     0
 10
98.2941
 20
69.2326
 30
0.0
 11
98.2941
 21
66.4337
 31
0.0
  0
LINE
  8
0
 62
     0
 10
98.2941
 20
66.4337
 30
0.0
 11
99.1196
 21
66.4337
 31
0.0
  0
LINE
  8
0
 62
     0
 10
99.1196
 20
66.4337
 30
0.0
 11
99.1196
 21
60.1638
 31
0.0
  0
LINE
  8
0
 62
     0
 10
99.1196
 20
60.1638
 30
0.0
 11
100.845
 21
60.1638
 31
0.0
  0
LINE
  8
0
 62
     0
 10
100.845
 20
60.1638
 30
0.0
 11
100.845
 21
58.9636
 31
0.0
  0
LINE
  8
0
 62
     0
 10
100.845
 20
58.9636
 30
0.0
 11
104.144
 21
58.9636
 31
0.0
  0
LINE
  8
0
 62
     0
 10
104.144
 20
58.9636
 30
0.0
 11
104.144
 21
60.1638
 31
0.0
  0
LINE
  8
0
 62
     0
 10
104.144
 20
60.1638
 30
0.0
 11
105.869
 21
60.1638
 31
0.0
  0
LINE
  8
0
 62
     0
 10
105.869
 20
60.1638
 30
0.0
 11
105.869
 21
64.6328
 31
0.0
  0
LINE
  8
0
 62
     0
 10
105.869
 20
64.6328
 30
0.0
 11
107.395
 21
64.6328
 31
0.0
  0
LINE
  8
0
 62
     0
 10
107.395
 20
64.6328
 30
0.0
 11
107.395
 21
59.9338
 31
0.0
  0
LINE
  8
0
 62
     0
 10
107.395
 20
59.9338
 30
0.0
 11
121.394
 21
59.9338
 31
0.0
  0
LINE
  8
0
 62
     0
 10
121.394
 20
59.9338
 30
0.0
 11
121.394
 21
64.6328
 31
0.0
  0
LINE
  8
0
 62
     0
 10
121.394
 20
64.6328
 30
0.0
 11
122.92
 21
64.6328
 31
0.0
  0
LINE
  8
0
 62
     0
 10
122.92
 20
64.6328
 30
0.0
 11
122.92
 21
60.1638
 31
0.0
  0
LINE
  8
0
 62
     0
 10
122.92
 20
60.1638
 30
0.0
 11
124.645
 21
60.1638
 31
0.0
  0
LINE
  8
0
 62
     0
 10
124.645
 20
60.1638
 30
0.0
 11
124.645
 21
58.9636
 31
0.0
  0
LINE
  8
0
 62
     0
 10
124.645
 20
58.9636
 30
0.0
 11
127.944
 21
58.9636
 31
0.0
  0
LINE
  8
0
 62
     0
 10
127.944
 20
58.9636
 30
0.0
 11
127.944
 21
60.1638
 31
0.0
  0
LINE
  8
0
 62
     0
 10
127.944
 20
60.1638
 30
0.0
 11
129.669
 21
60.1638
 31
0.0
  0
LINE
  8
0
 62
     0
 10
129.669
 20
60.1638
 30
0.0
 11
129.669
 21
66.4337
 31
0.0
  0
LINE
  8
0
 62
     0
 10
129.669
 20
66.4337
 30
0.0
 11
130.495
 21
66.4337
 31
0.0
  0
LINE
  8
0
 62
     0
 10
130.495
 20
66.4337
 30
0.0
 11
130.495
 21
69.2326
 31
0.0
  0
LINE
  8
0
 62
     0
 10
130.495
 20
69.2326
 30
0.0
 11
129.669
 21
69.2326
 31
0.0
  0
LINE
  8
0
 62
     0
 10
129.669
 20
69.2326
 30
0.0
 11
129.669
 21
72.4627
 31
0.0
  0
LINE
  8
0
 62
     0
 10
129.669
 20
72.4627
 30
0.0
 11
122.92
 21
72.4627
 31
0.0
  0
LINE
  8
0
 62
     0
 10
122.92
 20
72.4627
 30
0.0
 11
122.92
 21
69.2326
 31
0.0
  0
LINE
  8
0
 62
     0
 10
122.92
 20
69.2326
 30
0.0
 11
121.394
 21
69.2326
 31
0.0
  0
LINE
  8
0
 62
     0
 10
121.394
 20
69.2326
 30
0.0
 11
121.394
 21
73.9331
 31
0.0
  0
LINE
  8
0
 62
     0
 10
121.394
 20
73.9331
 30
0.0
 11
107.395
 21
73.9331
 31
0.0
  0
LINE
  8
0
 62
     0
 10
69.2947
 20
73.9331
 30
0.0
 11
69.2947
 21
69.2326
 31
0.0
  0
LINE
  8
0
 62
     0
 10
69.2947
 20
69.2326
 30
0.0
 11
67.7693
 21
69.2326
 31
0.0
  0
LINE
  8
0
 62
     0
 10
67.7693
 20
69.2326
 30
0.0
 11
67.7693
 21
72.4627
 31
0.0
  0
LINE
  8
0
 62
     0
 10
67.7693
 20
72.4627
 30
0.0
 11
66.0439
 21
72.4627
 31
0.0
  0
LINE
  8
0
 62
     0
 10
66.0439
 20
72.4627
 30
0.0
 11
66.0439
 21
73.3848
 31
0.0
  0
LINE
  8
0
 62
     0
 10
66.0439
 20
73.3848
 30
0.0
 11
62.7447
 21
73.3848
 31
0.0
  0
LINE
  8
0
 62
     0
 10
62.7447
 20
73.3848
 30
0.0
 11
62.7447
 21
72.4627
 31
0.0
  0
LINE
  8
0
 62
     0
 10
62.7447
 20
72.4627
 30
0.0
 11
61.0196
 21
72.4627
 31
0.0
  0
LINE
  8
0
 62
     0
 10
61.0196
 20
72.4627
 30
0.0
 11
61.0196
 21
69.2326
 31
0.0
  0
LINE
  8
0
 62
     0
 10
61.0196
 20
69.2326
 30
0.0
 11
60.1941
 21
69.2326
 31
0.0
  0
LINE
  8
0
 62
     0
 10
60.1941
 20
69.2326
 30
0.0
 11
60.1941
 21
66.4337
 31
0.0
  0
LINE
  8
0
 62
     0
 10
60.1941
 20
66.4337
 30
0.0
 11
61.0196
 21
66.4337
 31
0.0
  0
LINE
  8
0
 62
     0
 10
61.0196
 20
66.4337
 30
0.0
 11
61.0196
 21
60.1638
 31
0.0
  0
LINE
  8
0
 62
     0
 10
61.0196
 20
60.1638
 30
0.0
 11
62.7447
 21
60.1638
 31
0.0
  0
LINE
  8
0
 62
     0
 10
62.7447
 20
60.1638
 30
0.0
 11
62.7447
 21
59.1827
 31
0.0
  0
LINE
  8
0
 62
     0
 10
62.7447
 20
59.1827
 30
0.0
 11
66.0439
 21
59.1827
 31
0.0
  0
LINE
  8
0
 62
     0
 10
66.0439
 20
59.1827
 30
0.0
 11
66.0439
 21
60.1638
 31
0.0
  0
LINE
  8
0
 62
     0
 10
66.0439
 20
60.1638
 30
0.0
 11
67.7693
 21
60.1638
 31
0.0
  0
LINE
  8
0
 62
     0
 10
67.7693
 20
60.1638
 30
0.0
 11
67.7693
 21
64.6328
 31
0.0
  0
LINE
  8
0
 62
     0
 10
67.7693
 20
64.6328
 30
0.0
 11
69.2947
 21
64.6328
 31
0.0
  0
LINE
  8
0
 62
     0
 10
69.2947
 20
64.6328
 30
0.0
 11
69.2947
 21
59.9338
 31
0.0
  0
LINE
  8
0
 62
     0
 10
69.2947
 20
59.9338
 30
0.0
 11
83.294
 21
59.9338
 31
0.0
  0
LINE
  8
0
 62
     0
 10
83.294
 20
59.9338
 30
0.0
 11
83.294
 21
64.6328
 31
0.0
  0
LINE
  8
0
 62
     0
 10
83.294
 20
64.6328
 30
0.0
 11
84.8198
 21
64.6328
 31
0.0
  0
LINE
  8
0
 62
     0
 10
84.8198
 20
64.6328
 30
0.0
 11
84.8198
 21
60.1638
 31
0.0
  0
LINE
  8
0
 62
     0
 10
84.8198
 20
60.1638
 30
0.0
 11
86.5449
 21
60.1638
 31
0.0
  0
LINE
  8
0
 62
     0
 10
86.5449
 20
60.1638
 30
0.0
 11
86.5449
 21
59.1827
 31
0.0
  0
LINE
  8
0
 62
     0
 10
86.5449
 20
59.1827
 30
0.0
 11
89.844
 21
59.1827
 31
0.0
  0
LINE
  8
0
 62
     0
 10
89.844
 20
59.1827
 30
0.0
 11
89.844
 21
60.1638
 31
0.0
  0
LINE
  8
0
 62
     0
 10
89.844
 20
60.1638
 30
0.0
 11
91.5691
 21
60.1638
 31
0.0
  0
LINE
  8
0
 62
     0
 10
91.5691
 20
60.1638
 30
0.0
 11
91.5691
 21
66.4337
 31
0.0
  0
LINE
  8
0
 62
     0
 10
91.5691
 20
66.4337
 30
0.0
 11
92.3946
 21
66.4337
 31
0.0
  0
LINE
  8
0
 62
     0
 10
92.3946
 20
66.4337
 30
0.0
 11
92.3946
 21
69.2326
 31
0.0
  0
LINE
  8
0
 62
     0
 10
92.3946
 20
69.2326
 30
0.0
 11
91.5691
 21
69.2326
 31
0.0
  0
LINE
  8
0
 62
     0
 10
91.5691
 20
69.2326
 30
0.0
 11
91.5691
 21
72.4627
 31
0.0
  0
LINE
  8
0
 62
     0
 10
91.5691
 20
72.4627
 30
0.0
 11
89.844
 21
72.4627
 31
0.0
  0
LINE
  8
0
 62
     0
 10
89.844
 20
72.4627
 30
0.0
 11
89.844
 21
73.3848
 31
0.0
  0
LINE
  8
0
 62
     0
 10
89.844
 20
73.3848
 30
0.0
 11
86.5449
 21
73.3848
 31
0.0
  0
LINE
  8
0
 62
     0
 10
86.5449
 20
73.3848
 30
0.0
 11
86.5449
 21
72.4627
 31
0.0
  0
LINE
  8
0
 62
     0
 10
86.5449
 20
72.4627
 30
0.0
 11
84.8198
 21
72.4627
 31
0.0
  0
LINE
  8
0
 62
     0
 10
84.8198
 20
72.4627
 30
0.0
 11
84.8198
 21
69.2326
 31
0.0
  0
LINE
  8
0
 62
     0
 10
84.8198
 20
69.2326
 30
0.0
 11
83.294
 21
69.2326
 31
0.0
  0
LINE
  8
0
 62
     0
 10
83.294
 20
69.2326
 30
0.0
 11
83.294
 21
73.9331
 31
0.0
  0
LINE
  8
0
 62
     0
 10
83.294
 20
73.9331
 30
0.0
 11
69.2947
 21
73.9331
 31
0.0
  0
LINE
  8
0
 62
     0
 10
138.945
 20
73.3848
 30
0.0
 11
142.244
 21
73.3848
 31
0.0
  0
LINE
  8
0
 62
     0
 10
142.244
 20
73.3848
 30
0.0
 11
142.244
 21
59.1827
 31
0.0
  0
LINE
  8
0
 62
     0
 10
142.244
 20
59.1827
 30
0.0
 11
138.945
 21
59.1827
 31
0.0
  0
LINE
  8
0
 62
     0
 10
138.945
 20
59.1827
 30
0.0
 11
138.945
 21
73.3848
 31
0.0
  0
LINE
  8
0
 62
     0
 10
162.745
 20
73.3848
 30
0.0
 11
166.044
 21
73.3848
 31
0.0
  0
LINE
  8
0
 62
     0
 10
166.044
 20
73.3848
 30
0.0
 11
166.044
 21
59.1827
 31
0.0
  0
LINE
  8
0
 62
     0
 10
166.044
 20
59.1827
 30
0.0
 11
162.745
 21
59.1827
 31
0.0
  0
LINE
  8
0
 62
     0
 10
162.745
 20
59.1827
 30
0.0
 11
162.745
 21
73.3848
 31
0.0
  0
LINE
  8
0
 62
     0
 10
2.61965
 20
73.9331
 30
0.0
 11
16.6192
 21
73.9331
 31
0.0
  0
LINE
  8
0
 62
     0
 10
16.6192
 20
73.9331
 30
0.0
 11
16.6192
 21
59.9338
 31
0.0
  0
LINE
  8
0
 62
     0
 10
16.6192
 20
59.9338
 30
0.0
 11
2.61965
 21
59.9338
 31
0.0
  0
LINE
  8
0
 62
     0
 10
2.61965
 20
59.9338
 30
0.0
 11
2.61965
 21
73.9331
 31
0.0
  0
LINE
  8
0
 62
     0
 10
31.1947
 20
73.9331
 30
0.0
 11
45.194
 21
73.9331
 31
0.0
  0
LINE
  8
0
 62
     0
 10
45.194
 20
73.9331
 30
0.0
 11
45.194
 21
59.9338
 31
0.0
  0
LINE
  8
0
 62
     0
 10
45.194
 20
59.9338
 30
0.0
 11
31.1947
 21
59.9338
 31
0.0
  0
LINE
  8
0
 62
     0
 10
31.1947
 20
59.9338
 30
0.0
 11
31.1947
 21
73.9331
 31
0.0
  0
LINE
  8
0
 62
     0
 10
145.495
 20
73.9331
 30
0.0
 11
159.494
 21
73.9331
 31
0.0
  0
LINE
  8
0
 62
     0
 10
159.494
 20
73.9331
 30
0.0
 11
159.494
 21
59.9338
 31
0.0
  0
LINE
  8
0
 62
     0
 10
159.494
 20
59.9338
 30
0.0
 11
145.495
 21
59.9338
 31
0.0
  0
LINE
  8
0
 62
     0
 10
145.495
 20
59.9338
 30
0.0
 11
145.495
 21
73.9331
 31
0.0
  0
LINE
  8
0
 62
     0
 10
183.595
 20
73.9331
 30
0.0
 11
197.594
 21
73.9331
 31
0.0
  0
LINE
  8
0
 62
     0
 10
197.594
 20
73.9331
 30
0.0
 11
197.594
 21
59.9338
 31
0.0
  0
LINE
  8
0
 62
     0
 10
197.594
 20
59.9338
 30
0.0
 11
183.595
 21
59.9338
 31
0.0
  0
LINE
  8
0
 62
     0
 10
183.595
 20
59.9338
 30
0.0
 11
183.595
 21
73.9331
 31
0.0
  0
ENDSEC
  0
EOF
