  0
SECTION
  2
HEADER
  9
$ACADVER
  1
AC1009
  9
$FILLMODE
 70
 0
  9
$SPLFRAME
 70
 1
  9
$EXTMIN
 10
0
 20
0
 30
0.0
  9
$EXTMAX
 10
1058.33
 20
1058.33
 30
0.0
  0
ENDSEC
  0
SECTION
  2
TABLES
  0
TABLE
  2
LAYER
 70
1
  0
LAYER
  2
0
 70
     0
 62
     7
  6
CONTINUOUS
  0
ENDTAB
  0
ENDSEC
  0
SECTION
  2
ENTITIES
  0
LINE
  8
0
 62
     0
 10
91.2964
 20
113.499
 30
0.0
 11
91.5321
 21
113.49
 31
0.0
  0
LINE
  8
0
 62
     0
 10
91.5321
 20
113.49
 30
0.0
 11
91.7649
 21
113.464
 31
0.0
  0
LINE
  8
0
 62
     0
 10
91.7649
 20
113.464
 30
0.0
 11
91.9963
 21
113.417
 31
0.0
  0
LINE
  8
0
 62
     0
 10
91.9963
 20
113.417
 30
0.0
 11
92.2239
 21
113.353
 31
0.0
  0
LINE
  8
0
 62
     0
 10
92.2239
 20
113.353
 30
0.0
 11
92.4444
 21
113.271
 31
0.0
  0
LINE
  8
0
 62
     0
 10
92.4444
 20
113.271
 30
0.0
 11
92.6578
 21
113.173
 31
0.0
  0
LINE
  8
0
 62
     0
 10
92.6578
 20
113.173
 30
0.0
 11
92.8631
 21
113.057
 31
0.0
  0
LINE
  8
0
 62
     0
 10
92.8631
 20
113.057
 30
0.0
 11
93.0589
 21
112.927
 31
0.0
  0
LINE
  8
0
 62
     0
 10
93.0589
 20
112.927
 30
0.0
 11
93.2448
 21
112.781
 31
0.0
  0
LINE
  8
0
 62
     0
 10
93.2448
 20
112.781
 30
0.0
 11
93.4173
 21
112.621
 31
0.0
  0
LINE
  8
0
 62
     0
 10
93.4173
 20
112.621
 30
0.0
 11
93.5771
 21
112.448
 31
0.0
  0
LINE
  8
0
 62
     0
 10
93.5771
 20
112.448
 30
0.0
 11
93.7232
 21
112.263
 31
0.0
  0
LINE
  8
0
 62
     0
 10
93.7232
 20
112.263
 30
0.0
 11
93.8541
 21
112.068
 31
0.0
  0
LINE
  8
0
 62
     0
 10
93.8541
 20
112.068
 30
0.0
 11
93.9698
 21
111.861
 31
0.0
  0
LINE
  8
0
 62
     0
 10
93.9698
 20
111.861
 30
0.0
 11
94.0675
 21
111.647
 31
0.0
  0
LINE
  8
0
 62
     0
 10
94.0675
 20
111.647
 30
0.0
 11
94.149
 21
111.427
 31
0.0
  0
LINE
  8
0
 62
     0
 10
94.149
 20
111.427
 30
0.0
 11
94.2139
 21
111.199
 31
0.0
  0
LINE
  8
0
 62
     0
 10
94.2139
 20
111.199
 30
0.0
 11
94.2591
 21
110.969
 31
0.0
  0
LINE
  8
0
 62
     0
 10
94.2591
 20
110.969
 30
0.0
 11
94.2869
 21
110.735
 31
0.0
  0
LINE
  8
0
 62
     0
 10
94.2869
 20
110.735
 30
0.0
 11
94.2964
 21
110.5
 31
0.0
  0
LINE
  8
0
 62
     0
 10
94.2964
 20
110.5
 30
0.0
 11
94.2964
 21
3.24804
 31
0.0
  0
LINE
  8
0
 62
     0
 10
94.2964
 20
3.24804
 30
0.0
 11
94.2869
 21
3.01239
 31
0.0
  0
LINE
  8
0
 62
     0
 10
94.2869
 20
3.01239
 30
0.0
 11
94.2591
 21
2.7795
 31
0.0
  0
LINE
  8
0
 62
     0
 10
94.2591
 20
2.7795
 30
0.0
 11
94.2139
 21
2.54799
 31
0.0
  0
LINE
  8
0
 62
     0
 10
94.2139
 20
2.54799
 30
0.0
 11
94.149
 21
2.32062
 31
0.0
  0
LINE
  8
0
 62
     0
 10
94.149
 20
2.32062
 30
0.0
 11
94.0675
 21
2.10013
 31
0.0
  0
LINE
  8
0
 62
     0
 10
94.0675
 20
2.10013
 30
0.0
 11
93.9698
 21
1.88654
 31
0.0
  0
LINE
  8
0
 62
     0
 10
93.9698
 20
1.88654
 30
0.0
 11
93.8541
 21
1.68121
 31
0.0
  0
LINE
  8
0
 62
     0
 10
93.8541
 20
1.68121
 30
0.0
 11
93.7232
 21
1.48553
 31
0.0
  0
LINE
  8
0
 62
     0
 10
93.7232
 20
1.48553
 30
0.0
 11
93.5771
 21
1.29949
 31
0.0
  0
LINE
  8
0
 62
     0
 10
93.5771
 20
1.29949
 30
0.0
 11
93.4173
 21
1.12723
 31
0.0
  0
LINE
  8
0
 62
     0
 10
93.4173
 20
1.12723
 30
0.0
 11
93.2448
 21
0.967384
 31
0.0
  0
LINE
  8
0
 62
     0
 10
93.2448
 20
0.967384
 30
0.0
 11
93.0589
 21
0.821313
 31
0.0
  0
LINE
  8
0
 62
     0
 10
93.0589
 20
0.821313
 30
0.0
 11
92.8631
 21
0.690397
 31
0.0
  0
LINE
  8
0
 62
     0
 10
92.8631
 20
0.690397
 30
0.0
 11
92.6578
 21
0.574643
 31
0.0
  0
LINE
  8
0
 62
     0
 10
92.6578
 20
0.574643
 30
0.0
 11
92.4444
 21
0.4768
 31
0.0
  0
LINE
  8
0
 62
     0
 10
92.4444
 20
0.4768
 30
0.0
 11
92.2239
 21
0.395496
 31
0.0
  0
LINE
  8
0
 62
     0
 10
92.2239
 20
0.395496
 30
0.0
 11
91.9963
 21
0.330729
 31
0.0
  0
LINE
  8
0
 62
     0
 10
91.9963
 20
0.330729
 30
0.0
 11
91.7649
 21
0.285254
 31
0.0
  0
LINE
  8
0
 62
     0
 10
91.7649
 20
0.285254
 30
0.0
 11
91.5321
 21
0.257693
 31
0.0
  0
LINE
  8
0
 62
     0
 10
91.5321
 20
0.257693
 30
0.0
 11
91.295
 21
0.248047
 31
0.0
  0
LINE
  8
0
 62
     0
 10
91.295
 20
0.248047
 30
0.0
 11
3.09507
 21
0.248047
 31
0.0
  0
LINE
  8
0
 62
     0
 10
3.09507
 20
0.248047
 30
0.0
 11
2.85943
 21
0.257693
 31
0.0
  0
LINE
  8
0
 62
     0
 10
2.85943
 20
0.257693
 30
0.0
 11
2.62516
 21
0.285254
 31
0.0
  0
LINE
  8
0
 62
     0
 10
2.62516
 20
0.285254
 30
0.0
 11
2.39503
 21
0.330729
 31
0.0
  0
LINE
  8
0
 62
     0
 10
2.39503
 20
0.330729
 30
0.0
 11
2.16765
 21
0.395496
 31
0.0
  0
LINE
  8
0
 62
     0
 10
2.16765
 20
0.395496
 30
0.0
 11
1.94717
 21
0.4768
 31
0.0
  0
LINE
  8
0
 62
     0
 10
1.94717
 20
0.4768
 30
0.0
 11
1.73357
 21
0.574643
 31
0.0
  0
LINE
  8
0
 62
     0
 10
1.73357
 20
0.574643
 30
0.0
 11
1.52687
 21
0.690397
 31
0.0
  0
LINE
  8
0
 62
     0
 10
1.52687
 20
0.690397
 30
0.0
 11
1.33119
 21
0.821313
 31
0.0
  0
LINE
  8
0
 62
     0
 10
1.33119
 20
0.821313
 30
0.0
 11
1.14653
 21
0.967384
 31
0.0
  0
LINE
  8
0
 62
     0
 10
1.14653
 20
0.967384
 30
0.0
 11
0.972894
 21
1.12723
 31
0.0
  0
LINE
  8
0
 62
     0
 10
0.972894
 20
1.12723
 30
0.0
 11
0.813043
 21
1.29949
 31
0.0
  0
LINE
  8
0
 62
     0
 10
0.813043
 20
1.29949
 30
0.0
 11
0.666972
 21
1.48553
 31
0.0
  0
LINE
  8
0
 62
     0
 10
0.666972
 20
1.48553
 30
0.0
 11
0.537436
 21
1.68121
 31
0.0
  0
LINE
  8
0
 62
     0
 10
0.537436
 20
1.68121
 30
0.0
 11
0.421679
 21
1.88654
 31
0.0
  0
LINE
  8
0
 62
     0
 10
0.421679
 20
1.88654
 30
0.0
 11
0.323839
 21
2.10013
 31
0.0
  0
LINE
  8
0
 62
     0
 10
0.323839
 20
2.10013
 30
0.0
 11
0.241157
 21
2.32062
 31
0.0
  0
LINE
  8
0
 62
     0
 10
0.241157
 20
2.32062
 30
0.0
 11
0.177767
 21
2.54799
 31
0.0
  0
LINE
  8
0
 62
     0
 10
0.177767
 20
2.54799
 30
0.0
 11
0.130914
 21
2.7795
 31
0.0
  0
LINE
  8
0
 62
     0
 10
0.130914
 20
2.7795
 30
0.0
 11
0.104731
 21
3.01239
 31
0.0
  0
LINE
  8
0
 62
     0
 10
0.104731
 20
3.01239
 30
0.0
 11
0.0950846
 21
3.24804
 31
0.0
  0
LINE
  8
0
 62
     0
 10
0.0950846
 20
3.24804
 30
0.0
 11
0.0950846
 21
110.5
 31
0.0
  0
LINE
  8
0
 62
     0
 10
0.0950846
 20
110.5
 30
0.0
 11
0.104731
 21
110.735
 31
0.0
  0
LINE
  8
0
 62
     0
 10
0.104731
 20
110.735
 30
0.0
 11
0.130914
 21
110.969
 31
0.0
  0
LINE
  8
0
 62
     0
 10
0.130914
 20
110.969
 30
0.0
 11
0.177767
 21
111.199
 31
0.0
  0
LINE
  8
0
 62
     0
 10
0.177767
 20
111.199
 30
0.0
 11
0.241157
 21
111.427
 31
0.0
  0
LINE
  8
0
 62
     0
 10
0.241157
 20
111.427
 30
0.0
 11
0.323839
 21
111.647
 31
0.0
  0
LINE
  8
0
 62
     0
 10
0.323839
 20
111.647
 30
0.0
 11
0.421679
 21
111.861
 31
0.0
  0
LINE
  8
0
 62
     0
 10
0.421679
 20
111.861
 30
0.0
 11
0.537436
 21
112.068
 31
0.0
  0
LINE
  8
0
 62
     0
 10
0.537436
 20
112.068
 30
0.0
 11
0.666972
 21
112.263
 31
0.0
  0
LINE
  8
0
 62
     0
 10
0.666972
 20
112.263
 30
0.0
 11
0.813043
 21
112.448
 31
0.0
  0
LINE
  8
0
 62
     0
 10
0.813043
 20
112.448
 30
0.0
 11
0.972894
 21
112.621
 31
0.0
  0
LINE
  8
0
 62
     0
 10
0.972894
 20
112.621
 30
0.0
 11
1.14653
 21
112.781
 31
0.0
  0
LINE
  8
0
 62
     0
 10
1.14653
 20
112.781
 30
0.0
 11
1.33119
 21
112.927
 31
0.0
  0
LINE
  8
0
 62
     0
 10
1.33119
 20
112.927
 30
0.0
 11
1.52687
 21
113.057
 31
0.0
  0
LINE
  8
0
 62
     0
 10
1.52687
 20
113.057
 30
0.0
 11
1.73357
 21
113.173
 31
0.0
  0
LINE
  8
0
 62
     0
 10
1.73357
 20
113.173
 30
0.0
 11
1.94717
 21
113.271
 31
0.0
  0
LINE
  8
0
 62
     0
 10
1.94717
 20
113.271
 30
0.0
 11
2.16765
 21
113.353
 31
0.0
  0
LINE
  8
0
 62
     0
 10
2.16765
 20
113.353
 30
0.0
 11
2.39503
 21
113.417
 31
0.0
  0
LINE
  8
0
 62
     0
 10
2.39503
 20
113.417
 30
0.0
 11
2.62516
 21
113.464
 31
0.0
  0
LINE
  8
0
 62
     0
 10
2.62516
 20
113.464
 30
0.0
 11
2.85943
 21
113.49
 31
0.0
  0
LINE
  8
0
 62
     0
 10
2.85943
 20
113.49
 30
0.0
 11
3.09507
 21
113.499
 31
0.0
  0
LINE
  8
0
 62
     0
 10
3.09507
 20
113.499
 30
0.0
 11
91.2964
 21
113.499
 31
0.0
  0
LINE
  8
0
 62
     0
 10
90.8322
 20
4.67431
 30
0.0
 11
90.4145
 21
4.46207
 31
0.0
  0
LINE
  8
0
 62
     0
 10
90.4145
 20
4.46207
 30
0.0
 11
90.0825
 21
4.12997
 31
0.0
  0
LINE
  8
0
 62
     0
 10
90.0825
 20
4.12997
 30
0.0
 11
89.8701
 21
3.71242
 31
0.0
  0
LINE
  8
0
 62
     0
 10
89.8701
 20
3.71242
 30
0.0
 11
89.7971
 21
3.24804
 31
0.0
  0
LINE
  8
0
 62
     0
 10
89.7971
 20
3.24804
 30
0.0
 11
89.8701
 21
2.78501
 31
0.0
  0
LINE
  8
0
 62
     0
 10
89.8701
 20
2.78501
 30
0.0
 11
90.0825
 21
2.36747
 31
0.0
  0
LINE
  8
0
 62
     0
 10
90.0825
 20
2.36747
 30
0.0
 11
90.4145
 21
2.03536
 31
0.0
  0
LINE
  8
0
 62
     0
 10
90.4145
 20
2.03536
 30
0.0
 11
90.8322
 21
1.82177
 31
0.0
  0
LINE
  8
0
 62
     0
 10
90.8322
 20
1.82177
 30
0.0
 11
91.2964
 21
1.74735
 31
0.0
  0
LINE
  8
0
 62
     0
 10
91.2964
 20
1.74735
 30
0.0
 11
91.7593
 21
1.82177
 31
0.0
  0
LINE
  8
0
 62
     0
 10
91.7593
 20
1.82177
 30
0.0
 11
92.177
 21
2.03536
 31
0.0
  0
LINE
  8
0
 62
     0
 10
92.177
 20
2.03536
 30
0.0
 11
92.5089
 21
2.36747
 31
0.0
  0
LINE
  8
0
 62
     0
 10
92.5089
 20
2.36747
 30
0.0
 11
92.7227
 21
2.78501
 31
0.0
  0
LINE
  8
0
 62
     0
 10
92.7227
 20
2.78501
 30
0.0
 11
92.7971
 21
3.24804
 31
0.0
  0
LINE
  8
0
 62
     0
 10
92.7971
 20
3.24804
 30
0.0
 11
92.7227
 21
3.71242
 31
0.0
  0
LINE
  8
0
 62
     0
 10
92.7227
 20
3.71242
 30
0.0
 11
92.5089
 21
4.12997
 31
0.0
  0
LINE
  8
0
 62
     0
 10
92.5089
 20
4.12997
 30
0.0
 11
92.177
 21
4.46207
 31
0.0
  0
LINE
  8
0
 62
     0
 10
92.177
 20
4.46207
 30
0.0
 11
91.7593
 21
4.67431
 31
0.0
  0
LINE
  8
0
 62
     0
 10
91.7593
 20
4.67431
 30
0.0
 11
91.2964
 21
4.74733
 31
0.0
  0
LINE
  8
0
 62
     0
 10
91.2964
 20
4.74733
 30
0.0
 11
90.8322
 21
4.67431
 31
0.0
  0
LINE
  8
0
 62
     0
 10
2.63205
 20
4.67431
 30
0.0
 11
2.21313
 21
4.46207
 31
0.0
  0
LINE
  8
0
 62
     0
 10
2.21313
 20
4.46207
 30
0.0
 11
1.88102
 21
4.12997
 31
0.0
  0
LINE
  8
0
 62
     0
 10
1.88102
 20
4.12997
 30
0.0
 11
1.6688
 21
3.71242
 31
0.0
  0
LINE
  8
0
 62
     0
 10
1.6688
 20
3.71242
 30
0.0
 11
1.59439
 21
3.24804
 31
0.0
  0
LINE
  8
0
 62
     0
 10
1.59439
 20
3.24804
 30
0.0
 11
1.6688
 21
2.78501
 31
0.0
  0
LINE
  8
0
 62
     0
 10
1.6688
 20
2.78501
 30
0.0
 11
1.88102
 21
2.36747
 31
0.0
  0
LINE
  8
0
 62
     0
 10
1.88102
 20
2.36747
 30
0.0
 11
2.21313
 21
2.03536
 31
0.0
  0
LINE
  8
0
 62
     0
 10
2.21313
 20
2.03536
 30
0.0
 11
2.63205
 21
1.82177
 31
0.0
  0
LINE
  8
0
 62
     0
 10
2.63205
 20
1.82177
 30
0.0
 11
3.09507
 21
1.74735
 31
0.0
  0
LINE
  8
0
 62
     0
 10
3.09507
 20
1.74735
 30
0.0
 11
3.55808
 21
1.82177
 31
0.0
  0
LINE
  8
0
 62
     0
 10
3.55808
 20
1.82177
 30
0.0
 11
3.97701
 21
2.03536
 31
0.0
  0
LINE
  8
0
 62
     0
 10
3.97701
 20
2.03536
 30
0.0
 11
4.30911
 21
2.36747
 31
0.0
  0
LINE
  8
0
 62
     0
 10
4.30911
 20
2.36747
 30
0.0
 11
4.52134
 21
2.78501
 31
0.0
  0
LINE
  8
0
 62
     0
 10
4.52134
 20
2.78501
 30
0.0
 11
4.59574
 21
3.24804
 31
0.0
  0
LINE
  8
0
 62
     0
 10
4.59574
 20
3.24804
 30
0.0
 11
4.52134
 21
3.71242
 31
0.0
  0
LINE
  8
0
 62
     0
 10
4.52134
 20
3.71242
 30
0.0
 11
4.30911
 21
4.12997
 31
0.0
  0
LINE
  8
0
 62
     0
 10
4.30911
 20
4.12997
 30
0.0
 11
3.97701
 21
4.46207
 31
0.0
  0
LINE
  8
0
 62
     0
 10
3.97701
 20
4.46207
 30
0.0
 11
3.55808
 21
4.67431
 31
0.0
  0
LINE
  8
0
 62
     0
 10
3.55808
 20
4.67431
 30
0.0
 11
3.09507
 21
4.74733
 31
0.0
  0
LINE
  8
0
 62
     0
 10
3.09507
 20
4.74733
 30
0.0
 11
2.63205
 21
4.67431
 31
0.0
  0
LINE
  8
0
 62
     0
 10
21.1446
 20
25.7735
 30
0.0
 11
21.1446
 21
24.7744
 31
0.0
  0
LINE
  8
0
 62
     0
 10
21.1446
 20
24.7744
 30
0.0
 11
20.344
 21
24.7744
 31
0.0
  0
LINE
  8
0
 62
     0
 10
20.344
 20
24.7744
 30
0.0
 11
20.344
 21
21.6738
 31
0.0
  0
LINE
  8
0
 62
     0
 10
20.344
 20
21.6738
 30
0.0
 11
21.1446
 21
21.6738
 31
0.0
  0
LINE
  8
0
 62
     0
 10
21.1446
 20
21.6738
 30
0.0
 11
21.1446
 21
21.0743
 31
0.0
  0
LINE
  8
0
 62
     0
 10
21.1446
 20
21.0743
 30
0.0
 11
19.6205
 21
21.0743
 31
0.0
  0
LINE
  8
0
 62
     0
 10
19.6205
 20
21.0743
 30
0.0
 11
19.6205
 21
24.3044
 31
0.0
  0
LINE
  8
0
 62
     0
 10
19.6205
 20
24.3044
 30
0.0
 11
17.8938
 21
24.3044
 31
0.0
  0
LINE
  8
0
 62
     0
 10
17.8938
 20
24.3044
 30
0.0
 11
17.8938
 21
25.2236
 31
0.0
  0
LINE
  8
0
 62
     0
 10
17.8938
 20
25.2236
 30
0.0
 11
14.5948
 21
25.2236
 31
0.0
  0
LINE
  8
0
 62
     0
 10
14.5948
 20
25.2236
 30
0.0
 11
14.5948
 21
24.3044
 31
0.0
  0
LINE
  8
0
 62
     0
 10
14.5948
 20
24.3044
 30
0.0
 11
12.8709
 21
24.3044
 31
0.0
  0
LINE
  8
0
 62
     0
 10
12.8709
 20
24.3044
 30
0.0
 11
12.8709
 21
21.0743
 31
0.0
  0
LINE
  8
0
 62
     0
 10
12.8709
 20
21.0743
 30
0.0
 11
12.044
 21
21.0743
 31
0.0
  0
LINE
  8
0
 62
     0
 10
12.044
 20
21.0743
 30
0.0
 11
12.044
 21
18.2742
 31
0.0
  0
LINE
  8
0
 62
     0
 10
12.044
 20
18.2742
 30
0.0
 11
12.8709
 21
18.2742
 31
0.0
  0
LINE
  8
0
 62
     0
 10
12.8709
 20
18.2742
 30
0.0
 11
12.8709
 21
12.0041
 31
0.0
  0
LINE
  8
0
 62
     0
 10
12.8709
 20
12.0041
 30
0.0
 11
14.5948
 21
12.0041
 31
0.0
  0
LINE
  8
0
 62
     0
 10
14.5948
 20
12.0041
 30
0.0
 11
14.5948
 21
11.0243
 31
0.0
  0
LINE
  8
0
 62
     0
 10
14.5948
 20
11.0243
 30
0.0
 11
17.8938
 21
11.0243
 31
0.0
  0
LINE
  8
0
 62
     0
 10
17.8938
 20
11.0243
 30
0.0
 11
17.8938
 21
12.0041
 31
0.0
  0
LINE
  8
0
 62
     0
 10
17.8938
 20
12.0041
 30
0.0
 11
19.6205
 21
12.0041
 31
0.0
  0
LINE
  8
0
 62
     0
 10
19.6205
 20
12.0041
 30
0.0
 11
19.6205
 21
16.4744
 31
0.0
  0
LINE
  8
0
 62
     0
 10
19.6205
 20
16.4744
 30
0.0
 11
21.1446
 21
16.4744
 31
0.0
  0
LINE
  8
0
 62
     0
 10
21.1446
 20
16.4744
 30
0.0
 11
21.1446
 21
15.8736
 31
0.0
  0
LINE
  8
0
 62
     0
 10
21.1446
 20
15.8736
 30
0.0
 11
20.344
 21
15.8736
 31
0.0
  0
LINE
  8
0
 62
     0
 10
20.344
 20
15.8736
 30
0.0
 11
20.344
 21
12.7744
 31
0.0
  0
LINE
  8
0
 62
     0
 10
20.344
 20
12.7744
 30
0.0
 11
21.1446
 21
12.7744
 31
0.0
  0
LINE
  8
0
 62
     0
 10
21.1446
 20
12.7744
 30
0.0
 11
21.1446
 21
11.774
 31
0.0
  0
LINE
  8
0
 62
     0
 10
21.1446
 20
11.774
 30
0.0
 11
35.1455
 21
11.774
 31
0.0
  0
LINE
  8
0
 62
     0
 10
35.1455
 20
11.774
 30
0.0
 11
35.1455
 21
12.7744
 31
0.0
  0
LINE
  8
0
 62
     0
 10
35.1455
 20
12.7744
 30
0.0
 11
35.9449
 21
12.7744
 31
0.0
  0
LINE
  8
0
 62
     0
 10
35.9449
 20
12.7744
 30
0.0
 11
35.9449
 21
15.8736
 31
0.0
  0
LINE
  8
0
 62
     0
 10
35.9449
 20
15.8736
 30
0.0
 11
35.1455
 21
15.8736
 31
0.0
  0
LINE
  8
0
 62
     0
 10
35.1455
 20
15.8736
 30
0.0
 11
35.1455
 21
16.4744
 31
0.0
  0
LINE
  8
0
 62
     0
 10
35.1455
 20
16.4744
 30
0.0
 11
36.6695
 21
16.4744
 31
0.0
  0
LINE
  8
0
 62
     0
 10
36.6695
 20
16.4744
 30
0.0
 11
36.6695
 21
12.0041
 31
0.0
  0
LINE
  8
0
 62
     0
 10
36.6695
 20
12.0041
 30
0.0
 11
38.3949
 21
12.0041
 31
0.0
  0
LINE
  8
0
 62
     0
 10
38.3949
 20
12.0041
 30
0.0
 11
38.3949
 21
11.0243
 31
0.0
  0
LINE
  8
0
 62
     0
 10
38.3949
 20
11.0243
 30
0.0
 11
41.6941
 21
11.0243
 31
0.0
  0
LINE
  8
0
 62
     0
 10
41.6941
 20
11.0243
 30
0.0
 11
41.6941
 21
12.0041
 31
0.0
  0
LINE
  8
0
 62
     0
 10
41.6941
 20
12.0041
 30
0.0
 11
43.4192
 21
12.0041
 31
0.0
  0
LINE
  8
0
 62
     0
 10
43.4192
 20
12.0041
 30
0.0
 11
43.4192
 21
18.2742
 31
0.0
  0
LINE
  8
0
 62
     0
 10
43.4192
 20
18.2742
 30
0.0
 11
44.2461
 21
18.2742
 31
0.0
  0
LINE
  8
0
 62
     0
 10
44.2461
 20
18.2742
 30
0.0
 11
44.2461
 21
21.0743
 31
0.0
  0
LINE
  8
0
 62
     0
 10
44.2461
 20
21.0743
 30
0.0
 11
43.4192
 21
21.0743
 31
0.0
  0
LINE
  8
0
 62
     0
 10
43.4192
 20
21.0743
 30
0.0
 11
43.4192
 21
24.3044
 31
0.0
  0
LINE
  8
0
 62
     0
 10
43.4192
 20
24.3044
 30
0.0
 11
41.6941
 21
24.3044
 31
0.0
  0
LINE
  8
0
 62
     0
 10
41.6941
 20
24.3044
 30
0.0
 11
41.6941
 21
25.2236
 31
0.0
  0
LINE
  8
0
 62
     0
 10
41.6941
 20
25.2236
 30
0.0
 11
38.3949
 21
25.2236
 31
0.0
  0
LINE
  8
0
 62
     0
 10
38.3949
 20
25.2236
 30
0.0
 11
38.3949
 21
24.3044
 31
0.0
  0
LINE
  8
0
 62
     0
 10
38.3949
 20
24.3044
 30
0.0
 11
36.6695
 21
24.3044
 31
0.0
  0
LINE
  8
0
 62
     0
 10
36.6695
 20
24.3044
 30
0.0
 11
36.6695
 21
21.0743
 31
0.0
  0
LINE
  8
0
 62
     0
 10
36.6695
 20
21.0743
 30
0.0
 11
35.1455
 21
21.0743
 31
0.0
  0
LINE
  8
0
 62
     0
 10
35.1455
 20
21.0743
 30
0.0
 11
35.1455
 21
21.6738
 31
0.0
  0
LINE
  8
0
 62
     0
 10
35.1455
 20
21.6738
 30
0.0
 11
35.9449
 21
21.6738
 31
0.0
  0
LINE
  8
0
 62
     0
 10
35.9449
 20
21.6738
 30
0.0
 11
35.9449
 21
24.7744
 31
0.0
  0
LINE
  8
0
 62
     0
 10
35.9449
 20
24.7744
 30
0.0
 11
35.1455
 21
24.7744
 31
0.0
  0
LINE
  8
0
 62
     0
 10
35.1455
 20
24.7744
 30
0.0
 11
35.1455
 21
25.7735
 31
0.0
  0
LINE
  8
0
 62
     0
 10
35.1455
 20
25.7735
 30
0.0
 11
21.1446
 21
25.7735
 31
0.0
  0
LINE
  8
0
 62
     0
 10
49.7209
 20
25.7735
 30
0.0
 11
49.7209
 21
24.7744
 31
0.0
  0
LINE
  8
0
 62
     0
 10
49.7209
 20
24.7744
 30
0.0
 11
48.9204
 21
24.7744
 31
0.0
  0
LINE
  8
0
 62
     0
 10
48.9204
 20
24.7744
 30
0.0
 11
48.9204
 21
21.6738
 31
0.0
  0
LINE
  8
0
 62
     0
 10
48.9204
 20
21.6738
 30
0.0
 11
49.7209
 21
21.6738
 31
0.0
  0
LINE
  8
0
 62
     0
 10
49.7209
 20
21.6738
 30
0.0
 11
49.7209
 21
15.8736
 31
0.0
  0
LINE
  8
0
 62
     0
 10
49.7209
 20
15.8736
 30
0.0
 11
48.9204
 21
15.8736
 31
0.0
  0
LINE
  8
0
 62
     0
 10
48.9204
 20
15.8736
 30
0.0
 11
48.9204
 21
12.7744
 31
0.0
  0
LINE
  8
0
 62
     0
 10
48.9204
 20
12.7744
 30
0.0
 11
49.7209
 21
12.7744
 31
0.0
  0
LINE
  8
0
 62
     0
 10
49.7209
 20
12.7744
 30
0.0
 11
49.7209
 21
11.774
 31
0.0
  0
LINE
  8
0
 62
     0
 10
49.7209
 20
11.774
 30
0.0
 11
63.7205
 21
11.774
 31
0.0
  0
LINE
  8
0
 62
     0
 10
63.7205
 20
11.774
 30
0.0
 11
63.7205
 21
12.7744
 31
0.0
  0
LINE
  8
0
 62
     0
 10
63.7205
 20
12.7744
 30
0.0
 11
64.5213
 21
12.7744
 31
0.0
  0
LINE
  8
0
 62
     0
 10
64.5213
 20
12.7744
 30
0.0
 11
64.5213
 21
15.8736
 31
0.0
  0
LINE
  8
0
 62
     0
 10
64.5213
 20
15.8736
 30
0.0
 11
63.7205
 21
15.8736
 31
0.0
  0
LINE
  8
0
 62
     0
 10
63.7205
 20
15.8736
 30
0.0
 11
63.7205
 21
21.6738
 31
0.0
  0
LINE
  8
0
 62
     0
 10
63.7205
 20
21.6738
 30
0.0
 11
64.5213
 21
21.6738
 31
0.0
  0
LINE
  8
0
 62
     0
 10
64.5213
 20
21.6738
 30
0.0
 11
64.5213
 21
24.7744
 31
0.0
  0
LINE
  8
0
 62
     0
 10
64.5213
 20
24.7744
 30
0.0
 11
63.7205
 21
24.7744
 31
0.0
  0
LINE
  8
0
 62
     0
 10
63.7205
 20
24.7744
 30
0.0
 11
63.7205
 21
25.7735
 31
0.0
  0
LINE
  8
0
 62
     0
 10
63.7205
 20
25.7735
 30
0.0
 11
49.7209
 21
25.7735
 31
0.0
  0
LINE
  8
0
 62
     0
 10
75.2697
 20
44.3988
 30
0.0
 11
75.2697
 21
43.5737
 31
0.0
  0
LINE
  8
0
 62
     0
 10
75.2697
 20
43.5737
 30
0.0
 11
69.0012
 21
43.5737
 31
0.0
  0
LINE
  8
0
 62
     0
 10
69.0012
 20
43.5737
 30
0.0
 11
69.0012
 21
41.8497
 31
0.0
  0
LINE
  8
0
 62
     0
 10
69.0012
 20
41.8497
 30
0.0
 11
68.0201
 21
41.8497
 31
0.0
  0
LINE
  8
0
 62
     0
 10
68.0201
 20
41.8497
 30
0.0
 11
68.0201
 21
38.5491
 31
0.0
  0
LINE
  8
0
 62
     0
 10
68.0201
 20
38.5491
 30
0.0
 11
69.0012
 21
38.5491
 31
0.0
  0
LINE
  8
0
 62
     0
 10
69.0012
 20
38.5491
 30
0.0
 11
69.0012
 21
36.824
 31
0.0
  0
LINE
  8
0
 62
     0
 10
69.0012
 20
36.824
 30
0.0
 11
73.4702
 21
36.824
 31
0.0
  0
LINE
  8
0
 62
     0
 10
73.4702
 20
36.824
 30
0.0
 11
73.4702
 21
35.2986
 31
0.0
  0
LINE
  8
0
 62
     0
 10
73.4702
 20
35.2986
 30
0.0
 11
72.8694
 21
35.2986
 31
0.0
  0
LINE
  8
0
 62
     0
 10
72.8694
 20
35.2986
 30
0.0
 11
72.8694
 21
36.099
 31
0.0
  0
LINE
  8
0
 62
     0
 10
72.8694
 20
36.099
 30
0.0
 11
69.7699
 21
36.099
 31
0.0
  0
LINE
  8
0
 62
     0
 10
69.7699
 20
36.099
 30
0.0
 11
69.7699
 21
35.2986
 31
0.0
  0
LINE
  8
0
 62
     0
 10
69.7699
 20
35.2986
 30
0.0
 11
68.7709
 21
35.2986
 31
0.0
  0
LINE
  8
0
 62
     0
 10
68.7709
 20
35.2986
 30
0.0
 11
68.7709
 21
21.299
 31
0.0
  0
LINE
  8
0
 62
     0
 10
68.7709
 20
21.299
 30
0.0
 11
69.7699
 21
21.299
 31
0.0
  0
LINE
  8
0
 62
     0
 10
69.7699
 20
21.299
 30
0.0
 11
69.7699
 21
20.4983
 31
0.0
  0
LINE
  8
0
 62
     0
 10
69.7699
 20
20.4983
 30
0.0
 11
72.8694
 21
20.4983
 31
0.0
  0
LINE
  8
0
 62
     0
 10
72.8694
 20
20.4983
 30
0.0
 11
72.8694
 21
21.299
 31
0.0
  0
LINE
  8
0
 62
     0
 10
72.8694
 20
21.299
 30
0.0
 11
73.4702
 21
21.299
 31
0.0
  0
LINE
  8
0
 62
     0
 10
73.4702
 20
21.299
 30
0.0
 11
73.4702
 21
19.7735
 31
0.0
  0
LINE
  8
0
 62
     0
 10
73.4702
 20
19.7735
 30
0.0
 11
69.0012
 21
19.7735
 31
0.0
  0
LINE
  8
0
 62
     0
 10
69.0012
 20
19.7735
 30
0.0
 11
69.0012
 21
18.0496
 31
0.0
  0
LINE
  8
0
 62
     0
 10
69.0012
 20
18.0496
 30
0.0
 11
68.0201
 21
18.0496
 31
0.0
  0
LINE
  8
0
 62
     0
 10
68.0201
 20
18.0496
 30
0.0
 11
68.0201
 21
14.7491
 31
0.0
  0
LINE
  8
0
 62
     0
 10
68.0201
 20
14.7491
 30
0.0
 11
69.0012
 21
14.7491
 31
0.0
  0
LINE
  8
0
 62
     0
 10
69.0012
 20
14.7491
 30
0.0
 11
69.0012
 21
13.0238
 31
0.0
  0
LINE
  8
0
 62
     0
 10
69.0012
 20
13.0238
 30
0.0
 11
75.2697
 21
13.0238
 31
0.0
  0
LINE
  8
0
 62
     0
 10
75.2697
 20
13.0238
 30
0.0
 11
75.2697
 21
12.1984
 31
0.0
  0
LINE
  8
0
 62
     0
 10
75.2697
 20
12.1984
 30
0.0
 11
78.0701
 21
12.1984
 31
0.0
  0
LINE
  8
0
 62
     0
 10
78.0701
 20
12.1984
 30
0.0
 11
78.0701
 21
13.0238
 31
0.0
  0
LINE
  8
0
 62
     0
 10
78.0701
 20
13.0238
 30
0.0
 11
81.3001
 21
13.0238
 31
0.0
  0
LINE
  8
0
 62
     0
 10
81.3001
 20
13.0238
 30
0.0
 11
81.3001
 21
14.7491
 31
0.0
  0
LINE
  8
0
 62
     0
 10
81.3001
 20
14.7491
 30
0.0
 11
82.2205
 21
14.7491
 31
0.0
  0
LINE
  8
0
 62
     0
 10
82.2205
 20
14.7491
 30
0.0
 11
82.2205
 21
18.0496
 31
0.0
  0
LINE
  8
0
 62
     0
 10
82.2205
 20
18.0496
 30
0.0
 11
81.3001
 21
18.0496
 31
0.0
  0
LINE
  8
0
 62
     0
 10
81.3001
 20
18.0496
 30
0.0
 11
81.3001
 21
19.7735
 31
0.0
  0
LINE
  8
0
 62
     0
 10
81.3001
 20
19.7735
 30
0.0
 11
78.0701
 21
19.7735
 31
0.0
  0
LINE
  8
0
 62
     0
 10
78.0701
 20
19.7735
 30
0.0
 11
78.0701
 21
21.299
 31
0.0
  0
LINE
  8
0
 62
     0
 10
78.0701
 20
21.299
 30
0.0
 11
78.6709
 21
21.299
 31
0.0
  0
LINE
  8
0
 62
     0
 10
78.6709
 20
21.299
 30
0.0
 11
78.6709
 21
20.4983
 31
0.0
  0
LINE
  8
0
 62
     0
 10
78.6709
 20
20.4983
 30
0.0
 11
81.77
 21
20.4983
 31
0.0
  0
LINE
  8
0
 62
     0
 10
81.77
 20
20.4983
 30
0.0
 11
81.77
 21
21.299
 31
0.0
  0
LINE
  8
0
 62
     0
 10
81.77
 20
21.299
 30
0.0
 11
82.7705
 21
21.299
 31
0.0
  0
LINE
  8
0
 62
     0
 10
82.7705
 20
21.299
 30
0.0
 11
82.7705
 21
35.2986
 31
0.0
  0
LINE
  8
0
 62
     0
 10
82.7705
 20
35.2986
 30
0.0
 11
81.77
 21
35.2986
 31
0.0
  0
LINE
  8
0
 62
     0
 10
81.77
 20
35.2986
 30
0.0
 11
81.77
 21
36.099
 31
0.0
  0
LINE
  8
0
 62
     0
 10
81.77
 20
36.099
 30
0.0
 11
78.6709
 21
36.099
 31
0.0
  0
LINE
  8
0
 62
     0
 10
78.6709
 20
36.099
 30
0.0
 11
78.6709
 21
35.2986
 31
0.0
  0
LINE
  8
0
 62
     0
 10
78.6709
 20
35.2986
 30
0.0
 11
78.0701
 21
35.2986
 31
0.0
  0
LINE
  8
0
 62
     0
 10
78.0701
 20
35.2986
 30
0.0
 11
78.0701
 21
36.824
 31
0.0
  0
LINE
  8
0
 62
     0
 10
78.0701
 20
36.824
 30
0.0
 11
81.3001
 21
36.824
 31
0.0
  0
LINE
  8
0
 62
     0
 10
81.3001
 20
36.824
 30
0.0
 11
81.3001
 21
38.5491
 31
0.0
  0
LINE
  8
0
 62
     0
 10
81.3001
 20
38.5491
 30
0.0
 11
82.2205
 21
38.5491
 31
0.0
  0
LINE
  8
0
 62
     0
 10
82.2205
 20
38.5491
 30
0.0
 11
82.2205
 21
41.8497
 31
0.0
  0
LINE
  8
0
 62
     0
 10
82.2205
 20
41.8497
 30
0.0
 11
81.3001
 21
41.8497
 31
0.0
  0
LINE
  8
0
 62
     0
 10
81.3001
 20
41.8497
 30
0.0
 11
81.3001
 21
43.5737
 31
0.0
  0
LINE
  8
0
 62
     0
 10
81.3001
 20
43.5737
 30
0.0
 11
78.0701
 21
43.5737
 31
0.0
  0
LINE
  8
0
 62
     0
 10
78.0701
 20
43.5737
 30
0.0
 11
78.0701
 21
44.3988
 31
0.0
  0
LINE
  8
0
 62
     0
 10
78.0701
 20
44.3988
 30
0.0
 11
75.2697
 21
44.3988
 31
0.0
  0
LINE
  8
0
 62
     0
 10
11.621
 20
44.8236
 30
0.0
 11
11.621
 21
43.8245
 31
0.0
  0
LINE
  8
0
 62
     0
 10
11.621
 20
43.8245
 30
0.0
 11
10.819
 21
43.8245
 31
0.0
  0
LINE
  8
0
 62
     0
 10
10.819
 20
43.8245
 30
0.0
 11
10.819
 21
40.724
 31
0.0
  0
LINE
  8
0
 62
     0
 10
10.819
 20
40.724
 30
0.0
 11
11.621
 21
40.724
 31
0.0
  0
LINE
  8
0
 62
     0
 10
11.621
 20
40.724
 30
0.0
 11
11.621
 21
34.9236
 31
0.0
  0
LINE
  8
0
 62
     0
 10
11.621
 20
34.9236
 30
0.0
 11
10.819
 21
34.9236
 31
0.0
  0
LINE
  8
0
 62
     0
 10
10.819
 20
34.9236
 30
0.0
 11
10.819
 21
31.8244
 31
0.0
  0
LINE
  8
0
 62
     0
 10
10.819
 20
31.8244
 30
0.0
 11
11.621
 21
31.8244
 31
0.0
  0
LINE
  8
0
 62
     0
 10
11.621
 20
31.8244
 30
0.0
 11
11.621
 21
30.824
 31
0.0
  0
LINE
  8
0
 62
     0
 10
11.621
 20
30.824
 30
0.0
 11
25.6205
 21
30.824
 31
0.0
  0
LINE
  8
0
 62
     0
 10
25.6205
 20
30.824
 30
0.0
 11
25.6205
 21
31.8244
 31
0.0
  0
LINE
  8
0
 62
     0
 10
25.6205
 20
31.8244
 30
0.0
 11
26.4211
 21
31.8244
 31
0.0
  0
LINE
  8
0
 62
     0
 10
26.4211
 20
31.8244
 30
0.0
 11
26.4211
 21
34.9236
 31
0.0
  0
LINE
  8
0
 62
     0
 10
26.4211
 20
34.9236
 30
0.0
 11
25.6205
 21
34.9236
 31
0.0
  0
LINE
  8
0
 62
     0
 10
25.6205
 20
34.9236
 30
0.0
 11
25.6205
 21
40.724
 31
0.0
  0
LINE
  8
0
 62
     0
 10
25.6205
 20
40.724
 30
0.0
 11
26.4211
 21
40.724
 31
0.0
  0
LINE
  8
0
 62
     0
 10
26.4211
 20
40.724
 30
0.0
 11
26.4211
 21
43.8245
 31
0.0
  0
LINE
  8
0
 62
     0
 10
26.4211
 20
43.8245
 30
0.0
 11
25.6205
 21
43.8245
 31
0.0
  0
LINE
  8
0
 62
     0
 10
25.6205
 20
43.8245
 30
0.0
 11
25.6205
 21
44.8236
 31
0.0
  0
LINE
  8
0
 62
     0
 10
25.6205
 20
44.8236
 30
0.0
 11
11.621
 21
44.8236
 31
0.0
  0
LINE
  8
0
 62
     0
 10
30.671
 20
44.8236
 30
0.0
 11
30.671
 21
43.8245
 31
0.0
  0
LINE
  8
0
 62
     0
 10
30.671
 20
43.8245
 30
0.0
 11
29.8704
 21
43.8245
 31
0.0
  0
LINE
  8
0
 62
     0
 10
29.8704
 20
43.8245
 30
0.0
 11
29.8704
 21
40.724
 31
0.0
  0
LINE
  8
0
 62
     0
 10
29.8704
 20
40.724
 30
0.0
 11
30.671
 21
40.724
 31
0.0
  0
LINE
  8
0
 62
     0
 10
30.671
 20
40.724
 30
0.0
 11
30.671
 21
34.9236
 31
0.0
  0
LINE
  8
0
 62
     0
 10
30.671
 20
34.9236
 30
0.0
 11
29.8704
 21
34.9236
 31
0.0
  0
LINE
  8
0
 62
     0
 10
29.8704
 20
34.9236
 30
0.0
 11
29.8704
 21
31.8244
 31
0.0
  0
LINE
  8
0
 62
     0
 10
29.8704
 20
31.8244
 30
0.0
 11
30.671
 21
31.8244
 31
0.0
  0
LINE
  8
0
 62
     0
 10
30.671
 20
31.8244
 30
0.0
 11
30.671
 21
30.824
 31
0.0
  0
LINE
  8
0
 62
     0
 10
30.671
 20
30.824
 30
0.0
 11
44.6705
 21
30.824
 31
0.0
  0
LINE
  8
0
 62
     0
 10
44.6705
 20
30.824
 30
0.0
 11
44.6705
 21
31.8244
 31
0.0
  0
LINE
  8
0
 62
     0
 10
44.6705
 20
31.8244
 30
0.0
 11
45.4713
 21
31.8244
 31
0.0
  0
LINE
  8
0
 62
     0
 10
45.4713
 20
31.8244
 30
0.0
 11
45.4713
 21
34.9236
 31
0.0
  0
LINE
  8
0
 62
     0
 10
45.4713
 20
34.9236
 30
0.0
 11
44.6705
 21
34.9236
 31
0.0
  0
LINE
  8
0
 62
     0
 10
44.6705
 20
34.9236
 30
0.0
 11
44.6705
 21
40.724
 31
0.0
  0
LINE
  8
0
 62
     0
 10
44.6705
 20
40.724
 30
0.0
 11
45.4713
 21
40.724
 31
0.0
  0
LINE
  8
0
 62
     0
 10
45.4713
 20
40.724
 30
0.0
 11
45.4713
 21
43.8245
 31
0.0
  0
LINE
  8
0
 62
     0
 10
45.4713
 20
43.8245
 30
0.0
 11
44.6705
 21
43.8245
 31
0.0
  0
LINE
  8
0
 62
     0
 10
44.6705
 20
43.8245
 30
0.0
 11
44.6705
 21
44.8236
 31
0.0
  0
LINE
  8
0
 62
     0
 10
44.6705
 20
44.8236
 30
0.0
 11
30.671
 21
44.8236
 31
0.0
  0
LINE
  8
0
 62
     0
 10
49.7209
 20
44.8236
 30
0.0
 11
49.7209
 21
43.8245
 31
0.0
  0
LINE
  8
0
 62
     0
 10
49.7209
 20
43.8245
 30
0.0
 11
48.9204
 21
43.8245
 31
0.0
  0
LINE
  8
0
 62
     0
 10
48.9204
 20
43.8245
 30
0.0
 11
48.9204
 21
40.724
 31
0.0
  0
LINE
  8
0
 62
     0
 10
48.9204
 20
40.724
 30
0.0
 11
49.7209
 21
40.724
 31
0.0
  0
LINE
  8
0
 62
     0
 10
49.7209
 20
40.724
 30
0.0
 11
49.7209
 21
34.9236
 31
0.0
  0
LINE
  8
0
 62
     0
 10
49.7209
 20
34.9236
 30
0.0
 11
48.9204
 21
34.9236
 31
0.0
  0
LINE
  8
0
 62
     0
 10
48.9204
 20
34.9236
 30
0.0
 11
48.9204
 21
31.8244
 31
0.0
  0
LINE
  8
0
 62
     0
 10
48.9204
 20
31.8244
 30
0.0
 11
49.7209
 21
31.8244
 31
0.0
  0
LINE
  8
0
 62
     0
 10
49.7209
 20
31.8244
 30
0.0
 11
49.7209
 21
30.824
 31
0.0
  0
LINE
  8
0
 62
     0
 10
49.7209
 20
30.824
 30
0.0
 11
63.7205
 21
30.824
 31
0.0
  0
LINE
  8
0
 62
     0
 10
63.7205
 20
30.824
 30
0.0
 11
63.7205
 21
31.8244
 31
0.0
  0
LINE
  8
0
 62
     0
 10
63.7205
 20
31.8244
 30
0.0
 11
64.5213
 21
31.8244
 31
0.0
  0
LINE
  8
0
 62
     0
 10
64.5213
 20
31.8244
 30
0.0
 11
64.5213
 21
34.9236
 31
0.0
  0
LINE
  8
0
 62
     0
 10
64.5213
 20
34.9236
 30
0.0
 11
63.7205
 21
34.9236
 31
0.0
  0
LINE
  8
0
 62
     0
 10
63.7205
 20
34.9236
 30
0.0
 11
63.7205
 21
40.724
 31
0.0
  0
LINE
  8
0
 62
     0
 10
63.7205
 20
40.724
 30
0.0
 11
64.5213
 21
40.724
 31
0.0
  0
LINE
  8
0
 62
     0
 10
64.5213
 20
40.724
 30
0.0
 11
64.5213
 21
43.8245
 31
0.0
  0
LINE
  8
0
 62
     0
 10
64.5213
 20
43.8245
 30
0.0
 11
63.7205
 21
43.8245
 31
0.0
  0
LINE
  8
0
 62
     0
 10
63.7205
 20
43.8245
 30
0.0
 11
63.7205
 21
44.8236
 31
0.0
  0
LINE
  8
0
 62
     0
 10
63.7205
 20
44.8236
 30
0.0
 11
49.7209
 21
44.8236
 31
0.0
  0
LINE
  8
0
 62
     0
 10
11.621
 20
63.8736
 30
0.0
 11
11.621
 21
62.8745
 31
0.0
  0
LINE
  8
0
 62
     0
 10
11.621
 20
62.8745
 30
0.0
 11
10.819
 21
62.8745
 31
0.0
  0
LINE
  8
0
 62
     0
 10
10.819
 20
62.8745
 30
0.0
 11
10.819
 21
59.774
 31
0.0
  0
LINE
  8
0
 62
     0
 10
10.819
 20
59.774
 30
0.0
 11
11.621
 21
59.774
 31
0.0
  0
LINE
  8
0
 62
     0
 10
11.621
 20
59.774
 30
0.0
 11
11.621
 21
53.9736
 31
0.0
  0
LINE
  8
0
 62
     0
 10
11.621
 20
53.9736
 30
0.0
 11
10.819
 21
53.9736
 31
0.0
  0
LINE
  8
0
 62
     0
 10
10.819
 20
53.9736
 30
0.0
 11
10.819
 21
50.8744
 31
0.0
  0
LINE
  8
0
 62
     0
 10
10.819
 20
50.8744
 30
0.0
 11
11.621
 21
50.8744
 31
0.0
  0
LINE
  8
0
 62
     0
 10
11.621
 20
50.8744
 30
0.0
 11
11.621
 21
49.874
 31
0.0
  0
LINE
  8
0
 62
     0
 10
11.621
 20
49.874
 30
0.0
 11
25.6205
 21
49.874
 31
0.0
  0
LINE
  8
0
 62
     0
 10
25.6205
 20
49.874
 30
0.0
 11
25.6205
 21
50.8744
 31
0.0
  0
LINE
  8
0
 62
     0
 10
25.6205
 20
50.8744
 30
0.0
 11
26.4211
 21
50.8744
 31
0.0
  0
LINE
  8
0
 62
     0
 10
26.4211
 20
50.8744
 30
0.0
 11
26.4211
 21
53.9736
 31
0.0
  0
LINE
  8
0
 62
     0
 10
26.4211
 20
53.9736
 30
0.0
 11
25.6205
 21
53.9736
 31
0.0
  0
LINE
  8
0
 62
     0
 10
25.6205
 20
53.9736
 30
0.0
 11
25.6205
 21
59.774
 31
0.0
  0
LINE
  8
0
 62
     0
 10
25.6205
 20
59.774
 30
0.0
 11
26.4211
 21
59.774
 31
0.0
  0
LINE
  8
0
 62
     0
 10
26.4211
 20
59.774
 30
0.0
 11
26.4211
 21
62.8745
 31
0.0
  0
LINE
  8
0
 62
     0
 10
26.4211
 20
62.8745
 30
0.0
 11
25.6205
 21
62.8745
 31
0.0
  0
LINE
  8
0
 62
     0
 10
25.6205
 20
62.8745
 30
0.0
 11
25.6205
 21
63.8736
 31
0.0
  0
LINE
  8
0
 62
     0
 10
25.6205
 20
63.8736
 30
0.0
 11
11.621
 21
63.8736
 31
0.0
  0
LINE
  8
0
 62
     0
 10
30.671
 20
63.8736
 30
0.0
 11
30.671
 21
62.8745
 31
0.0
  0
LINE
  8
0
 62
     0
 10
30.671
 20
62.8745
 30
0.0
 11
29.8704
 21
62.8745
 31
0.0
  0
LINE
  8
0
 62
     0
 10
29.8704
 20
62.8745
 30
0.0
 11
29.8704
 21
59.774
 31
0.0
  0
LINE
  8
0
 62
     0
 10
29.8704
 20
59.774
 30
0.0
 11
30.671
 21
59.774
 31
0.0
  0
LINE
  8
0
 62
     0
 10
30.671
 20
59.774
 30
0.0
 11
30.671
 21
53.9736
 31
0.0
  0
LINE
  8
0
 62
     0
 10
30.671
 20
53.9736
 30
0.0
 11
29.8704
 21
53.9736
 31
0.0
  0
LINE
  8
0
 62
     0
 10
29.8704
 20
53.9736
 30
0.0
 11
29.8704
 21
50.8744
 31
0.0
  0
LINE
  8
0
 62
     0
 10
29.8704
 20
50.8744
 30
0.0
 11
30.671
 21
50.8744
 31
0.0
  0
LINE
  8
0
 62
     0
 10
30.671
 20
50.8744
 30
0.0
 11
30.671
 21
49.874
 31
0.0
  0
LINE
  8
0
 62
     0
 10
30.671
 20
49.874
 30
0.0
 11
44.6705
 21
49.874
 31
0.0
  0
LINE
  8
0
 62
     0
 10
44.6705
 20
49.874
 30
0.0
 11
44.6705
 21
50.8744
 31
0.0
  0
LINE
  8
0
 62
     0
 10
44.6705
 20
50.8744
 30
0.0
 11
45.4713
 21
50.8744
 31
0.0
  0
LINE
  8
0
 62
     0
 10
45.4713
 20
50.8744
 30
0.0
 11
45.4713
 21
53.9736
 31
0.0
  0
LINE
  8
0
 62
     0
 10
45.4713
 20
53.9736
 30
0.0
 11
44.6705
 21
53.9736
 31
0.0
  0
LINE
  8
0
 62
     0
 10
44.6705
 20
53.9736
 30
0.0
 11
44.6705
 21
59.774
 31
0.0
  0
LINE
  8
0
 62
     0
 10
44.6705
 20
59.774
 30
0.0
 11
45.4713
 21
59.774
 31
0.0
  0
LINE
  8
0
 62
     0
 10
45.4713
 20
59.774
 30
0.0
 11
45.4713
 21
62.8745
 31
0.0
  0
LINE
  8
0
 62
     0
 10
45.4713
 20
62.8745
 30
0.0
 11
44.6705
 21
62.8745
 31
0.0
  0
LINE
  8
0
 62
     0
 10
44.6705
 20
62.8745
 30
0.0
 11
44.6705
 21
63.8736
 31
0.0
  0
LINE
  8
0
 62
     0
 10
44.6705
 20
63.8736
 30
0.0
 11
30.671
 21
63.8736
 31
0.0
  0
LINE
  8
0
 62
     0
 10
49.7209
 20
63.8736
 30
0.0
 11
49.7209
 21
62.8745
 31
0.0
  0
LINE
  8
0
 62
     0
 10
49.7209
 20
62.8745
 30
0.0
 11
48.9204
 21
62.8745
 31
0.0
  0
LINE
  8
0
 62
     0
 10
48.9204
 20
62.8745
 30
0.0
 11
48.9204
 21
59.774
 31
0.0
  0
LINE
  8
0
 62
     0
 10
48.9204
 20
59.774
 30
0.0
 11
49.7209
 21
59.774
 31
0.0
  0
LINE
  8
0
 62
     0
 10
49.7209
 20
59.774
 30
0.0
 11
49.7209
 21
53.9736
 31
0.0
  0
LINE
  8
0
 62
     0
 10
49.7209
 20
53.9736
 30
0.0
 11
48.9204
 21
53.9736
 31
0.0
  0
LINE
  8
0
 62
     0
 10
48.9204
 20
53.9736
 30
0.0
 11
48.9204
 21
50.8744
 31
0.0
  0
LINE
  8
0
 62
     0
 10
48.9204
 20
50.8744
 30
0.0
 11
49.7209
 21
50.8744
 31
0.0
  0
LINE
  8
0
 62
     0
 10
49.7209
 20
50.8744
 30
0.0
 11
49.7209
 21
49.874
 31
0.0
  0
LINE
  8
0
 62
     0
 10
49.7209
 20
49.874
 30
0.0
 11
63.7205
 21
49.874
 31
0.0
  0
LINE
  8
0
 62
     0
 10
63.7205
 20
49.874
 30
0.0
 11
63.7205
 21
50.8744
 31
0.0
  0
LINE
  8
0
 62
     0
 10
63.7205
 20
50.8744
 30
0.0
 11
64.5213
 21
50.8744
 31
0.0
  0
LINE
  8
0
 62
     0
 10
64.5213
 20
50.8744
 30
0.0
 11
64.5213
 21
53.9736
 31
0.0
  0
LINE
  8
0
 62
     0
 10
64.5213
 20
53.9736
 30
0.0
 11
63.7205
 21
53.9736
 31
0.0
  0
LINE
  8
0
 62
     0
 10
63.7205
 20
53.9736
 30
0.0
 11
63.7205
 21
59.774
 31
0.0
  0
LINE
  8
0
 62
     0
 10
63.7205
 20
59.774
 30
0.0
 11
64.5213
 21
59.774
 31
0.0
  0
LINE
  8
0
 62
     0
 10
64.5213
 20
59.774
 30
0.0
 11
64.5213
 21
62.8745
 31
0.0
  0
LINE
  8
0
 62
     0
 10
64.5213
 20
62.8745
 30
0.0
 11
63.7205
 21
62.8745
 31
0.0
  0
LINE
  8
0
 62
     0
 10
63.7205
 20
62.8745
 30
0.0
 11
63.7205
 21
63.8736
 31
0.0
  0
LINE
  8
0
 62
     0
 10
63.7205
 20
63.8736
 30
0.0
 11
49.7209
 21
63.8736
 31
0.0
  0
LINE
  8
0
 62
     0
 10
75.2697
 20
82.4988
 30
0.0
 11
75.2697
 21
81.6737
 31
0.0
  0
LINE
  8
0
 62
     0
 10
75.2697
 20
81.6737
 30
0.0
 11
69.0012
 21
81.6737
 31
0.0
  0
LINE
  8
0
 62
     0
 10
69.0012
 20
81.6737
 30
0.0
 11
69.0012
 21
79.9497
 31
0.0
  0
LINE
  8
0
 62
     0
 10
69.0012
 20
79.9497
 30
0.0
 11
68.0201
 21
79.9497
 31
0.0
  0
LINE
  8
0
 62
     0
 10
68.0201
 20
79.9497
 30
0.0
 11
68.0201
 21
76.6491
 31
0.0
  0
LINE
  8
0
 62
     0
 10
68.0201
 20
76.6491
 30
0.0
 11
69.0012
 21
76.6491
 31
0.0
  0
LINE
  8
0
 62
     0
 10
69.0012
 20
76.6491
 30
0.0
 11
69.0012
 21
74.924
 31
0.0
  0
LINE
  8
0
 62
     0
 10
69.0012
 20
74.924
 30
0.0
 11
73.4702
 21
74.924
 31
0.0
  0
LINE
  8
0
 62
     0
 10
73.4702
 20
74.924
 30
0.0
 11
73.4702
 21
73.3986
 31
0.0
  0
LINE
  8
0
 62
     0
 10
73.4702
 20
73.3986
 30
0.0
 11
72.8694
 21
73.3986
 31
0.0
  0
LINE
  8
0
 62
     0
 10
72.8694
 20
73.3986
 30
0.0
 11
72.8694
 21
74.199
 31
0.0
  0
LINE
  8
0
 62
     0
 10
72.8694
 20
74.199
 30
0.0
 11
69.7699
 21
74.199
 31
0.0
  0
LINE
  8
0
 62
     0
 10
69.7699
 20
74.199
 30
0.0
 11
69.7699
 21
73.3986
 31
0.0
  0
LINE
  8
0
 62
     0
 10
69.7699
 20
73.3986
 30
0.0
 11
68.7709
 21
73.3986
 31
0.0
  0
LINE
  8
0
 62
     0
 10
68.7709
 20
73.3986
 30
0.0
 11
68.7709
 21
59.399
 31
0.0
  0
LINE
  8
0
 62
     0
 10
68.7709
 20
59.399
 30
0.0
 11
69.7699
 21
59.399
 31
0.0
  0
LINE
  8
0
 62
     0
 10
69.7699
 20
59.399
 30
0.0
 11
69.7699
 21
58.5982
 31
0.0
  0
LINE
  8
0
 62
     0
 10
69.7699
 20
58.5982
 30
0.0
 11
72.8694
 21
58.5982
 31
0.0
  0
LINE
  8
0
 62
     0
 10
72.8694
 20
58.5982
 30
0.0
 11
72.8694
 21
59.399
 31
0.0
  0
LINE
  8
0
 62
     0
 10
72.8694
 20
59.399
 30
0.0
 11
73.4702
 21
59.399
 31
0.0
  0
LINE
  8
0
 62
     0
 10
73.4702
 20
59.399
 30
0.0
 11
73.4702
 21
57.8735
 31
0.0
  0
LINE
  8
0
 62
     0
 10
73.4702
 20
57.8735
 30
0.0
 11
69.0012
 21
57.8735
 31
0.0
  0
LINE
  8
0
 62
     0
 10
69.0012
 20
57.8735
 30
0.0
 11
69.0012
 21
56.1495
 31
0.0
  0
LINE
  8
0
 62
     0
 10
69.0012
 20
56.1495
 30
0.0
 11
68.0201
 21
56.1495
 31
0.0
  0
LINE
  8
0
 62
     0
 10
68.0201
 20
56.1495
 30
0.0
 11
68.0201
 21
52.8493
 31
0.0
  0
LINE
  8
0
 62
     0
 10
68.0201
 20
52.8493
 30
0.0
 11
69.0012
 21
52.8493
 31
0.0
  0
LINE
  8
0
 62
     0
 10
69.0012
 20
52.8493
 30
0.0
 11
69.0012
 21
51.1238
 31
0.0
  0
LINE
  8
0
 62
     0
 10
69.0012
 20
51.1238
 30
0.0
 11
75.2697
 21
51.1238
 31
0.0
  0
LINE
  8
0
 62
     0
 10
75.2697
 20
51.1238
 30
0.0
 11
75.2697
 21
50.2984
 31
0.0
  0
LINE
  8
0
 62
     0
 10
75.2697
 20
50.2984
 30
0.0
 11
78.0701
 21
50.2984
 31
0.0
  0
LINE
  8
0
 62
     0
 10
78.0701
 20
50.2984
 30
0.0
 11
78.0701
 21
51.1238
 31
0.0
  0
LINE
  8
0
 62
     0
 10
78.0701
 20
51.1238
 30
0.0
 11
81.3001
 21
51.1238
 31
0.0
  0
LINE
  8
0
 62
     0
 10
81.3001
 20
51.1238
 30
0.0
 11
81.3001
 21
52.8493
 31
0.0
  0
LINE
  8
0
 62
     0
 10
81.3001
 20
52.8493
 30
0.0
 11
82.2205
 21
52.8493
 31
0.0
  0
LINE
  8
0
 62
     0
 10
82.2205
 20
52.8493
 30
0.0
 11
82.2205
 21
56.1495
 31
0.0
  0
LINE
  8
0
 62
     0
 10
82.2205
 20
56.1495
 30
0.0
 11
81.3001
 21
56.1495
 31
0.0
  0
LINE
  8
0
 62
     0
 10
81.3001
 20
56.1495
 30
0.0
 11
81.3001
 21
57.8735
 31
0.0
  0
LINE
  8
0
 62
     0
 10
81.3001
 20
57.8735
 30
0.0
 11
78.0701
 21
57.8735
 31
0.0
  0
LINE
  8
0
 62
     0
 10
78.0701
 20
57.8735
 30
0.0
 11
78.0701
 21
59.399
 31
0.0
  0
LINE
  8
0
 62
     0
 10
78.0701
 20
59.399
 30
0.0
 11
78.6709
 21
59.399
 31
0.0
  0
LINE
  8
0
 62
     0
 10
78.6709
 20
59.399
 30
0.0
 11
78.6709
 21
58.5982
 31
0.0
  0
LINE
  8
0
 62
     0
 10
78.6709
 20
58.5982
 30
0.0
 11
81.77
 21
58.5982
 31
0.0
  0
LINE
  8
0
 62
     0
 10
81.77
 20
58.5982
 30
0.0
 11
81.77
 21
59.399
 31
0.0
  0
LINE
  8
0
 62
     0
 10
81.77
 20
59.399
 30
0.0
 11
82.7705
 21
59.399
 31
0.0
  0
LINE
  8
0
 62
     0
 10
82.7705
 20
59.399
 30
0.0
 11
82.7705
 21
73.3986
 31
0.0
  0
LINE
  8
0
 62
     0
 10
82.7705
 20
73.3986
 30
0.0
 11
81.77
 21
73.3986
 31
0.0
  0
LINE
  8
0
 62
     0
 10
81.77
 20
73.3986
 30
0.0
 11
81.77
 21
74.199
 31
0.0
  0
LINE
  8
0
 62
     0
 10
81.77
 20
74.199
 30
0.0
 11
78.6709
 21
74.199
 31
0.0
  0
LINE
  8
0
 62
     0
 10
78.6709
 20
74.199
 30
0.0
 11
78.6709
 21
73.3986
 31
0.0
  0
LINE
  8
0
 62
     0
 10
78.6709
 20
73.3986
 30
0.0
 11
78.0701
 21
73.3986
 31
0.0
  0
LINE
  8
0
 62
     0
 10
78.0701
 20
73.3986
 30
0.0
 11
78.0701
 21
74.924
 31
0.0
  0
LINE
  8
0
 62
     0
 10
78.0701
 20
74.924
 30
0.0
 11
81.3001
 21
74.924
 31
0.0
  0
LINE
  8
0
 62
     0
 10
81.3001
 20
74.924
 30
0.0
 11
81.3001
 21
76.6491
 31
0.0
  0
LINE
  8
0
 62
     0
 10
81.3001
 20
76.6491
 30
0.0
 11
82.2205
 21
76.6491
 31
0.0
  0
LINE
  8
0
 62
     0
 10
82.2205
 20
76.6491
 30
0.0
 11
82.2205
 21
79.9497
 31
0.0
  0
LINE
  8
0
 62
     0
 10
82.2205
 20
79.9497
 30
0.0
 11
81.3001
 21
79.9497
 31
0.0
  0
LINE
  8
0
 62
     0
 10
81.3001
 20
79.9497
 30
0.0
 11
81.3001
 21
81.6737
 31
0.0
  0
LINE
  8
0
 62
     0
 10
81.3001
 20
81.6737
 30
0.0
 11
78.0701
 21
81.6737
 31
0.0
  0
LINE
  8
0
 62
     0
 10
78.0701
 20
81.6737
 30
0.0
 11
78.0701
 21
82.4988
 31
0.0
  0
LINE
  8
0
 62
     0
 10
78.0701
 20
82.4988
 30
0.0
 11
75.2697
 21
82.4988
 31
0.0
  0
LINE
  8
0
 62
     0
 10
11.621
 20
82.9236
 30
0.0
 11
11.621
 21
81.9245
 31
0.0
  0
LINE
  8
0
 62
     0
 10
11.621
 20
81.9245
 30
0.0
 11
10.819
 21
81.9245
 31
0.0
  0
LINE
  8
0
 62
     0
 10
10.819
 20
81.9245
 30
0.0
 11
10.819
 21
78.824
 31
0.0
  0
LINE
  8
0
 62
     0
 10
10.819
 20
78.824
 30
0.0
 11
11.621
 21
78.824
 31
0.0
  0
LINE
  8
0
 62
     0
 10
11.621
 20
78.824
 30
0.0
 11
11.621
 21
73.0236
 31
0.0
  0
LINE
  8
0
 62
     0
 10
11.621
 20
73.0236
 30
0.0
 11
10.819
 21
73.0236
 31
0.0
  0
LINE
  8
0
 62
     0
 10
10.819
 20
73.0236
 30
0.0
 11
10.819
 21
69.9244
 31
0.0
  0
LINE
  8
0
 62
     0
 10
10.819
 20
69.9244
 30
0.0
 11
11.621
 21
69.9244
 31
0.0
  0
LINE
  8
0
 62
     0
 10
11.621
 20
69.9244
 30
0.0
 11
11.621
 21
68.924
 31
0.0
  0
LINE
  8
0
 62
     0
 10
11.621
 20
68.924
 30
0.0
 11
25.6205
 21
68.924
 31
0.0
  0
LINE
  8
0
 62
     0
 10
25.6205
 20
68.924
 30
0.0
 11
25.6205
 21
69.9244
 31
0.0
  0
LINE
  8
0
 62
     0
 10
25.6205
 20
69.9244
 30
0.0
 11
26.4211
 21
69.9244
 31
0.0
  0
LINE
  8
0
 62
     0
 10
26.4211
 20
69.9244
 30
0.0
 11
26.4211
 21
73.0236
 31
0.0
  0
LINE
  8
0
 62
     0
 10
26.4211
 20
73.0236
 30
0.0
 11
25.6205
 21
73.0236
 31
0.0
  0
LINE
  8
0
 62
     0
 10
25.6205
 20
73.0236
 30
0.0
 11
25.6205
 21
78.824
 31
0.0
  0
LINE
  8
0
 62
     0
 10
25.6205
 20
78.824
 30
0.0
 11
26.4211
 21
78.824
 31
0.0
  0
LINE
  8
0
 62
     0
 10
26.4211
 20
78.824
 30
0.0
 11
26.4211
 21
81.9245
 31
0.0
  0
LINE
  8
0
 62
     0
 10
26.4211
 20
81.9245
 30
0.0
 11
25.6205
 21
81.9245
 31
0.0
  0
LINE
  8
0
 62
     0
 10
25.6205
 20
81.9245
 30
0.0
 11
25.6205
 21
82.9236
 31
0.0
  0
LINE
  8
0
 62
     0
 10
25.6205
 20
82.9236
 30
0.0
 11
11.621
 21
82.9236
 31
0.0
  0
LINE
  8
0
 62
     0
 10
30.671
 20
82.9236
 30
0.0
 11
30.671
 21
81.9245
 31
0.0
  0
LINE
  8
0
 62
     0
 10
30.671
 20
81.9245
 30
0.0
 11
29.8704
 21
81.9245
 31
0.0
  0
LINE
  8
0
 62
     0
 10
29.8704
 20
81.9245
 30
0.0
 11
29.8704
 21
78.824
 31
0.0
  0
LINE
  8
0
 62
     0
 10
29.8704
 20
78.824
 30
0.0
 11
30.671
 21
78.824
 31
0.0
  0
LINE
  8
0
 62
     0
 10
30.671
 20
78.824
 30
0.0
 11
30.671
 21
73.0236
 31
0.0
  0
LINE
  8
0
 62
     0
 10
30.671
 20
73.0236
 30
0.0
 11
29.8704
 21
73.0236
 31
0.0
  0
LINE
  8
0
 62
     0
 10
29.8704
 20
73.0236
 30
0.0
 11
29.8704
 21
69.9244
 31
0.0
  0
LINE
  8
0
 62
     0
 10
29.8704
 20
69.9244
 30
0.0
 11
30.671
 21
69.9244
 31
0.0
  0
LINE
  8
0
 62
     0
 10
30.671
 20
69.9244
 30
0.0
 11
30.671
 21
68.924
 31
0.0
  0
LINE
  8
0
 62
     0
 10
30.671
 20
68.924
 30
0.0
 11
44.6705
 21
68.924
 31
0.0
  0
LINE
  8
0
 62
     0
 10
44.6705
 20
68.924
 30
0.0
 11
44.6705
 21
69.9244
 31
0.0
  0
LINE
  8
0
 62
     0
 10
44.6705
 20
69.9244
 30
0.0
 11
45.4713
 21
69.9244
 31
0.0
  0
LINE
  8
0
 62
     0
 10
45.4713
 20
69.9244
 30
0.0
 11
45.4713
 21
73.0236
 31
0.0
  0
LINE
  8
0
 62
     0
 10
45.4713
 20
73.0236
 30
0.0
 11
44.6705
 21
73.0236
 31
0.0
  0
LINE
  8
0
 62
     0
 10
44.6705
 20
73.0236
 30
0.0
 11
44.6705
 21
78.824
 31
0.0
  0
LINE
  8
0
 62
     0
 10
44.6705
 20
78.824
 30
0.0
 11
45.4713
 21
78.824
 31
0.0
  0
LINE
  8
0
 62
     0
 10
45.4713
 20
78.824
 30
0.0
 11
45.4713
 21
81.9245
 31
0.0
  0
LINE
  8
0
 62
     0
 10
45.4713
 20
81.9245
 30
0.0
 11
44.6705
 21
81.9245
 31
0.0
  0
LINE
  8
0
 62
     0
 10
44.6705
 20
81.9245
 30
0.0
 11
44.6705
 21
82.9236
 31
0.0
  0
LINE
  8
0
 62
     0
 10
44.6705
 20
82.9236
 30
0.0
 11
30.671
 21
82.9236
 31
0.0
  0
LINE
  8
0
 62
     0
 10
49.7209
 20
82.9236
 30
0.0
 11
49.7209
 21
81.9245
 31
0.0
  0
LINE
  8
0
 62
     0
 10
49.7209
 20
81.9245
 30
0.0
 11
48.9204
 21
81.9245
 31
0.0
  0
LINE
  8
0
 62
     0
 10
48.9204
 20
81.9245
 30
0.0
 11
48.9204
 21
78.824
 31
0.0
  0
LINE
  8
0
 62
     0
 10
48.9204
 20
78.824
 30
0.0
 11
49.7209
 21
78.824
 31
0.0
  0
LINE
  8
0
 62
     0
 10
49.7209
 20
78.824
 30
0.0
 11
49.7209
 21
73.0236
 31
0.0
  0
LINE
  8
0
 62
     0
 10
49.7209
 20
73.0236
 30
0.0
 11
48.9204
 21
73.0236
 31
0.0
  0
LINE
  8
0
 62
     0
 10
48.9204
 20
73.0236
 30
0.0
 11
48.9204
 21
69.9244
 31
0.0
  0
LINE
  8
0
 62
     0
 10
48.9204
 20
69.9244
 30
0.0
 11
49.7209
 21
69.9244
 31
0.0
  0
LINE
  8
0
 62
     0
 10
49.7209
 20
69.9244
 30
0.0
 11
49.7209
 21
68.924
 31
0.0
  0
LINE
  8
0
 62
     0
 10
49.7209
 20
68.924
 30
0.0
 11
63.7205
 21
68.924
 31
0.0
  0
LINE
  8
0
 62
     0
 10
63.7205
 20
68.924
 30
0.0
 11
63.7205
 21
69.9244
 31
0.0
  0
LINE
  8
0
 62
     0
 10
63.7205
 20
69.9244
 30
0.0
 11
64.5213
 21
69.9244
 31
0.0
  0
LINE
  8
0
 62
     0
 10
64.5213
 20
69.9244
 30
0.0
 11
64.5213
 21
73.0236
 31
0.0
  0
LINE
  8
0
 62
     0
 10
64.5213
 20
73.0236
 30
0.0
 11
63.7205
 21
73.0236
 31
0.0
  0
LINE
  8
0
 62
     0
 10
63.7205
 20
73.0236
 30
0.0
 11
63.7205
 21
78.824
 31
0.0
  0
LINE
  8
0
 62
     0
 10
63.7205
 20
78.824
 30
0.0
 11
64.5213
 21
78.824
 31
0.0
  0
LINE
  8
0
 62
     0
 10
64.5213
 20
78.824
 30
0.0
 11
64.5213
 21
81.9245
 31
0.0
  0
LINE
  8
0
 62
     0
 10
64.5213
 20
81.9245
 30
0.0
 11
63.7205
 21
81.9245
 31
0.0
  0
LINE
  8
0
 62
     0
 10
63.7205
 20
81.9245
 30
0.0
 11
63.7205
 21
82.9236
 31
0.0
  0
LINE
  8
0
 62
     0
 10
63.7205
 20
82.9236
 30
0.0
 11
49.7209
 21
82.9236
 31
0.0
  0
LINE
  8
0
 62
     0
 10
11.621
 20
101.974
 30
0.0
 11
11.621
 21
100.975
 31
0.0
  0
LINE
  8
0
 62
     0
 10
11.621
 20
100.975
 30
0.0
 11
10.819
 21
100.975
 31
0.0
  0
LINE
  8
0
 62
     0
 10
10.819
 20
100.975
 30
0.0
 11
10.819
 21
97.874
 31
0.0
  0
LINE
  8
0
 62
     0
 10
10.819
 20
97.874
 30
0.0
 11
11.621
 21
97.874
 31
0.0
  0
LINE
  8
0
 62
     0
 10
11.621
 20
97.874
 30
0.0
 11
11.621
 21
92.075
 31
0.0
  0
LINE
  8
0
 62
     0
 10
11.621
 20
92.075
 30
0.0
 11
10.819
 21
92.075
 31
0.0
  0
LINE
  8
0
 62
     0
 10
10.819
 20
92.075
 30
0.0
 11
10.819
 21
88.9744
 31
0.0
  0
LINE
  8
0
 62
     0
 10
10.819
 20
88.9744
 30
0.0
 11
11.621
 21
88.9744
 31
0.0
  0
LINE
  8
0
 62
     0
 10
11.621
 20
88.9744
 30
0.0
 11
11.621
 21
87.974
 31
0.0
  0
LINE
  8
0
 62
     0
 10
11.621
 20
87.974
 30
0.0
 11
25.6205
 21
87.974
 31
0.0
  0
LINE
  8
0
 62
     0
 10
25.6205
 20
87.974
 30
0.0
 11
25.6205
 21
88.9744
 31
0.0
  0
LINE
  8
0
 62
     0
 10
25.6205
 20
88.9744
 30
0.0
 11
26.4211
 21
88.9744
 31
0.0
  0
LINE
  8
0
 62
     0
 10
26.4211
 20
88.9744
 30
0.0
 11
26.4211
 21
92.075
 31
0.0
  0
LINE
  8
0
 62
     0
 10
26.4211
 20
92.075
 30
0.0
 11
25.6205
 21
92.075
 31
0.0
  0
LINE
  8
0
 62
     0
 10
25.6205
 20
92.075
 30
0.0
 11
25.6205
 21
97.874
 31
0.0
  0
LINE
  8
0
 62
     0
 10
25.6205
 20
97.874
 30
0.0
 11
26.4211
 21
97.874
 31
0.0
  0
LINE
  8
0
 62
     0
 10
26.4211
 20
97.874
 30
0.0
 11
26.4211
 21
100.975
 31
0.0
  0
LINE
  8
0
 62
     0
 10
26.4211
 20
100.975
 30
0.0
 11
25.6205
 21
100.975
 31
0.0
  0
LINE
  8
0
 62
     0
 10
25.6205
 20
100.975
 30
0.0
 11
25.6205
 21
101.974
 31
0.0
  0
LINE
  8
0
 62
     0
 10
25.6205
 20
101.974
 30
0.0
 11
11.621
 21
101.974
 31
0.0
  0
LINE
  8
0
 62
     0
 10
30.671
 20
101.974
 30
0.0
 11
30.671
 21
100.975
 31
0.0
  0
LINE
  8
0
 62
     0
 10
30.671
 20
100.975
 30
0.0
 11
29.8704
 21
100.975
 31
0.0
  0
LINE
  8
0
 62
     0
 10
29.8704
 20
100.975
 30
0.0
 11
29.8704
 21
97.874
 31
0.0
  0
LINE
  8
0
 62
     0
 10
29.8704
 20
97.874
 30
0.0
 11
30.671
 21
97.874
 31
0.0
  0
LINE
  8
0
 62
     0
 10
30.671
 20
97.874
 30
0.0
 11
30.671
 21
92.075
 31
0.0
  0
LINE
  8
0
 62
     0
 10
30.671
 20
92.075
 30
0.0
 11
29.8704
 21
92.075
 31
0.0
  0
LINE
  8
0
 62
     0
 10
29.8704
 20
92.075
 30
0.0
 11
29.8704
 21
88.9744
 31
0.0
  0
LINE
  8
0
 62
     0
 10
29.8704
 20
88.9744
 30
0.0
 11
30.671
 21
88.9744
 31
0.0
  0
LINE
  8
0
 62
     0
 10
30.671
 20
88.9744
 30
0.0
 11
30.671
 21
87.974
 31
0.0
  0
LINE
  8
0
 62
     0
 10
30.671
 20
87.974
 30
0.0
 11
44.6705
 21
87.974
 31
0.0
  0
LINE
  8
0
 62
     0
 10
44.6705
 20
87.974
 30
0.0
 11
44.6705
 21
88.9744
 31
0.0
  0
LINE
  8
0
 62
     0
 10
44.6705
 20
88.9744
 30
0.0
 11
45.4713
 21
88.9744
 31
0.0
  0
LINE
  8
0
 62
     0
 10
45.4713
 20
88.9744
 30
0.0
 11
45.4713
 21
92.075
 31
0.0
  0
LINE
  8
0
 62
     0
 10
45.4713
 20
92.075
 30
0.0
 11
44.6705
 21
92.075
 31
0.0
  0
LINE
  8
0
 62
     0
 10
44.6705
 20
92.075
 30
0.0
 11
44.6705
 21
97.874
 31
0.0
  0
LINE
  8
0
 62
     0
 10
44.6705
 20
97.874
 30
0.0
 11
45.4713
 21
97.874
 31
0.0
  0
LINE
  8
0
 62
     0
 10
45.4713
 20
97.874
 30
0.0
 11
45.4713
 21
100.975
 31
0.0
  0
LINE
  8
0
 62
     0
 10
45.4713
 20
100.975
 30
0.0
 11
44.6705
 21
100.975
 31
0.0
  0
LINE
  8
0
 62
     0
 10
44.6705
 20
100.975
 30
0.0
 11
44.6705
 21
101.974
 31
0.0
  0
LINE
  8
0
 62
     0
 10
44.6705
 20
101.974
 30
0.0
 11
30.671
 21
101.974
 31
0.0
  0
LINE
  8
0
 62
     0
 10
49.7209
 20
101.974
 30
0.0
 11
49.7209
 21
100.975
 31
0.0
  0
LINE
  8
0
 62
     0
 10
49.7209
 20
100.975
 30
0.0
 11
48.9204
 21
100.975
 31
0.0
  0
LINE
  8
0
 62
     0
 10
48.9204
 20
100.975
 30
0.0
 11
48.9204
 21
97.874
 31
0.0
  0
LINE
  8
0
 62
     0
 10
48.9204
 20
97.874
 30
0.0
 11
49.7209
 21
97.874
 31
0.0
  0
LINE
  8
0
 62
     0
 10
49.7209
 20
97.874
 30
0.0
 11
49.7209
 21
92.075
 31
0.0
  0
LINE
  8
0
 62
     0
 10
49.7209
 20
92.075
 30
0.0
 11
48.9204
 21
92.075
 31
0.0
  0
LINE
  8
0
 62
     0
 10
48.9204
 20
92.075
 30
0.0
 11
48.9204
 21
88.9744
 31
0.0
  0
LINE
  8
0
 62
     0
 10
48.9204
 20
88.9744
 30
0.0
 11
49.7209
 21
88.9744
 31
0.0
  0
LINE
  8
0
 62
     0
 10
49.7209
 20
88.9744
 30
0.0
 11
49.7209
 21
87.974
 31
0.0
  0
LINE
  8
0
 62
     0
 10
49.7209
 20
87.974
 30
0.0
 11
63.7205
 21
87.974
 31
0.0
  0
LINE
  8
0
 62
     0
 10
63.7205
 20
87.974
 30
0.0
 11
63.7205
 21
88.9744
 31
0.0
  0
LINE
  8
0
 62
     0
 10
63.7205
 20
88.9744
 30
0.0
 11
64.5213
 21
88.9744
 31
0.0
  0
LINE
  8
0
 62
     0
 10
64.5213
 20
88.9744
 30
0.0
 11
64.5213
 21
92.075
 31
0.0
  0
LINE
  8
0
 62
     0
 10
64.5213
 20
92.075
 30
0.0
 11
63.7205
 21
92.075
 31
0.0
  0
LINE
  8
0
 62
     0
 10
63.7205
 20
92.075
 30
0.0
 11
63.7205
 21
97.874
 31
0.0
  0
LINE
  8
0
 62
     0
 10
63.7205
 20
97.874
 30
0.0
 11
64.5213
 21
97.874
 31
0.0
  0
LINE
  8
0
 62
     0
 10
64.5213
 20
97.874
 30
0.0
 11
64.5213
 21
100.975
 31
0.0
  0
LINE
  8
0
 62
     0
 10
64.5213
 20
100.975
 30
0.0
 11
63.7205
 21
100.975
 31
0.0
  0
LINE
  8
0
 62
     0
 10
63.7205
 20
100.975
 30
0.0
 11
63.7205
 21
101.974
 31
0.0
  0
LINE
  8
0
 62
     0
 10
63.7205
 20
101.974
 30
0.0
 11
49.7209
 21
101.974
 31
0.0
  0
LINE
  8
0
 62
     0
 10
68.7709
 20
101.974
 30
0.0
 11
68.7709
 21
100.975
 31
0.0
  0
LINE
  8
0
 62
     0
 10
68.7709
 20
100.975
 30
0.0
 11
67.9704
 21
100.975
 31
0.0
  0
LINE
  8
0
 62
     0
 10
67.9704
 20
100.975
 30
0.0
 11
67.9704
 21
97.874
 31
0.0
  0
LINE
  8
0
 62
     0
 10
67.9704
 20
97.874
 30
0.0
 11
68.7709
 21
97.874
 31
0.0
  0
LINE
  8
0
 62
     0
 10
68.7709
 20
97.874
 30
0.0
 11
68.7709
 21
92.075
 31
0.0
  0
LINE
  8
0
 62
     0
 10
68.7709
 20
92.075
 30
0.0
 11
67.9704
 21
92.075
 31
0.0
  0
LINE
  8
0
 62
     0
 10
67.9704
 20
92.075
 30
0.0
 11
67.9704
 21
88.9744
 31
0.0
  0
LINE
  8
0
 62
     0
 10
67.9704
 20
88.9744
 30
0.0
 11
68.7709
 21
88.9744
 31
0.0
  0
LINE
  8
0
 62
     0
 10
68.7709
 20
88.9744
 30
0.0
 11
68.7709
 21
87.974
 31
0.0
  0
LINE
  8
0
 62
     0
 10
68.7709
 20
87.974
 30
0.0
 11
82.7705
 21
87.974
 31
0.0
  0
LINE
  8
0
 62
     0
 10
82.7705
 20
87.974
 30
0.0
 11
82.7705
 21
88.9744
 31
0.0
  0
LINE
  8
0
 62
     0
 10
82.7705
 20
88.9744
 30
0.0
 11
83.5713
 21
88.9744
 31
0.0
  0
LINE
  8
0
 62
     0
 10
83.5713
 20
88.9744
 30
0.0
 11
83.5713
 21
92.075
 31
0.0
  0
LINE
  8
0
 62
     0
 10
83.5713
 20
92.075
 30
0.0
 11
82.7705
 21
92.075
 31
0.0
  0
LINE
  8
0
 62
     0
 10
82.7705
 20
92.075
 30
0.0
 11
82.7705
 21
97.874
 31
0.0
  0
LINE
  8
0
 62
     0
 10
82.7705
 20
97.874
 30
0.0
 11
83.5713
 21
97.874
 31
0.0
  0
LINE
  8
0
 62
     0
 10
83.5713
 20
97.874
 30
0.0
 11
83.5713
 21
100.975
 31
0.0
  0
LINE
  8
0
 62
     0
 10
83.5713
 20
100.975
 30
0.0
 11
82.7705
 21
100.975
 31
0.0
  0
LINE
  8
0
 62
     0
 10
82.7705
 20
100.975
 30
0.0
 11
82.7705
 21
101.974
 31
0.0
  0
LINE
  8
0
 62
     0
 10
82.7705
 20
101.974
 30
0.0
 11
68.7709
 21
101.974
 31
0.0
  0
LINE
  8
0
 62
     0
 10
90.8322
 20
111.926
 30
0.0
 11
90.4145
 21
111.713
 31
0.0
  0
LINE
  8
0
 62
     0
 10
90.4145
 20
111.713
 30
0.0
 11
90.0825
 21
111.381
 31
0.0
  0
LINE
  8
0
 62
     0
 10
90.0825
 20
111.381
 30
0.0
 11
89.8701
 21
110.962
 31
0.0
  0
LINE
  8
0
 62
     0
 10
89.8701
 20
110.962
 30
0.0
 11
89.7971
 21
110.5
 31
0.0
  0
LINE
  8
0
 62
     0
 10
89.7971
 20
110.5
 30
0.0
 11
89.8701
 21
110.036
 31
0.0
  0
LINE
  8
0
 62
     0
 10
89.8701
 20
110.036
 30
0.0
 11
90.0825
 21
109.618
 31
0.0
  0
LINE
  8
0
 62
     0
 10
90.0825
 20
109.618
 30
0.0
 11
90.4145
 21
109.285
 31
0.0
  0
LINE
  8
0
 62
     0
 10
90.4145
 20
109.285
 30
0.0
 11
90.8322
 21
109.073
 31
0.0
  0
LINE
  8
0
 62
     0
 10
90.8322
 20
109.073
 30
0.0
 11
91.2964
 21
108.999
 31
0.0
  0
LINE
  8
0
 62
     0
 10
91.2964
 20
108.999
 30
0.0
 11
91.7593
 21
109.073
 31
0.0
  0
LINE
  8
0
 62
     0
 10
91.7593
 20
109.073
 30
0.0
 11
92.177
 21
109.285
 31
0.0
  0
LINE
  8
0
 62
     0
 10
92.177
 20
109.285
 30
0.0
 11
92.5089
 21
109.618
 31
0.0
  0
LINE
  8
0
 62
     0
 10
92.5089
 20
109.618
 30
0.0
 11
92.7227
 21
110.036
 31
0.0
  0
LINE
  8
0
 62
     0
 10
92.7227
 20
110.036
 30
0.0
 11
92.7971
 21
110.5
 31
0.0
  0
LINE
  8
0
 62
     0
 10
92.7971
 20
110.5
 30
0.0
 11
92.7227
 21
110.962
 31
0.0
  0
LINE
  8
0
 62
     0
 10
92.7227
 20
110.962
 30
0.0
 11
92.5089
 21
111.381
 31
0.0
  0
LINE
  8
0
 62
     0
 10
92.5089
 20
111.381
 30
0.0
 11
92.177
 21
111.713
 31
0.0
  0
LINE
  8
0
 62
     0
 10
92.177
 20
111.713
 30
0.0
 11
91.7593
 21
111.926
 31
0.0
  0
LINE
  8
0
 62
     0
 10
91.7593
 20
111.926
 30
0.0
 11
91.2964
 21
111.999
 31
0.0
  0
LINE
  8
0
 62
     0
 10
91.2964
 20
111.999
 30
0.0
 11
90.8322
 21
111.926
 31
0.0
  0
LINE
  8
0
 62
     0
 10
2.63205
 20
111.926
 30
0.0
 11
2.21313
 21
111.713
 31
0.0
  0
LINE
  8
0
 62
     0
 10
2.21313
 20
111.713
 30
0.0
 11
1.88102
 21
111.381
 31
0.0
  0
LINE
  8
0
 62
     0
 10
1.88102
 20
111.381
 30
0.0
 11
1.6688
 21
110.962
 31
0.0
  0
LINE
  8
0
 62
     0
 10
1.6688
 20
110.962
 30
0.0
 11
1.59439
 21
110.5
 31
0.0
  0
LINE
  8
0
 62
     0
 10
1.59439
 20
110.5
 30
0.0
 11
1.6688
 21
110.036
 31
0.0
  0
LINE
  8
0
 62
     0
 10
1.6688
 20
110.036
 30
0.0
 11
1.88102
 21
109.618
 31
0.0
  0
LINE
  8
0
 62
     0
 10
1.88102
 20
109.618
 30
0.0
 11
2.21313
 21
109.285
 31
0.0
  0
LINE
  8
0
 62
     0
 10
2.21313
 20
109.285
 30
0.0
 11
2.63205
 21
109.073
 31
0.0
  0
LINE
  8
0
 62
     0
 10
2.63205
 20
109.073
 30
0.0
 11
3.09507
 21
108.999
 31
0.0
  0
LINE
  8
0
 62
     0
 10
3.09507
 20
108.999
 30
0.0
 11
3.55808
 21
109.073
 31
0.0
  0
LINE
  8
0
 62
     0
 10
3.55808
 20
109.073
 30
0.0
 11
3.97701
 21
109.285
 31
0.0
  0
LINE
  8
0
 62
     0
 10
3.97701
 20
109.285
 30
0.0
 11
4.30911
 21
109.618
 31
0.0
  0
LINE
  8
0
 62
     0
 10
4.30911
 20
109.618
 30
0.0
 11
4.52134
 21
110.036
 31
0.0
  0
LINE
  8
0
 62
     0
 10
4.52134
 20
110.036
 30
0.0
 11
4.59574
 21
110.5
 31
0.0
  0
LINE
  8
0
 62
     0
 10
4.59574
 20
110.5
 30
0.0
 11
4.52134
 21
110.962
 31
0.0
  0
LINE
  8
0
 62
     0
 10
4.52134
 20
110.962
 30
0.0
 11
4.30911
 21
111.381
 31
0.0
  0
LINE
  8
0
 62
     0
 10
4.30911
 20
111.381
 30
0.0
 11
3.97701
 21
111.713
 31
0.0
  0
LINE
  8
0
 62
     0
 10
3.97701
 20
111.713
 30
0.0
 11
3.55808
 21
111.926
 31
0.0
  0
LINE
  8
0
 62
     0
 10
3.55808
 20
111.926
 30
0.0
 11
3.09507
 21
111.999
 31
0.0
  0
LINE
  8
0
 62
     0
 10
3.09507
 20
111.999
 30
0.0
 11
2.63205
 21
111.926
 31
0.0
  0
ENDSEC
  0
EOF
