  0
SECTION
  2
HEADER
  9
$ACADVER
  1
AC1009
  9
$FILLMODE
 70
 0
  9
$SPLFRAME
 70
 1
  9
$EXTMIN
 10
0
 20
0
 30
0.0
  9
$EXTMAX
 10
1058.33
 20
1058.33
 30
0.0
  0
ENDSEC
  0
SECTION
  2
TABLES
  0
TABLE
  2
LAYER
 70
1
  0
LAYER
  2
0
 70
     0
 62
     7
  6
CONTINUOUS
  0
ENDTAB
  0
ENDSEC
  0
SECTION
  2
ENTITIES
  0
LINE
  8
0
 62
     0
 10
76.2953
 20
113.499
 30
0.0
 11
76.2953
 21
107.5
 31
0.0
  0
LINE
  8
0
 62
     0
 10
76.2953
 20
107.5
 30
0.0
 11
6.09505
 21
107.5
 31
0.0
  0
LINE
  8
0
 62
     0
 10
6.09505
 20
107.5
 30
0.0
 11
6.09505
 21
6.24801
 31
0.0
  0
LINE
  8
0
 62
     0
 10
6.09505
 20
6.24801
 30
0.0
 11
88.2964
 21
6.24801
 31
0.0
  0
LINE
  8
0
 62
     0
 10
88.2964
 20
6.24801
 30
0.0
 11
88.2964
 21
107.5
 31
0.0
  0
LINE
  8
0
 62
     0
 10
88.2964
 20
107.5
 30
0.0
 11
88.295
 21
107.5
 31
0.0
  0
LINE
  8
0
 62
     0
 10
88.295
 20
107.5
 30
0.0
 11
88.295
 21
113.499
 31
0.0
  0
LINE
  8
0
 62
     0
 10
88.295
 20
113.499
 30
0.0
 11
91.2964
 21
113.499
 31
0.0
  0
LINE
  8
0
 62
     0
 10
91.2964
 20
113.499
 30
0.0
 11
91.5321
 21
113.49
 31
0.0
  0
LINE
  8
0
 62
     0
 10
91.5321
 20
113.49
 30
0.0
 11
91.7649
 21
113.464
 31
0.0
  0
LINE
  8
0
 62
     0
 10
91.7649
 20
113.464
 30
0.0
 11
91.9963
 21
113.417
 31
0.0
  0
LINE
  8
0
 62
     0
 10
91.9963
 20
113.417
 30
0.0
 11
92.2239
 21
113.353
 31
0.0
  0
LINE
  8
0
 62
     0
 10
92.2239
 20
113.353
 30
0.0
 11
92.4444
 21
113.271
 31
0.0
  0
LINE
  8
0
 62
     0
 10
92.4444
 20
113.271
 30
0.0
 11
92.6578
 21
113.173
 31
0.0
  0
LINE
  8
0
 62
     0
 10
92.6578
 20
113.173
 30
0.0
 11
92.8631
 21
113.057
 31
0.0
  0
LINE
  8
0
 62
     0
 10
92.8631
 20
113.057
 30
0.0
 11
93.0589
 21
112.927
 31
0.0
  0
LINE
  8
0
 62
     0
 10
93.0589
 20
112.927
 30
0.0
 11
93.2448
 21
112.781
 31
0.0
  0
LINE
  8
0
 62
     0
 10
93.2448
 20
112.781
 30
0.0
 11
93.4173
 21
112.621
 31
0.0
  0
LINE
  8
0
 62
     0
 10
93.4173
 20
112.621
 30
0.0
 11
93.5771
 21
112.448
 31
0.0
  0
LINE
  8
0
 62
     0
 10
93.5771
 20
112.448
 30
0.0
 11
93.7232
 21
112.263
 31
0.0
  0
LINE
  8
0
 62
     0
 10
93.7232
 20
112.263
 30
0.0
 11
93.8541
 21
112.068
 31
0.0
  0
LINE
  8
0
 62
     0
 10
93.8541
 20
112.068
 30
0.0
 11
93.9698
 21
111.861
 31
0.0
  0
LINE
  8
0
 62
     0
 10
93.9698
 20
111.861
 30
0.0
 11
94.0675
 21
111.647
 31
0.0
  0
LINE
  8
0
 62
     0
 10
94.0675
 20
111.647
 30
0.0
 11
94.149
 21
111.427
 31
0.0
  0
LINE
  8
0
 62
     0
 10
94.149
 20
111.427
 30
0.0
 11
94.2139
 21
111.199
 31
0.0
  0
LINE
  8
0
 62
     0
 10
94.2139
 20
111.199
 30
0.0
 11
94.2591
 21
110.969
 31
0.0
  0
LINE
  8
0
 62
     0
 10
94.2591
 20
110.969
 30
0.0
 11
94.2869
 21
110.735
 31
0.0
  0
LINE
  8
0
 62
     0
 10
94.2869
 20
110.735
 30
0.0
 11
94.2964
 21
110.5
 31
0.0
  0
LINE
  8
0
 62
     0
 10
94.2964
 20
110.5
 30
0.0
 11
94.2964
 21
3.24804
 31
0.0
  0
LINE
  8
0
 62
     0
 10
94.2964
 20
3.24804
 30
0.0
 11
94.2869
 21
3.01239
 31
0.0
  0
LINE
  8
0
 62
     0
 10
94.2869
 20
3.01239
 30
0.0
 11
94.2591
 21
2.7795
 31
0.0
  0
LINE
  8
0
 62
     0
 10
94.2591
 20
2.7795
 30
0.0
 11
94.2139
 21
2.54799
 31
0.0
  0
LINE
  8
0
 62
     0
 10
94.2139
 20
2.54799
 30
0.0
 11
94.149
 21
2.32062
 31
0.0
  0
LINE
  8
0
 62
     0
 10
94.149
 20
2.32062
 30
0.0
 11
94.0675
 21
2.10013
 31
0.0
  0
LINE
  8
0
 62
     0
 10
94.0675
 20
2.10013
 30
0.0
 11
93.9698
 21
1.88654
 31
0.0
  0
LINE
  8
0
 62
     0
 10
93.9698
 20
1.88654
 30
0.0
 11
93.8541
 21
1.68121
 31
0.0
  0
LINE
  8
0
 62
     0
 10
93.8541
 20
1.68121
 30
0.0
 11
93.7232
 21
1.48553
 31
0.0
  0
LINE
  8
0
 62
     0
 10
93.7232
 20
1.48553
 30
0.0
 11
93.5771
 21
1.29949
 31
0.0
  0
LINE
  8
0
 62
     0
 10
93.5771
 20
1.29949
 30
0.0
 11
93.4173
 21
1.12723
 31
0.0
  0
LINE
  8
0
 62
     0
 10
93.4173
 20
1.12723
 30
0.0
 11
93.2448
 21
0.967384
 31
0.0
  0
LINE
  8
0
 62
     0
 10
93.2448
 20
0.967384
 30
0.0
 11
93.0589
 21
0.821313
 31
0.0
  0
LINE
  8
0
 62
     0
 10
93.0589
 20
0.821313
 30
0.0
 11
92.8631
 21
0.690397
 31
0.0
  0
LINE
  8
0
 62
     0
 10
92.8631
 20
0.690397
 30
0.0
 11
92.6578
 21
0.574643
 31
0.0
  0
LINE
  8
0
 62
     0
 10
92.6578
 20
0.574643
 30
0.0
 11
92.4444
 21
0.4768
 31
0.0
  0
LINE
  8
0
 62
     0
 10
92.4444
 20
0.4768
 30
0.0
 11
92.2239
 21
0.395496
 31
0.0
  0
LINE
  8
0
 62
     0
 10
92.2239
 20
0.395496
 30
0.0
 11
91.9963
 21
0.330729
 31
0.0
  0
LINE
  8
0
 62
     0
 10
91.9963
 20
0.330729
 30
0.0
 11
91.7649
 21
0.285254
 31
0.0
  0
LINE
  8
0
 62
     0
 10
91.7649
 20
0.285254
 30
0.0
 11
91.5321
 21
0.257693
 31
0.0
  0
LINE
  8
0
 62
     0
 10
91.5321
 20
0.257693
 30
0.0
 11
91.295
 21
0.248047
 31
0.0
  0
LINE
  8
0
 62
     0
 10
91.295
 20
0.248047
 30
0.0
 11
3.09507
 21
0.248047
 31
0.0
  0
LINE
  8
0
 62
     0
 10
3.09507
 20
0.248047
 30
0.0
 11
2.85943
 21
0.257693
 31
0.0
  0
LINE
  8
0
 62
     0
 10
2.85943
 20
0.257693
 30
0.0
 11
2.62516
 21
0.285254
 31
0.0
  0
LINE
  8
0
 62
     0
 10
2.62516
 20
0.285254
 30
0.0
 11
2.39503
 21
0.330729
 31
0.0
  0
LINE
  8
0
 62
     0
 10
2.39503
 20
0.330729
 30
0.0
 11
2.16765
 21
0.395496
 31
0.0
  0
LINE
  8
0
 62
     0
 10
2.16765
 20
0.395496
 30
0.0
 11
1.94717
 21
0.4768
 31
0.0
  0
LINE
  8
0
 62
     0
 10
1.94717
 20
0.4768
 30
0.0
 11
1.73357
 21
0.574643
 31
0.0
  0
LINE
  8
0
 62
     0
 10
1.73357
 20
0.574643
 30
0.0
 11
1.52687
 21
0.690397
 31
0.0
  0
LINE
  8
0
 62
     0
 10
1.52687
 20
0.690397
 30
0.0
 11
1.33119
 21
0.821313
 31
0.0
  0
LINE
  8
0
 62
     0
 10
1.33119
 20
0.821313
 30
0.0
 11
1.14653
 21
0.967384
 31
0.0
  0
LINE
  8
0
 62
     0
 10
1.14653
 20
0.967384
 30
0.0
 11
0.972894
 21
1.12723
 31
0.0
  0
LINE
  8
0
 62
     0
 10
0.972894
 20
1.12723
 30
0.0
 11
0.813043
 21
1.29949
 31
0.0
  0
LINE
  8
0
 62
     0
 10
0.813043
 20
1.29949
 30
0.0
 11
0.666972
 21
1.48553
 31
0.0
  0
LINE
  8
0
 62
     0
 10
0.666972
 20
1.48553
 30
0.0
 11
0.537436
 21
1.68121
 31
0.0
  0
LINE
  8
0
 62
     0
 10
0.537436
 20
1.68121
 30
0.0
 11
0.421679
 21
1.88654
 31
0.0
  0
LINE
  8
0
 62
     0
 10
0.421679
 20
1.88654
 30
0.0
 11
0.323839
 21
2.10013
 31
0.0
  0
LINE
  8
0
 62
     0
 10
0.323839
 20
2.10013
 30
0.0
 11
0.241157
 21
2.32062
 31
0.0
  0
LINE
  8
0
 62
     0
 10
0.241157
 20
2.32062
 30
0.0
 11
0.177767
 21
2.54799
 31
0.0
  0
LINE
  8
0
 62
     0
 10
0.177767
 20
2.54799
 30
0.0
 11
0.130914
 21
2.7795
 31
0.0
  0
LINE
  8
0
 62
     0
 10
0.130914
 20
2.7795
 30
0.0
 11
0.104731
 21
3.01239
 31
0.0
  0
LINE
  8
0
 62
     0
 10
0.104731
 20
3.01239
 30
0.0
 11
0.0950846
 21
3.24804
 31
0.0
  0
LINE
  8
0
 62
     0
 10
0.0950846
 20
3.24804
 30
0.0
 11
0.0950846
 21
110.5
 31
0.0
  0
LINE
  8
0
 62
     0
 10
0.0950846
 20
110.5
 30
0.0
 11
0.104731
 21
110.735
 31
0.0
  0
LINE
  8
0
 62
     0
 10
0.104731
 20
110.735
 30
0.0
 11
0.130914
 21
110.969
 31
0.0
  0
LINE
  8
0
 62
     0
 10
0.130914
 20
110.969
 30
0.0
 11
0.177767
 21
111.199
 31
0.0
  0
LINE
  8
0
 62
     0
 10
0.177767
 20
111.199
 30
0.0
 11
0.241157
 21
111.427
 31
0.0
  0
LINE
  8
0
 62
     0
 10
0.241157
 20
111.427
 30
0.0
 11
0.323839
 21
111.647
 31
0.0
  0
LINE
  8
0
 62
     0
 10
0.323839
 20
111.647
 30
0.0
 11
0.421679
 21
111.861
 31
0.0
  0
LINE
  8
0
 62
     0
 10
0.421679
 20
111.861
 30
0.0
 11
0.537436
 21
112.068
 31
0.0
  0
LINE
  8
0
 62
     0
 10
0.537436
 20
112.068
 30
0.0
 11
0.666972
 21
112.263
 31
0.0
  0
LINE
  8
0
 62
     0
 10
0.666972
 20
112.263
 30
0.0
 11
0.813043
 21
112.448
 31
0.0
  0
LINE
  8
0
 62
     0
 10
0.813043
 20
112.448
 30
0.0
 11
0.972894
 21
112.621
 31
0.0
  0
LINE
  8
0
 62
     0
 10
0.972894
 20
112.621
 30
0.0
 11
1.14653
 21
112.781
 31
0.0
  0
LINE
  8
0
 62
     0
 10
1.14653
 20
112.781
 30
0.0
 11
1.33119
 21
112.927
 31
0.0
  0
LINE
  8
0
 62
     0
 10
1.33119
 20
112.927
 30
0.0
 11
1.52687
 21
113.057
 31
0.0
  0
LINE
  8
0
 62
     0
 10
1.52687
 20
113.057
 30
0.0
 11
1.73357
 21
113.173
 31
0.0
  0
LINE
  8
0
 62
     0
 10
1.73357
 20
113.173
 30
0.0
 11
1.94717
 21
113.271
 31
0.0
  0
LINE
  8
0
 62
     0
 10
1.94717
 20
113.271
 30
0.0
 11
2.16765
 21
113.353
 31
0.0
  0
LINE
  8
0
 62
     0
 10
2.16765
 20
113.353
 30
0.0
 11
2.39503
 21
113.417
 31
0.0
  0
LINE
  8
0
 62
     0
 10
2.39503
 20
113.417
 30
0.0
 11
2.62516
 21
113.464
 31
0.0
  0
LINE
  8
0
 62
     0
 10
2.62516
 20
113.464
 30
0.0
 11
2.85943
 21
113.49
 31
0.0
  0
LINE
  8
0
 62
     0
 10
2.85943
 20
113.49
 30
0.0
 11
3.09507
 21
113.499
 31
0.0
  0
LINE
  8
0
 62
     0
 10
3.09507
 20
113.499
 30
0.0
 11
76.2953
 21
113.499
 31
0.0
  0
LINE
  8
0
 62
     0
 10
90.8322
 20
4.67431
 30
0.0
 11
90.4145
 21
4.46207
 31
0.0
  0
LINE
  8
0
 62
     0
 10
90.4145
 20
4.46207
 30
0.0
 11
90.0825
 21
4.12997
 31
0.0
  0
LINE
  8
0
 62
     0
 10
90.0825
 20
4.12997
 30
0.0
 11
89.8701
 21
3.71242
 31
0.0
  0
LINE
  8
0
 62
     0
 10
89.8701
 20
3.71242
 30
0.0
 11
89.7971
 21
3.24804
 31
0.0
  0
LINE
  8
0
 62
     0
 10
89.7971
 20
3.24804
 30
0.0
 11
89.8701
 21
2.78501
 31
0.0
  0
LINE
  8
0
 62
     0
 10
89.8701
 20
2.78501
 30
0.0
 11
90.0825
 21
2.36747
 31
0.0
  0
LINE
  8
0
 62
     0
 10
90.0825
 20
2.36747
 30
0.0
 11
90.4145
 21
2.03536
 31
0.0
  0
LINE
  8
0
 62
     0
 10
90.4145
 20
2.03536
 30
0.0
 11
90.8322
 21
1.82177
 31
0.0
  0
LINE
  8
0
 62
     0
 10
90.8322
 20
1.82177
 30
0.0
 11
91.2964
 21
1.74735
 31
0.0
  0
LINE
  8
0
 62
     0
 10
91.2964
 20
1.74735
 30
0.0
 11
91.7593
 21
1.82177
 31
0.0
  0
LINE
  8
0
 62
     0
 10
91.7593
 20
1.82177
 30
0.0
 11
92.177
 21
2.03536
 31
0.0
  0
LINE
  8
0
 62
     0
 10
92.177
 20
2.03536
 30
0.0
 11
92.5089
 21
2.36747
 31
0.0
  0
LINE
  8
0
 62
     0
 10
92.5089
 20
2.36747
 30
0.0
 11
92.7227
 21
2.78501
 31
0.0
  0
LINE
  8
0
 62
     0
 10
92.7227
 20
2.78501
 30
0.0
 11
92.7971
 21
3.24804
 31
0.0
  0
LINE
  8
0
 62
     0
 10
92.7971
 20
3.24804
 30
0.0
 11
92.7227
 21
3.71242
 31
0.0
  0
LINE
  8
0
 62
     0
 10
92.7227
 20
3.71242
 30
0.0
 11
92.5089
 21
4.12997
 31
0.0
  0
LINE
  8
0
 62
     0
 10
92.5089
 20
4.12997
 30
0.0
 11
92.177
 21
4.46207
 31
0.0
  0
LINE
  8
0
 62
     0
 10
92.177
 20
4.46207
 30
0.0
 11
91.7593
 21
4.67431
 31
0.0
  0
LINE
  8
0
 62
     0
 10
91.7593
 20
4.67431
 30
0.0
 11
91.2964
 21
4.74733
 31
0.0
  0
LINE
  8
0
 62
     0
 10
91.2964
 20
4.74733
 30
0.0
 11
90.8322
 21
4.67431
 31
0.0
  0
LINE
  8
0
 62
     0
 10
2.63205
 20
4.67431
 30
0.0
 11
2.21313
 21
4.46207
 31
0.0
  0
LINE
  8
0
 62
     0
 10
2.21313
 20
4.46207
 30
0.0
 11
1.88102
 21
4.12997
 31
0.0
  0
LINE
  8
0
 62
     0
 10
1.88102
 20
4.12997
 30
0.0
 11
1.6688
 21
3.71242
 31
0.0
  0
LINE
  8
0
 62
     0
 10
1.6688
 20
3.71242
 30
0.0
 11
1.59439
 21
3.24804
 31
0.0
  0
LINE
  8
0
 62
     0
 10
1.59439
 20
3.24804
 30
0.0
 11
1.6688
 21
2.78501
 31
0.0
  0
LINE
  8
0
 62
     0
 10
1.6688
 20
2.78501
 30
0.0
 11
1.88102
 21
2.36747
 31
0.0
  0
LINE
  8
0
 62
     0
 10
1.88102
 20
2.36747
 30
0.0
 11
2.21313
 21
2.03536
 31
0.0
  0
LINE
  8
0
 62
     0
 10
2.21313
 20
2.03536
 30
0.0
 11
2.63205
 21
1.82177
 31
0.0
  0
LINE
  8
0
 62
     0
 10
2.63205
 20
1.82177
 30
0.0
 11
3.09507
 21
1.74735
 31
0.0
  0
LINE
  8
0
 62
     0
 10
3.09507
 20
1.74735
 30
0.0
 11
3.55808
 21
1.82177
 31
0.0
  0
LINE
  8
0
 62
     0
 10
3.55808
 20
1.82177
 30
0.0
 11
3.97701
 21
2.03536
 31
0.0
  0
LINE
  8
0
 62
     0
 10
3.97701
 20
2.03536
 30
0.0
 11
4.30911
 21
2.36747
 31
0.0
  0
LINE
  8
0
 62
     0
 10
4.30911
 20
2.36747
 30
0.0
 11
4.52134
 21
2.78501
 31
0.0
  0
LINE
  8
0
 62
     0
 10
4.52134
 20
2.78501
 30
0.0
 11
4.59574
 21
3.24804
 31
0.0
  0
LINE
  8
0
 62
     0
 10
4.59574
 20
3.24804
 30
0.0
 11
4.52134
 21
3.71242
 31
0.0
  0
LINE
  8
0
 62
     0
 10
4.52134
 20
3.71242
 30
0.0
 11
4.30911
 21
4.12997
 31
0.0
  0
LINE
  8
0
 62
     0
 10
4.30911
 20
4.12997
 30
0.0
 11
3.97701
 21
4.46207
 31
0.0
  0
LINE
  8
0
 62
     0
 10
3.97701
 20
4.46207
 30
0.0
 11
3.55808
 21
4.67431
 31
0.0
  0
LINE
  8
0
 62
     0
 10
3.55808
 20
4.67431
 30
0.0
 11
3.09507
 21
4.74733
 31
0.0
  0
LINE
  8
0
 62
     0
 10
3.09507
 20
4.74733
 30
0.0
 11
2.63205
 21
4.67431
 31
0.0
  0
LINE
  8
0
 62
     0
 10
90.8322
 20
111.926
 30
0.0
 11
90.4145
 21
111.713
 31
0.0
  0
LINE
  8
0
 62
     0
 10
90.4145
 20
111.713
 30
0.0
 11
90.0825
 21
111.381
 31
0.0
  0
LINE
  8
0
 62
     0
 10
90.0825
 20
111.381
 30
0.0
 11
89.8701
 21
110.962
 31
0.0
  0
LINE
  8
0
 62
     0
 10
89.8701
 20
110.962
 30
0.0
 11
89.7971
 21
110.5
 31
0.0
  0
LINE
  8
0
 62
     0
 10
89.7971
 20
110.5
 30
0.0
 11
89.8701
 21
110.036
 31
0.0
  0
LINE
  8
0
 62
     0
 10
89.8701
 20
110.036
 30
0.0
 11
90.0825
 21
109.618
 31
0.0
  0
LINE
  8
0
 62
     0
 10
90.0825
 20
109.618
 30
0.0
 11
90.4145
 21
109.285
 31
0.0
  0
LINE
  8
0
 62
     0
 10
90.4145
 20
109.285
 30
0.0
 11
90.8322
 21
109.073
 31
0.0
  0
LINE
  8
0
 62
     0
 10
90.8322
 20
109.073
 30
0.0
 11
91.2964
 21
108.999
 31
0.0
  0
LINE
  8
0
 62
     0
 10
91.2964
 20
108.999
 30
0.0
 11
91.7593
 21
109.073
 31
0.0
  0
LINE
  8
0
 62
     0
 10
91.7593
 20
109.073
 30
0.0
 11
92.177
 21
109.285
 31
0.0
  0
LINE
  8
0
 62
     0
 10
92.177
 20
109.285
 30
0.0
 11
92.5089
 21
109.618
 31
0.0
  0
LINE
  8
0
 62
     0
 10
92.5089
 20
109.618
 30
0.0
 11
92.7227
 21
110.036
 31
0.0
  0
LINE
  8
0
 62
     0
 10
92.7227
 20
110.036
 30
0.0
 11
92.7971
 21
110.5
 31
0.0
  0
LINE
  8
0
 62
     0
 10
92.7971
 20
110.5
 30
0.0
 11
92.7227
 21
110.962
 31
0.0
  0
LINE
  8
0
 62
     0
 10
92.7227
 20
110.962
 30
0.0
 11
92.5089
 21
111.381
 31
0.0
  0
LINE
  8
0
 62
     0
 10
92.5089
 20
111.381
 30
0.0
 11
92.177
 21
111.713
 31
0.0
  0
LINE
  8
0
 62
     0
 10
92.177
 20
111.713
 30
0.0
 11
91.7593
 21
111.926
 31
0.0
  0
LINE
  8
0
 62
     0
 10
91.7593
 20
111.926
 30
0.0
 11
91.2964
 21
111.999
 31
0.0
  0
LINE
  8
0
 62
     0
 10
91.2964
 20
111.999
 30
0.0
 11
90.8322
 21
111.926
 31
0.0
  0
LINE
  8
0
 62
     0
 10
2.63205
 20
111.926
 30
0.0
 11
2.21313
 21
111.713
 31
0.0
  0
LINE
  8
0
 62
     0
 10
2.21313
 20
111.713
 30
0.0
 11
1.88102
 21
111.381
 31
0.0
  0
LINE
  8
0
 62
     0
 10
1.88102
 20
111.381
 30
0.0
 11
1.6688
 21
110.962
 31
0.0
  0
LINE
  8
0
 62
     0
 10
1.6688
 20
110.962
 30
0.0
 11
1.59439
 21
110.5
 31
0.0
  0
LINE
  8
0
 62
     0
 10
1.59439
 20
110.5
 30
0.0
 11
1.6688
 21
110.036
 31
0.0
  0
LINE
  8
0
 62
     0
 10
1.6688
 20
110.036
 30
0.0
 11
1.88102
 21
109.618
 31
0.0
  0
LINE
  8
0
 62
     0
 10
1.88102
 20
109.618
 30
0.0
 11
2.21313
 21
109.285
 31
0.0
  0
LINE
  8
0
 62
     0
 10
2.21313
 20
109.285
 30
0.0
 11
2.63205
 21
109.073
 31
0.0
  0
LINE
  8
0
 62
     0
 10
2.63205
 20
109.073
 30
0.0
 11
3.09507
 21
108.999
 31
0.0
  0
LINE
  8
0
 62
     0
 10
3.09507
 20
108.999
 30
0.0
 11
3.55808
 21
109.073
 31
0.0
  0
LINE
  8
0
 62
     0
 10
3.55808
 20
109.073
 30
0.0
 11
3.97701
 21
109.285
 31
0.0
  0
LINE
  8
0
 62
     0
 10
3.97701
 20
109.285
 30
0.0
 11
4.30911
 21
109.618
 31
0.0
  0
LINE
  8
0
 62
     0
 10
4.30911
 20
109.618
 30
0.0
 11
4.52134
 21
110.036
 31
0.0
  0
LINE
  8
0
 62
     0
 10
4.52134
 20
110.036
 30
0.0
 11
4.59574
 21
110.5
 31
0.0
  0
LINE
  8
0
 62
     0
 10
4.59574
 20
110.5
 30
0.0
 11
4.52134
 21
110.962
 31
0.0
  0
LINE
  8
0
 62
     0
 10
4.52134
 20
110.962
 30
0.0
 11
4.30911
 21
111.381
 31
0.0
  0
LINE
  8
0
 62
     0
 10
4.30911
 20
111.381
 30
0.0
 11
3.97701
 21
111.713
 31
0.0
  0
LINE
  8
0
 62
     0
 10
3.97701
 20
111.713
 30
0.0
 11
3.55808
 21
111.926
 31
0.0
  0
LINE
  8
0
 62
     0
 10
3.55808
 20
111.926
 30
0.0
 11
3.09507
 21
111.999
 31
0.0
  0
LINE
  8
0
 62
     0
 10
3.09507
 20
111.999
 30
0.0
 11
2.63205
 21
111.926
 31
0.0
  0
ENDSEC
  0
EOF
